<?xml version="1.0" standalone="no"?>
<!DOCTYPE svg PUBLIC "-//W3C//DTD SVG 20010904//EN"
 "http://www.w3.org/TR/2001/REC-SVG-20010904/DTD/svg10.dtd">
<svg version="1.0" xmlns="http://www.w3.org/2000/svg"
 width="328.000000pt" height="660.000000pt" viewBox="0 0 328.000000 660.000000"
 preserveAspectRatio="xMidYMid meet">

<g transform="translate(0.000000,660.000000) scale(0.100000,-0.100000)"
fill="#000000" stroke="none">
<path d="M1278 5998 l-3 -143 -410 -5 c-371 -5 -414 -7 -450 -24 -107 -49
-188 -139 -214 -236 -9 -35 -11 -620 -9 -2535 l3 -2490 26 -55 c34 -73 99
-136 179 -174 l65 -31 1220 0 c1173 0 1222 1 1270 19 106 40 185 121 220 225
14 42 15 307 13 2541 l-3 2495 -27 58 c-36 75 -112 149 -185 179 -57 22 -68
23 -463 28 l-405 5 -3 143 -3 142 -409 0 -409 0 -3 -142z m1649 -249 c65 -25
119 -74 150 -137 l28 -57 0 -2480 0 -2480 -27 -51 c-33 -63 -103 -126 -156
-142 -29 -9 -348 -12 -1238 -12 l-1199 0 -50 24 c-55 25 -118 89 -143 145 -16
33 -17 231 -17 2516 l0 2480 21 46 c23 49 82 112 127 136 16 8 47 18 70 22 23
5 571 8 1217 7 1044 -1 1180 -3 1217 -17z"/>
<path d="M1932 4737 c-194 -317 -887 -1445 -1074 -1747 l-59 -95 456 -3 c358
-2 457 -5 461 -15 2 -7 -30 -89 -72 -182 -41 -94 -106 -242 -144 -330 -82
-191 -238 -553 -310 -720 -97 -223 -121 -280 -117 -275 3 3 71 88 152 190 81
102 183 230 228 285 250 307 1117 1396 1117 1403 0 5 -156 14 -347 20 -537 19
-613 23 -613 36 0 6 5 27 10 46 6 19 76 292 155 605 80 314 163 639 185 724
22 85 38 156 37 157 -2 2 -31 -43 -65 -99z"/>
</g>
</svg>
