<?xml version="1.0" standalone="no"?>
<!DOCTYPE svg PUBLIC "-//W3C//DTD SVG 20010904//EN"
 "http://www.w3.org/TR/2001/REC-SVG-20010904/DTD/svg10.dtd">
<svg version="1.0" xmlns="http://www.w3.org/2000/svg"
 width="156.000000pt" height="313.000000pt" viewBox="0 0 156.000000 313.000000"
 preserveAspectRatio="xMidYMid meet">

<g transform="translate(0.000000,313.000000) scale(0.100000,-0.100000)"
fill="#000000" stroke="none">
<path d="M537 2832 c-14 -15 -17 -40 -17 -123 0 -57 -4 -109 -8 -116 -5 -8
-59 -13 -171 -15 -157 -3 -163 -4 -182 -27 -18 -23 -19 -56 -19 -1170 l0
-1148 23 -21 23 -22 591 0 c334 0 602 4 616 9 13 5 29 22 36 38 8 21 11 313 9
1160 l-3 1132 -23 23 c-21 22 -32 23 -180 26 -89 2 -162 8 -169 14 -9 7 -13
44 -13 119 0 84 -3 111 -16 123 -13 14 -50 16 -248 16 -213 0 -234 -2 -249
-18z m481 -24 c8 -8 12 -49 12 -119 0 -84 3 -111 16 -123 13 -13 43 -16 170
-16 141 0 156 -2 174 -20 20 -20 20 -33 20 -1143 0 -1000 -2 -1125 -16 -1145
l-15 -22 -593 0 c-472 0 -596 3 -604 13 -8 9 -11 283 -12 887 -2 1433 -2 1396
16 1414 13 13 43 16 170 16 199 0 194 -4 194 148 0 60 3 112 7 115 12 13 448
8 461 -5z"/>
<path d="M772 2073 c-17 -60 -54 -186 -82 -281 l-51 -174 24 -31 c14 -18 45
-54 71 -82 25 -27 43 -57 41 -65 -15 -58 -116 -583 -112 -586 2 -3 28 53 57
123 29 70 88 213 131 316 44 104 79 193 79 198 0 5 -29 46 -65 91 l-64 82 2
258 c1 142 2 258 1 258 0 0 -15 -48 -32 -107z"/>
</g>
</svg>
