<?xml version="1.0" standalone="no"?>
<!DOCTYPE svg PUBLIC "-//W3C//DTD SVG 20010904//EN"
 "http://www.w3.org/TR/2001/REC-SVG-20010904/DTD/svg10.dtd">
<svg version="1.0" xmlns="http://www.w3.org/2000/svg"
 width="156.000000pt" height="304.000000pt" viewBox="0 0 156.000000 304.000000"
 preserveAspectRatio="xMidYMid meet">

<g transform="translate(0.000000,304.000000) scale(0.100000,-0.100000)"
fill="#000000" stroke="none">
<path d="M529 2824 c-9 -11 -16 -56 -19 -133 l-5 -116 -160 -5 c-88 -3 -167
-9 -176 -13 -9 -5 -21 -19 -28 -33 -8 -18 -11 -334 -11 -1160 l0 -1135 25 -24
24 -25 601 0 601 0 24 25 25 24 0 1135 c0 826 -3 1142 -11 1160 -7 14 -19 28
-28 33 -9 4 -88 10 -176 13 l-160 5 -5 116 c-3 77 -10 122 -19 133 -12 14 -43
16 -251 16 -208 0 -239 -2 -251 -16z m479 -26 c8 -8 12 -49 12 -119 0 -84 3
-111 16 -123 13 -13 43 -16 170 -16 141 0 156 -2 174 -20 20 -20 20 -33 20
-1147 0 -1034 -1 -1128 -17 -1145 -15 -17 -47 -18 -604 -18 -521 0 -589 2
-603 16 -14 14 -16 131 -16 1145 0 1116 0 1129 20 1149 18 18 33 20 172 20
194 0 188 -5 188 140 0 69 4 110 12 118 17 17 439 17 456 0z"/>
<path d="M757 1897 c-42 -155 -77 -286 -77 -290 0 -5 29 -42 65 -83 36 -41 65
-79 65 -84 0 -11 -63 -337 -95 -489 -13 -62 -20 -109 -15 -105 5 5 61 135 124
289 64 154 123 295 131 313 l15 33 -66 84 -65 84 3 266 c2 146 1 265 -2 265
-3 0 -40 -127 -83 -283z"/>
</g>
</svg>
