<?xml version="1.0" standalone="no"?>
<!DOCTYPE svg PUBLIC "-//W3C//DTD SVG 20010904//EN"
 "http://www.w3.org/TR/2001/REC-SVG-20010904/DTD/svg10.dtd">
<svg version="1.0" xmlns="http://www.w3.org/2000/svg"
 width="162.000000pt" height="312.000000pt" viewBox="0 0 162.000000 312.000000"
 preserveAspectRatio="xMidYMid meet">

<g transform="translate(0.000000,312.000000) scale(0.100000,-0.100000)"
fill="#000000" stroke="none">
<path d="M518 2829 c-15 -9 -18 -26 -18 -118 0 -70 -4 -113 -12 -124 -11 -13
-39 -16 -171 -19 l-159 -3 -24 -28 -24 -28 0 -1130 c0 -1202 -1 -1175 45
-1193 9 -3 285 -6 614 -6 l598 0 21 23 22 23 0 1146 c0 1113 -1 1146 -19 1169
-19 23 -25 24 -182 27 -112 2 -166 7 -171 15 -4 7 -8 60 -8 118 0 90 -3 108
-18 122 -16 15 -48 17 -248 17 -137 0 -236 -5 -246 -11z m482 -140 c3 -77 10
-122 19 -133 11 -14 37 -16 172 -16 130 0 160 -3 173 -16 14 -14 16 -132 16
-1153 0 -871 -3 -1140 -12 -1149 -9 -9 -156 -12 -602 -12 -534 0 -591 2 -608
17 -17 15 -18 64 -18 1145 0 1115 0 1128 20 1148 18 18 33 20 174 20 127 0
157 3 170 16 13 12 16 39 16 123 0 71 4 111 12 119 9 9 71 12 238 10 l225 -3
5 -116z"/>
<path d="M679 1878 l-76 -273 41 -48 c23 -26 54 -63 69 -81 l28 -33 -25 -114
c-20 -93 -54 -259 -92 -459 -3 -14 18 29 46 95 51 120 210 512 210 518 0 2
-30 42 -66 88 l-66 84 7 248 c4 136 6 247 3 247 -2 0 -38 -123 -79 -272z"/>
</g>
</svg>
