<?xml version="1.0" standalone="no"?>
<!DOCTYPE svg PUBLIC "-//W3C//DTD SVG 20010904//EN"
 "http://www.w3.org/TR/2001/REC-SVG-20010904/DTD/svg10.dtd">
<svg version="1.0" xmlns="http://www.w3.org/2000/svg"
 width="156.000000pt" height="312.000000pt" viewBox="0 0 156.000000 312.000000"
 preserveAspectRatio="xMidYMid meet">

<g transform="translate(0.000000,312.000000) scale(0.100000,-0.100000)"
fill="#000000" stroke="none">
<path d="M539 2844 c-9 -11 -16 -56 -19 -133 l-5 -116 -160 -5 c-161 -5 -196
-13 -209 -46 -3 -8 -6 -528 -6 -1155 l0 -1140 25 -24 24 -25 601 0 601 0 24
25 25 24 0 1141 c0 720 -4 1148 -10 1159 -16 31 -39 35 -205 41 l-160 5 -5
116 c-3 77 -10 122 -19 133 -12 14 -43 16 -251 16 -208 0 -239 -2 -251 -16z
m489 -134 c4 -157 -5 -150 190 -150 131 0 158 -3 174 -17 17 -15 18 -64 18
-1149 0 -1016 -2 -1134 -16 -1148 -14 -14 -82 -16 -604 -16 -522 0 -590 2
-604 16 -14 14 -16 132 -16 1146 0 1039 1 1133 17 1150 14 16 34 18 171 18
198 0 192 -4 192 136 0 56 3 110 6 118 6 15 33 16 238 14 l231 -3 3 -115z"/>
<path d="M820 2143 c-1 -10 -34 -135 -74 -278 l-73 -260 41 -48 c22 -26 53
-62 68 -80 l28 -32 -55 -279 c-30 -153 -55 -281 -55 -285 0 -8 250 591 250
600 0 3 -29 44 -65 90 l-65 84 6 253 c4 138 4 252 1 252 -4 0 -7 -8 -7 -17z"/>
<path d="M265 762 l-40 -7 -3 -234 c-2 -181 1 -236 10 -243 15 -9 1088 -11
1112 -2 14 5 16 36 16 236 l0 230 -22 -5 c-13 -4 -75 -11 -138 -18 -141 -14
-348 -6 -525 21 -141 22 -346 33 -410 22z"/>
</g>
</svg>
