<?xml version="1.0" encoding="utf-8"?>
<!-- Generator: Adobe Illustrator 24.0.1, SVG Export Plug-In . SVG Version: 6.00 Build 0)  -->
<svg version="1.1" id="Capa_1" xmlns="http://www.w3.org/2000/svg" xmlns:xlink="http://www.w3.org/1999/xlink" x="0px" y="0px"
	 viewBox="0 0 232.4 37.2" style="enable-background:new 0 0 232.4 37.2;" xml:space="preserve">
<style type="text/css">
	.st0{fill:#E4E8F1;}
	.st1{font-family:'Prompt-Regular';}
	.st2{font-size:28.7681px;}
	.st3{fill:#003264;}
	.st4{fill:#FFFFFF;}
</style>
<g>
	<text transform="matrix(1 0 0 1 64.0648 27.0078)" class="st0 st1 st2">Actividades</text>
	<g>
		<path class="st0" d="M15.5,32.3L15.5,32.3c-7.6,0-13.7-6.1-13.7-13.7v0C1.8,11,7.9,4.9,15.5,4.9h0c7.6,0,13.7,6.1,13.7,13.7v0
			C29.2,26.2,23.1,32.3,15.5,32.3z"/>
		<g>
			<path class="st3" d="M6.6,24.4L6,25.9h0c1.6-0.3,3.3-0.6,4.9-0.7l0.9-3.6c-0.8,0.2-1.6,0.4-2.3,0.7C8.3,22.7,7.3,23.4,6.6,24.4z"
				/>
		</g>
		<path class="st3" d="M24.7,25.9L22,18.7c-1,0.5-2.7,1-3.5,1.2l1.3,5.2C21.4,25.3,23.1,25.6,24.7,25.9"/>
		<g>
			<path class="st3" d="M10.4,19.1c1.2-0.4,2.4-0.6,3.5-0.9c1.2-0.3,2.4-0.6,3.6-0.9c1.2-0.3,2.4-0.6,3.5-1.2
				c0.9-0.5,1.6-1.5,1.2-2.6c-0.5,1.2-1.6,1.7-2.8,2.1c-1.1,0.4-2.2,0.7-3.3,0.9c-1.1,0.3-2.3,0.5-3.4,0.8c-1.1,0.3-2.3,0.5-3.4,1
				c-0.9,0.4-1.9,0.9-1.7,2.3C8.2,19.8,9.4,19.4,10.4,19.1z"/>
		</g>
		<g>
			<path class="st3" d="M16.1,15.7c1.2-0.3,2.4-0.6,3.6-1.1c0.5-0.2,1-0.4,1.4-0.8c0.4-0.4,0.6-1,0.4-1.5c-0.3,0.6-0.8,1-1.4,1.3
				l-1.8-4.7h-2.5l1.4,5.7c-1.2,0.3-2.5,0.6-3.8,0.9L15,8.9h-2.5l-2.9,7.7c-0.5,0.3-1,0.7-1,1.5c0.3-0.3,0.9-0.7,2.4-1.1
				C13.4,16.2,13.9,16.2,16.1,15.7z"/>
		</g>
		<g>
			<path class="st3" d="M22.4,17.4c0.5-0.6,0.8-1.5,0.5-2.3c-0.7,1.6-2.6,2.2-4.2,2.6c-1.7,0.5-3.3,0.9-5,1.3
				c-1.6,0.4-3.2,0.7-4.7,1.4c-1.3,0.6-2.4,1.4-2.5,3.3c0.7-1,1.8-1.7,2.9-2.1c1.3-0.5,2.6-0.8,3.9-1.1c0.8-0.2,1.5-0.4,2.3-0.6
				c1.3-0.4,2.6-0.7,3.9-1.1C20.6,18.4,21.7,18.1,22.4,17.4z"/>
		</g>
	</g>
	<rect x="46.1" y="0" class="st4" width="1.3" height="37.2"/>
</g>
</svg>
