<?xml version="1.0" encoding="utf-8"?>
<!-- Generator: Adobe Illustrator 24.0.1, SVG Export Plug-In . SVG Version: 6.00 Build 0)  -->
<svg version="1.1" id="Capa_1" xmlns="http://www.w3.org/2000/svg" xmlns:xlink="http://www.w3.org/1999/xlink" x="0px" y="0px"
	 viewBox="0 0 232.4 37.2" style="enable-background:new 0 0 232.4 37.2;" xml:space="preserve">
<style type="text/css">
	.st0{fill:#E4E8F1;}
	.st1{font-family:'Prompt-Regular';}
	.st2{font-size:28.7681px;}
	.st3{fill:#003264;}
	.st4{fill:#FFFFFF;}
</style>
<g>
	<text transform="matrix(1 0 0 1 62.2509 27.0078)" class="st0 st1 st2">Cronograma</text>
	<g>
		<path class="st0" d="M13.7,32.3L13.7,32.3C6.1,32.3,0,26.2,0,18.6v0C0,11,6.1,4.9,13.7,4.9h0c7.6,0,13.7,6.1,13.7,13.7v0
			C27.4,26.2,21.3,32.3,13.7,32.3z"/>
		<g>
			<path class="st3" d="M4.7,24.4l-0.6,1.5h0c1.6-0.3,3.3-0.6,4.9-0.7l0.9-3.6c-0.8,0.2-1.6,0.4-2.3,0.7C6.5,22.7,5.5,23.4,4.7,24.4
				z"/>
		</g>
		<path class="st3" d="M22.9,25.9l-2.8-7.2c-1,0.5-2.7,1-3.5,1.2l1.3,5.2C19.6,25.3,21.3,25.6,22.9,25.9"/>
		<g>
			<path class="st3" d="M8.6,19.1c1.2-0.4,2.4-0.6,3.5-0.9c1.2-0.3,2.4-0.6,3.6-0.9c1.2-0.3,2.4-0.6,3.5-1.2
				c0.9-0.5,1.6-1.5,1.2-2.6c-0.5,1.2-1.6,1.7-2.8,2.1c-1.1,0.4-2.2,0.7-3.3,0.9c-1.1,0.3-2.3,0.5-3.4,0.8c-1.1,0.3-2.3,0.5-3.4,1
				c-0.9,0.4-1.9,0.9-1.7,2.3C6.4,19.8,7.6,19.4,8.6,19.1z"/>
		</g>
		<g>
			<path class="st3" d="M14.3,15.7c1.2-0.3,2.4-0.6,3.6-1.1c0.5-0.2,1-0.4,1.4-0.8c0.4-0.4,0.6-1,0.4-1.5c-0.3,0.6-0.8,1-1.4,1.3
				l-1.8-4.7h-2.5l1.4,5.7c-1.2,0.3-2.5,0.6-3.8,0.9l1.6-6.6h-2.5l-2.9,7.7c-0.5,0.3-1,0.7-1,1.5c0.3-0.3,0.9-0.7,2.4-1.1
				C11.6,16.2,12.1,16.2,14.3,15.7z"/>
		</g>
		<g>
			<path class="st3" d="M20.6,17.4c0.5-0.6,0.8-1.5,0.5-2.3c-0.7,1.6-2.6,2.2-4.2,2.6c-1.7,0.5-3.3,0.9-5,1.3
				c-1.6,0.4-3.2,0.7-4.7,1.4C6,21,4.8,21.8,4.8,23.7c0.7-1,1.8-1.7,2.9-2.1c1.3-0.5,2.6-0.8,3.9-1.1c0.8-0.2,1.5-0.4,2.3-0.6
				c1.3-0.4,2.6-0.7,3.9-1.1C18.8,18.4,19.9,18.1,20.6,17.4z"/>
		</g>
	</g>
	<rect x="44.3" y="0" class="st4" width="1.3" height="37.2"/>
</g>
</svg>
