<?xml version="1.0" encoding="utf-8"?>
<!-- Generator: Adobe Illustrator 24.0.1, SVG Export Plug-In . SVG Version: 6.00 Build 0)  -->
<svg version="1.1" xmlns="http://www.w3.org/2000/svg" xmlns:xlink="http://www.w3.org/1999/xlink" x="0px" y="0px"
	 viewBox="0 0 181.9 181.9" style="enable-background:new 0 0 181.9 181.9;" xml:space="preserve">
<style type="text/css">
	.st0{display:none;}
	.st1{display:inline;fill:#1D71B8;}
	.st2{fill:none;stroke:#003264;stroke-miterlimit:10;}
	.st3{fill:#003264;}
	.st4{font-family:'Prompt-Regular';}
	.st5{font-size:17px;}
	.st6{fill:#003264;}
	.st7{display:inline;}
</style>
<g id="Capa_2" class="st0">
	<rect x="0.5" y="0.5" class="st1" width="180.9" height="180.9"/>
</g>
<g id="Capa_1">
	<rect x="0.5" y="0.5" class="st2" width="180.9" height="180.9"/>
	<g>
		<text transform="matrix(1 0 0 1 52.8766 140.3654)" class="st3 st4 st5">Deportes</text>
	</g>
	<g id="_x33_gjrHi.tif">
		<g>
			<path class="st6" d="M56.5,76.5c0-1.4,0-2.9,0-4.3c0.2-1.2,0.3-2.4,0.5-3.5c1.3-7.7,4.8-14.3,10.6-19.6c8.6-7.8,18.6-10.7,30-8.6
				c8,1.4,14.6,5.4,19.8,11.6c6.6,7.8,9.2,16.9,7.9,27c-0.9,6.9-3.7,12.9-8.3,18.1c-5.4,6.1-12,9.8-20,11.2
				c-1.3,0.2-2.5,0.4-3.8,0.5c-1.4,0-2.9,0-4.3,0c-0.2,0-0.3-0.1-0.5-0.1c-4.7-0.3-9.2-1.6-13.3-3.8c-9.9-5.3-16-13.6-18.1-24.6
				C56.8,79.1,56.7,77.8,56.5,76.5z M91.1,86.7c2.5,0,4.9,0,7.4,0c0.7,0,0.9-0.2,1.1-0.8c1.3-4.7,2.7-9.4,4.1-14
				c0.2-0.8,0.1-1.3-0.6-1.8c-3.8-3-7.6-6.1-11.4-9.1c-0.4-0.3-0.7-0.3-1.1,0c-1.9,1.5-3.9,3-5.8,4.6c-2,1.6-4,3.2-6,4.8
				c-0.3,0.2-0.5,0.4-0.4,0.9c1.5,5,2.9,9.9,4.3,14.9c0.1,0.5,0.4,0.6,0.8,0.6C86,86.6,88.5,86.7,91.1,86.7z M66.2,87.1
				c-0.2,1.9-0.3,3.8-0.6,5.6c-0.3,1.5,0,2.7,1.3,3.7c0.1,0.1,0.1,0.1,0.2,0.2c2.8,2.9,6,5.3,9.6,7c0.2,0.1,0.6,0.1,0.8,0.1
				c1.3-0.4,2.6-0.8,3.9-1.3c1-0.3,2-0.7,3-1c0-0.1,0-0.2-0.1-0.2c-2.2-3.2-4.4-6.5-6.6-9.7c-0.1-0.2-0.3-0.3-0.5-0.4
				C73.7,89.6,70,88.4,66.2,87.1z M116,87.1c-3.7,1.3-7.4,2.5-11,3.8c-0.3,0.1-0.6,0.4-0.8,0.6c-2.1,3.1-4.2,6.1-6.3,9.2
				c-0.1,0.2-0.2,0.3-0.3,0.5c2.4,0.8,4.7,1.5,7,2.3c0.3,0.1,0.6,0,0.9-0.1c4.2-2,7.7-4.8,10.8-8.3c0.3-0.3,0.3-0.8,0.3-1.2
				c0-1.1-0.2-2.1-0.3-3.2C116.2,89.6,116.1,88.4,116,87.1z M69.5,54.6c-1.9,0.7-3.8,1.3-5.6,2c-0.4,0.1-0.8,0.5-1,0.9
				c-2.4,4-3.8,8.3-4.4,12.9c-0.2,1.4,0,2.5,0.9,3.6c0.9,1,1.6,2.1,2.3,3.2c0.1-0.1,0.2-0.1,0.2-0.1c2.5-3,4.9-6,7.4-9
				c0.2-0.2,0.3-0.7,0.3-1c0-3.9-0.1-7.7-0.1-11.6C69.5,55.3,69.5,55,69.5,54.6z M120.4,77.3c1.1-1.6,2.2-3.1,3.2-4.5
				c0.1-0.2,0.2-0.5,0.2-0.8c-0.3-5.2-1.9-10-4.5-14.5c-0.2-0.3-0.5-0.5-0.8-0.7c-1.3-0.5-2.6-0.9-3.9-1.4c-0.6-0.2-1.2-0.4-1.9-0.7
				c0,0.3,0,0.4,0,0.6c0,4-0.1,7.9-0.1,11.9c0,0.4,0.2,0.8,0.4,1.1c1.3,1.6,2.6,3.2,3.9,4.8C118,74.4,119.2,75.8,120.4,77.3z
				 M80.4,48.2c0.1,0.1,0.2,0.1,0.4,0.2c3.3,1.1,6.6,2.2,9.9,3.3c0.3,0.1,0.6,0.1,0.9,0c1.3-0.4,2.6-0.9,3.9-1.3
				c2.1-0.7,4.2-1.4,6.3-2.1c-1.1-1.8-2.2-3.6-3.4-5.3c-0.1-0.1-0.3-0.2-0.4-0.3c-4.6-1.3-9.2-1.3-13.8,0c-0.2,0.1-0.4,0.2-0.5,0.3
				C82.6,44.7,81.5,46.4,80.4,48.2z"/>
		</g>
	</g>
</g>
<g id="Capa_3" class="st0">
	<g class="st7">
		<text transform="matrix(1 0 0 1 42.5577 133.78)"><tspan x="0" y="0" class="st3 st4 st5">Información</tspan><tspan x="13.2" y="20.1" class="st3 st4 st5">Personal</tspan></text>
	</g>
</g>
</svg>
