<?xml version="1.0" encoding="utf-8"?>
<!-- Generator: Adobe Illustrator 24.0.1, SVG Export Plug-In . SVG Version: 6.00 Build 0)  -->
<svg version="1.1" xmlns="http://www.w3.org/2000/svg" xmlns:xlink="http://www.w3.org/1999/xlink" x="0px" y="0px"
	 viewBox="0 0 181.9 181.9" style="enable-background:new 0 0 181.9 181.9;" xml:space="preserve">
<style type="text/css">
	.st0{display:none;}
	.st1{display:inline;fill:#003264;}
	.st2{fill:none;stroke:#003264;stroke-miterlimit:10;}
	.st3{fill:#003264;}
	.st4{font-family:'Prompt-Regular';}
	.st5{font-size:17px;}
	.st6{fill:none;}
	.st7{fill:#003264;}
	.st8{display:inline;}
</style>
<g id="Capa_2" class="st0">
	<rect x="0.5" y="0.5" class="st1" width="180.9" height="180.9"/>
</g>
<g id="Capa_1">
	<rect x="0.5" y="0.5" class="st2" width="180.9" height="180.9"/>
	<g>
		<text transform="matrix(1 0 0 1 50.7174 135.0972)"><tspan x="0" y="0" class="st3 st4 st5">Atención </tspan><tspan x="2.9" y="20.1" class="st3 st4 st5">al cliente</tspan></text>
	</g>
	<g>
		<g>
			<g>
				<g>
					<path class="st6" d="M105,104c0.5,1.4,0.8,2.9,1.1,4.4c-0.1,0.2-0.1,0.3,0,0.5c8.6,0,17.2,0,25.8,0c-0.1-0.1-0.1-0.2,0-0.4
						c-0.2-1.1-0.4-2.1-0.8-3.1c-0.3-0.8-0.6-1.6-0.9-2.4c-1.2-2.7-3-5.1-5.1-7c-2-1.8-4.2-3.2-6.8-4.1c0,0-0.1-0.1-0.1-0.1
						c-0.1,0-0.1,0-0.2,0.1c-1.7,0.6-3.4,1.1-5.1,1.3c-0.7,0.1-1.4,0.1-2.1,0.1c-0.5,0-1,0-1.5,0c-0.4,0-0.8-0.1-1.1-0.1
						c-0.1,0-0.4-0.1-0.5-0.1c-0.2-0.1-0.4-0.1-0.6-0.1c-0.5-0.1-1-0.2-1.5-0.4c-0.8-0.2-1.5-0.4-2.2-0.7c-0.1,0-0.2-0.1-0.3-0.1
						c-0.1,0-0.2,0-0.3,0.1c-0.4,0.1-0.7,0.3-1,0.4c-0.9,0.4-1.7,0.9-2.6,1.4c1.8,2.1,3.2,4.4,4.4,6.9
						C104.2,101.7,104.6,102.9,105,104z"/>
					<path class="st6" d="M119.5,89.6l7.3,4.5C124.6,92.2,122.1,90.7,119.5,89.6z"/>
				</g>
			</g>
		</g>
	</g>
	<g id="co58dM.tif">
		<g>
			<path class="st7" d="M53.6,108.1c-0.1,0-0.2,0-0.3,0c0-0.2,0-0.4,0.1-0.5c1.3-5.9,2.6-11.8,3.9-17.6c0.1-0.3,0-0.7-0.1-1
				c-1.6-3.2-2.8-6.6-3.4-10.1c-0.2-1.2-0.3-2.4-0.5-3.5c0-1.4,0-2.8,0-4.2c0.1-1.1,0.3-2.2,0.4-3.3c2.6-16,16.4-28.2,32.6-28.8
				c9.2-0.3,17.4,2.4,24.3,8.6c9.5,8.7,13.5,19.5,11,32.2c-4.2,21.6-27.8,34.1-48.7,24.3c-0.5-0.2-0.9-0.3-1.4-0.2
				c-4.3,1-8.6,2-12.9,3C56.9,107.3,55.3,107.7,53.6,108.1z M60.4,100.9c0.2,0,0.3-0.1,0.4-0.1c3.7-0.9,7.5-1.7,11.2-2.6
				c0.6-0.1,1.1-0.1,1.7,0.2c6.9,3.7,14.2,4.6,21.7,2.5c14.7-4,23.8-18.5,20.9-33.2C113.2,52,97.5,41.5,81.8,44.8
				c-8.7,1.8-15.3,6.7-19.7,14.4c-3,5.2-4.1,10.9-3.4,16.8c0.4,4.2,1.9,8.1,4,11.8c0.2,0.3,0.3,0.7,0.2,1.1c-0.3,1.5-0.6,2.9-1,4.4
				C61.5,95.9,61,98.3,60.4,100.9z"/>
			<path class="st7" d="M77.7,58.2c1.5-0.4,2.2,0.5,2.7,1.8c0.7,1.8,1.5,3.6,2.2,5.4c0.2,0.6,0.3,1.1-0.1,1.6
				c-0.6,0.8-1.2,1.5-1.8,2.3c-0.8,0.9-0.8,1.1-0.2,2.1c2.5,4.2,6.1,7.3,10.7,9.2c0.8,0.3,1.2,0.3,1.8-0.4c0.8-1,1.6-1.9,2.4-2.9
				c0.4-0.5,0.9-0.8,1.5-0.5c2.3,1.1,4.5,2.1,6.8,3.3c0.3,0.1,0.5,0.6,0.5,0.9c0,2.1-0.6,4-2.5,5.3c-2.5,1.7-5.1,1.9-7.9,1.2
				c-7.4-1.8-13-6-17.4-12c-1.5-2.1-3.1-4.2-3.8-6.7c-1-3.3-0.5-6.3,1.7-9C75.1,58.6,76.2,57.9,77.7,58.2z"/>
		</g>
	</g>
</g>
<g id="Capa_3" class="st0">
	<g class="st8">
		<text transform="matrix(1 0 0 1 42.5577 133.78)"><tspan x="0" y="0" class="st3 st4 st5">Información</tspan><tspan x="13.2" y="20.1" class="st3 st4 st5">Personal</tspan></text>
	</g>
</g>
</svg>
