<?xml version="1.0" encoding="utf-8"?>
<!-- Generator: Adobe Illustrator 24.0.1, SVG Export Plug-In . SVG Version: 6.00 Build 0)  -->
<svg version="1.1" xmlns="http://www.w3.org/2000/svg" xmlns:xlink="http://www.w3.org/1999/xlink" x="0px" y="0px"
	 viewBox="0 0 181.9 181.9" style="enable-background:new 0 0 181.9 181.9;" xml:space="preserve">
<style type="text/css">
	.st0{display:none;}
	.st1{display:inline;fill:#1D71B8;}
	.st2{fill:none;stroke:#003264;stroke-miterlimit:10;}
	.st3{fill:#003264;}
	.st4{font-family:'Prompt-Regular';}
	.st5{font-size:17px;}
	.st6{fill:#003264;}
</style>
<g id="Capa_2" class="st0">
	<rect x="0.5" y="0.5" class="st1" width="180.9" height="180.9"/>
</g>
<g id="Capa_1">
	<rect x="0.5" y="0.5" class="st2" width="180.9" height="180.9"/>
	<g>
		<text transform="matrix(1 0 0 1 42.5577 133.78)"><tspan x="0" y="0" class="st3 st4 st5">Información</tspan><tspan x="13.2" y="20.1" class="st3 st4 st5">Personal</tspan></text>
	</g>
	<g>
		<g>
			<path class="st6" d="M121.3,108.9c-20.2,0-40.4,0-60.6,0c0-0.3,0.1-0.6,0.1-0.9c0.2-1.1,0.4-2.2,0.7-3.2c0.2-0.8,0.5-1.6,0.8-2.4
				c1.4-3.7,3.5-7,6.2-9.9c2.9-3.1,6.2-5.5,10.1-7.2c0.4-0.2,0.9-0.4,1.4-0.6c0.3-0.1,0.6-0.1,0.8,0c1,0.4,2,0.7,3.1,1
				c0.7,0.2,1.4,0.3,2.1,0.5c0.3,0.1,0.6,0.1,0.9,0.2c0.2,0,0.5,0.1,0.7,0.1c0.5,0,1.1,0.1,1.6,0.1c1.7,0.1,3.3,0.1,5-0.1
				c2.5-0.3,4.9-0.9,7.3-1.8c0.2-0.1,0.4-0.1,0.5,0c3.6,1.4,6.8,3.4,9.6,5.9c3.1,2.8,5.6,6.2,7.3,10c0.5,1.1,0.9,2.3,1.3,3.4
				c0.5,1.4,0.8,2.9,1.1,4.4C121.2,108.6,121.2,108.7,121.3,108.9z"/>
			<path class="st6" d="M110.1,58.3c0,11.1-8.6,19.5-19.1,19.5c-5.1,0-9.9-2-13.4-5.6c-3.2-3.2-5.1-7.1-5.5-11.6
				c-0.5-5.9,1.3-11.1,5.5-15.3c3.7-3.7,8.2-5.6,13.5-5.6c5.2,0,9.7,1.9,13.4,5.6C108.2,49.1,110,53.6,110.1,58.3z"/>
		</g>
	</g>
</g>
</svg>
