<?xml version="1.0" encoding="utf-8"?>
<!-- Generator: Adobe Illustrator 24.0.1, SVG Export Plug-In . SVG Version: 6.00 Build 0)  -->
<svg version="1.1" xmlns="http://www.w3.org/2000/svg" xmlns:xlink="http://www.w3.org/1999/xlink" x="0px" y="0px"
	 viewBox="0 0 181.9 181.9" style="enable-background:new 0 0 181.9 181.9;" xml:space="preserve">
<style type="text/css">
	.st0{display:none;}
	.st1{display:inline;fill:#003264;}
	.st2{fill:none;stroke:#003264;stroke-miterlimit:10;}
	.st3{fill:#003264;}
	.st4{font-family:'Prompt-Regular';}
	.st5{font-size:17px;}
	.st6{fill:#003264;}
	.st7{fill:none;}
	.st8{display:inline;}
</style>
<g id="Capa_2" class="st0">
	<rect x="0.5" y="0.5" class="st1" width="180.9" height="180.9"/>
</g>
<g id="Capa_1">
	<rect x="0.5" y="0.5" class="st2" width="180.9" height="180.9"/>
	<g>
		<text transform="matrix(1 0 0 1 54.9337 135.0972)"><tspan x="0" y="0" class="st3 st4 st5">Lista de </tspan><tspan x="-11.8" y="20.1" class="st3 st4 st5">estudiantes</tspan></text>
	</g>
	<path class="st6" d="M94.9,58.3c0,11.1-8.6,19.5-19.1,19.5c-5.1,0-9.9-2-13.4-5.6c-3.2-3.2-5.1-7.1-5.5-11.6
		c-0.5-5.9,1.3-11.1,5.5-15.3c3.7-3.7,8.2-5.6,13.5-5.6c5.2,0,9.7,1.9,13.4,5.6C93,49.1,94.8,53.6,94.9,58.3z"/>
	<g>
		<g>
			<g>
				<path class="st6" d="M131.2,105.4c-0.3-0.8-0.6-1.6-0.9-2.4c-1.2-2.7-3-5.1-5.1-7c-2-1.8-4.2-3.2-6.8-4.1c0,0-0.1-0.1-0.1-0.1
					c-0.1,0-0.1,0-0.2,0.1c-1.7,0.6-3.4,1.1-5.1,1.3c-0.7,0.1-1.4,0.1-2.1,0.1c-0.5,0-1,0-1.5,0c-0.4,0-0.8-0.1-1.1-0.1
					c-0.1,0-0.4-0.1-0.5-0.1c-0.2-0.1-0.4-0.1-0.6-0.1c-0.5-0.1-1-0.2-1.5-0.4c-0.8-0.2-1.5-0.4-2.2-0.7c-0.1,0-0.2-0.1-0.3-0.1
					c-0.1,0-0.2,0-0.3,0.1c-0.4,0.1-0.7,0.3-1,0.4c-2.7,1.2-5.1,2.9-7.1,5.1c-1.9,2-3.4,4.4-4.4,7c-0.2,0.6-0.4,1.1-0.6,1.7
					c-0.2,0.7-0.4,1.5-0.5,2.3c0,0.2-0.1,0.4-0.1,0.6c14.2,0,28.4,0,42.6,0c-0.1-0.1-0.1-0.2,0-0.4
					C131.7,107.5,131.5,106.4,131.2,105.4z"/>
				<g>
					<path class="st7" d="M105,104c0.5,1.4,0.8,2.9,1.1,4.4c-0.1,0.2-0.1,0.3,0,0.5c8.6,0,17.2,0,25.8,0c-0.1-0.1-0.1-0.2,0-0.4
						c-0.2-1.1-0.4-2.1-0.8-3.1c-0.3-0.8-0.6-1.6-0.9-2.4c-1.2-2.7-3-5.1-5.1-7c-2-1.8-4.2-3.2-6.8-4.1c0,0-0.1-0.1-0.1-0.1
						c-0.1,0-0.1,0-0.2,0.1c-1.7,0.6-3.4,1.1-5.1,1.3c-0.7,0.1-1.4,0.1-2.1,0.1c-0.5,0-1,0-1.5,0c-0.4,0-0.8-0.1-1.1-0.1
						c-0.1,0-0.4-0.1-0.5-0.1c-0.2-0.1-0.4-0.1-0.6-0.1c-0.5-0.1-1-0.2-1.5-0.4c-0.8-0.2-1.5-0.4-2.2-0.7c-0.1,0-0.2-0.1-0.3-0.1
						c-0.1,0-0.2,0-0.3,0.1c-0.4,0.1-0.7,0.3-1,0.4c-0.9,0.4-1.7,0.9-2.6,1.4c1.8,2.1,3.2,4.4,4.4,6.9
						C104.2,101.7,104.6,102.9,105,104z"/>
					<path class="st7" d="M119.5,89.6l7.3,4.5C124.6,92.2,122.1,90.7,119.5,89.6z"/>
					<path class="st6" d="M106.1,108.4c-0.3-1.5-0.6-3-1.1-4.4c-0.4-1.1-0.8-2.3-1.3-3.4c-1.1-2.5-2.6-4.8-4.4-6.9
						c-1.7,1-3.2,2.2-4.5,3.7c-1.9,2-3.4,4.4-4.4,7c-0.2,0.6-0.4,1.1-0.6,1.7c-0.2,0.7-0.4,1.5-0.5,2.3c0,0.2-0.1,0.4-0.1,0.6
						c5.6,0,11.2,0,16.8,0C106,108.7,106,108.6,106.1,108.4z"/>
					<path class="st6" d="M84.4,107.8l0.1-0.4c0.1-0.8,0.3-1.7,0.6-2.7c0.2-0.8,0.5-1.5,0.7-2.1c1.2-3.2,3-6.1,5.4-8.6
						c1.4-1.5,2.9-2.8,4.6-3.9c-2.6-2.2-5.6-4-8.9-5.3c-0.1-0.1-0.3-0.1-0.5,0c-2.4,0.9-4.8,1.5-7.3,1.8c-1.7,0.2-3.3,0.2-5,0.1
						c-0.5,0-1.1-0.1-1.6-0.1c-0.2,0-0.5-0.1-0.7-0.1c-0.3-0.1-0.6-0.1-0.9-0.2c-0.7-0.2-1.4-0.3-2.1-0.5c-1.1-0.3-2.1-0.6-3.1-1
						c-0.2-0.1-0.5-0.1-0.8,0c-0.5,0.2-1,0.4-1.4,0.6c-3.9,1.7-7.2,4.1-10.1,7.2c-2.7,2.9-4.8,6.2-6.2,9.9c-0.3,0.8-0.6,1.6-0.8,2.4
						c-0.3,1-0.5,2.1-0.7,3.2c0,0.3-0.1,0.6-0.1,0.9c12.9,0,25.9,0,38.8,0c0-0.4,0-0.7,0.1-0.9V107.8z"/>
				</g>
			</g>
			<path class="st6" d="M124.1,73.3c0,7.8-6,13.7-13.4,13.7c-3.6,0-7-1.4-9.4-3.9c-2.3-2.3-3.6-5-3.9-8.2c-0.4-4.1,0.9-7.8,3.9-10.8
				c2.6-2.6,5.8-3.9,9.5-3.9c3.7,0,6.8,1.3,9.4,3.9C122.7,66.8,124,70,124.1,73.3z"/>
		</g>
	</g>
</g>
<g id="Capa_3" class="st0">
	<g class="st8">
		<text transform="matrix(1 0 0 1 42.5577 133.78)"><tspan x="0" y="0" class="st3 st4 st5">Información</tspan><tspan x="13.2" y="20.1" class="st3 st4 st5">Personal</tspan></text>
	</g>
</g>
</svg>
