<?xml version="1.0" encoding="utf-8"?>
<!-- Generator: Adobe Illustrator 24.0.1, SVG Export Plug-In . SVG Version: 6.00 Build 0)  -->
<svg version="1.1" xmlns="http://www.w3.org/2000/svg" xmlns:xlink="http://www.w3.org/1999/xlink" x="0px" y="0px"
	 viewBox="0 0 181.9 181.9" style="enable-background:new 0 0 181.9 181.9;" xml:space="preserve">
<style type="text/css">
	.st0{display:none;}
	.st1{display:inline;fill:#1D71B8;}
	.st2{fill:none;stroke:#003264;stroke-miterlimit:10;}
	.st3{fill:#003264;}
	.st4{font-family:'Prompt-Regular';}
	.st5{font-size:17px;}
	.st6{fill:#003264;}
	.st7{display:inline;}
</style>
<g id="Capa_2" class="st0">
	<rect x="0.5" y="0.5" class="st1" width="180.9" height="180.9"/>
</g>
<g id="Capa_1">
	<rect x="0.5" y="0.5" class="st2" width="180.9" height="180.9"/>
	<g>
		<text transform="matrix(1 0 0 1 59.2091 144.1703)" class="st3 st4 st5">Colegio</text>
	</g>
	<path class="st6" d="M54.5,102.8l-2.4,6.1h0c6.7-1.3,13.5-2.3,20.5-3l3.7-14.5c-3.3,0.8-6.5,1.8-9.7,2.9
		C61.9,96.1,57.5,98.6,54.5,102.8"/>
	<path class="st6" d="M118.3,79.8c-4.3,2.1-11.3,4.1-14.5,4.9l5.4,21.3c6.9,0.6,13.8,1.6,20.5,3h0L118.3,79.8z"/>
	<path class="st6" d="M70.3,81.2c5-1.6,9.7-2.5,14.7-3.7c4.9-1.2,9.9-2.4,14.8-3.6c4.8-1.2,10.1-2.4,14.4-4.8
		c3.9-2.1,6.8-6.2,5.1-10.7c-1.9,4.8-6.8,7-11.4,8.6c-4.5,1.5-9.2,2.7-13.8,3.7c-4.8,1.1-9.5,2.1-14.3,3.2c-4.7,1.1-9.6,2.2-14,4.1
		c-3.8,1.6-8,3.6-7.2,9.5C61.4,84.2,66.2,82.5,70.3,81.2"/>
	<path class="st6" d="M94,67.5c5.1-1.2,10.1-2.6,14.9-4.4c2-0.8,4.1-1.7,5.6-3.3c1.5-1.5,2.4-4,1.5-6.1c-1.2,2.5-3.4,4-5.8,5.2
		l-7.5-19.2H92.4l5.9,23.2c-5.2,1.4-10.4,2.4-15.6,3.6l6.8-26.7H79.2L67,70.9c-2.3,1-4.2,2.7-4.3,6c1.2-1.1,3.8-2.8,10-4.5
		C83,69.5,85,69.6,94,67.5"/>
	<path class="st6" d="M120.3,74.3c2.3-2.3,3.5-6.1,2.1-9.1c-3,6.6-10.9,8.8-17.4,10.6c-6.9,1.9-13.8,3.6-20.7,5.2
		c-6.5,1.5-13.2,2.8-19.3,5.5c-5.3,2.4-10.1,5.8-10.2,13.3c2.9-4.2,7.4-6.7,12.1-8.5c5.2-1.9,10.7-3.2,16.2-4.5
		c3.1-0.8,6.3-1.6,9.4-2.4c5.5-1.4,11-2.8,16.3-4.6C112.7,78.5,117.4,77.3,120.3,74.3"/>
</g>
<g id="Capa_3" class="st0">
	<g class="st7">
		<text transform="matrix(1 0 0 1 42.5577 133.78)"><tspan x="0" y="0" class="st3 st4 st5">Información</tspan><tspan x="13.2" y="20.1" class="st3 st4 st5">Personal</tspan></text>
	</g>
</g>
</svg>
