<?xml version="1.0" encoding="utf-8"?>
<!-- Generator: Adobe Illustrator 24.0.1, SVG Export Plug-In . SVG Version: 6.00 Build 0)  -->
<svg version="1.1" xmlns="http://www.w3.org/2000/svg" xmlns:xlink="http://www.w3.org/1999/xlink" x="0px" y="0px"
	 viewBox="0 0 181.9 181.9" style="enable-background:new 0 0 181.9 181.9;" xml:space="preserve">
<style type="text/css">
	.st0{display:none;}
	.st1{display:inline;fill:#1D71B8;}
	.st2{fill:none;stroke:#003264;stroke-miterlimit:10;}
	.st3{fill:#003264;}
	.st4{font-family:'Prompt-Regular';}
	.st5{font-size:17px;}
	.st6{fill:#003264;}
	.st7{display:inline;}
</style>
<g id="Capa_2" class="st0">
	<rect x="0.5" y="0.5" class="st1" width="180.9" height="180.9"/>
</g>
<g id="Capa_1">
	<rect x="0.5" y="0.5" class="st2" width="180.9" height="180.9"/>
	<g>
		<text transform="matrix(1 0 0 1 53.8795 134.8044)"><tspan x="0" y="0" class="st3 st4 st5">Unirme a</tspan><tspan x="-6.3" y="20.1" class="st3 st4 st5">WhatsApp</tspan></text>
	</g>
	<g id="co58dM.tif">
		<g>
			<path class="st6" d="M56.9,108.9c-0.1,0-0.2,0-0.3,0c0-0.2,0-0.4,0.1-0.5c1.3-5.9,2.6-11.8,3.9-17.6c0.1-0.3,0-0.7-0.1-1
				c-1.6-3.2-2.8-6.6-3.4-10.1c-0.2-1.2-0.3-2.4-0.5-3.5c0-1.4,0-2.8,0-4.2c0.1-1.1,0.3-2.2,0.4-3.3c2.6-16,16.4-28.2,32.6-28.8
				c9.2-0.3,17.4,2.4,24.3,8.6c9.5,8.7,13.5,19.5,11,32.2c-4.2,21.6-27.8,34.1-48.7,24.3c-0.5-0.2-0.9-0.3-1.4-0.2
				c-4.3,1-8.6,2-12.9,3C60.2,108.1,58.6,108.5,56.9,108.9z M63.7,101.7c0.2,0,0.3-0.1,0.4-0.1c3.7-0.9,7.5-1.7,11.2-2.6
				c0.6-0.1,1.1-0.1,1.7,0.2c6.9,3.7,14.2,4.6,21.7,2.5c14.7-4,23.8-18.5,20.9-33.2c-3.1-15.7-18.8-26.2-34.5-22.9
				c-8.7,1.8-15.3,6.7-19.7,14.4c-3,5.2-4.1,10.9-3.4,16.8c0.4,4.2,1.9,8.1,4,11.8c0.2,0.3,0.3,0.7,0.2,1.1c-0.3,1.5-0.6,2.9-1,4.4
				C64.8,96.7,64.3,99.1,63.7,101.7z"/>
			<path class="st6" d="M81,59c1.5-0.4,2.2,0.5,2.7,1.8c0.7,1.8,1.5,3.6,2.2,5.4c0.2,0.6,0.3,1.1-0.1,1.6c-0.6,0.8-1.2,1.5-1.8,2.3
				c-0.8,0.9-0.8,1.1-0.2,2.1c2.5,4.2,6.1,7.3,10.7,9.2c0.8,0.3,1.2,0.3,1.8-0.4c0.8-1,1.6-1.9,2.4-2.9c0.4-0.5,0.9-0.8,1.5-0.5
				c2.3,1.1,4.5,2.1,6.8,3.3c0.3,0.1,0.5,0.6,0.5,0.9c0,2.1-0.6,4-2.5,5.3c-2.5,1.7-5.1,1.9-7.9,1.2c-7.4-1.8-13-6-17.4-12
				c-1.5-2.1-3.1-4.2-3.8-6.7c-1-3.3-0.5-6.3,1.7-9C78.4,59.4,79.5,58.7,81,59z"/>
		</g>
	</g>
</g>
<g id="Capa_3" class="st0">
	<g class="st7">
		<text transform="matrix(1 0 0 1 42.5577 133.78)"><tspan x="0" y="0" class="st3 st4 st5">Información</tspan><tspan x="13.2" y="20.1" class="st3 st4 st5">Personal</tspan></text>
	</g>
</g>
</svg>
