<?xml version="1.0" encoding="utf-8"?>
<!-- Generator: Adobe Illustrator 24.0.1, SVG Export Plug-In . SVG Version: 6.00 Build 0)  -->
<svg version="1.1" id="Capa_1" xmlns="http://www.w3.org/2000/svg" xmlns:xlink="http://www.w3.org/1999/xlink" x="0px" y="0px"
	 viewBox="0 0 296.8 37.2" style="enable-background:new 0 0 296.8 37.2;" xml:space="preserve">
<style type="text/css">
	.st0{fill:#E4E8F1;}
	.st1{font-family:'Prompt-Regular';}
	.st2{font-size:28.7681px;}
	.st3{fill:#003264;}
	.st4{fill:#FFFFFF;}
</style>
<g>
	<text transform="matrix(1 0 0 1 65.9863 27.0077)" class="st0 st1 st2">Menú Evaluador</text>
	<g>
		<path class="st0" d="M17.4,32.3L17.4,32.3c-7.6,0-13.7-6.1-13.7-13.7v0C3.7,11,9.9,4.9,17.4,4.9h0c7.6,0,13.7,6.1,13.7,13.7v0
			C31.1,26.2,25,32.3,17.4,32.3z"/>
		<g>
			<path class="st3" d="M8.5,24.4l-0.6,1.5h0c1.6-0.3,3.3-0.6,4.9-0.7l0.9-3.6c-0.8,0.2-1.6,0.4-2.3,0.7
				C10.3,22.7,9.2,23.4,8.5,24.4z"/>
		</g>
		<path class="st3" d="M26.6,25.9l-2.8-7.2c-1,0.5-2.7,1-3.5,1.2l1.3,5.2C23.4,25.3,25,25.6,26.6,25.9"/>
		<g>
			<path class="st3" d="M12.3,19.1c1.2-0.4,2.4-0.6,3.5-0.9c1.2-0.3,2.4-0.6,3.6-0.9c1.2-0.3,2.4-0.6,3.5-1.2
				c0.9-0.5,1.6-1.5,1.2-2.6c-0.5,1.2-1.6,1.7-2.8,2.1c-1.1,0.4-2.2,0.7-3.3,0.9c-1.1,0.3-2.3,0.5-3.4,0.8c-1.1,0.3-2.3,0.5-3.4,1
				c-0.9,0.4-1.9,0.9-1.7,2.3C10.1,19.8,11.3,19.4,12.3,19.1z"/>
		</g>
		<g>
			<path class="st3" d="M18,15.7c1.2-0.3,2.4-0.6,3.6-1.1c0.5-0.2,1-0.4,1.4-0.8c0.4-0.4,0.6-1,0.4-1.5c-0.3,0.6-0.8,1-1.4,1.3
				l-1.8-4.7h-2.5l1.4,5.7c-1.2,0.3-2.5,0.6-3.8,0.9l1.6-6.6h-2.5l-2.9,7.7c-0.5,0.3-1,0.7-1,1.5c0.3-0.3,0.9-0.7,2.4-1.1
				C15.3,16.2,15.8,16.2,18,15.7z"/>
		</g>
		<g>
			<path class="st3" d="M24.4,17.4c0.5-0.6,0.8-1.5,0.5-2.3c-0.7,1.6-2.6,2.2-4.2,2.6c-1.7,0.5-3.3,0.9-5,1.3
				c-1.6,0.4-3.2,0.7-4.7,1.4c-1.3,0.6-2.4,1.4-2.5,3.3c0.7-1,1.8-1.7,2.9-2.1c1.3-0.5,2.6-0.8,3.9-1.1c0.8-0.2,1.5-0.4,2.3-0.6
				c1.3-0.4,2.6-0.7,3.9-1.1C22.5,18.4,23.6,18.1,24.4,17.4z"/>
		</g>
	</g>
	<rect x="48" class="st4" width="1.3" height="37.2"/>
</g>
</svg>
