<?xml version="1.0" encoding="utf-8"?>
<!-- Generator: Adobe Illustrator 24.0.1, SVG Export Plug-In . SVG Version: 6.00 Build 0)  -->
<svg version="1.1" id="Capa_1" xmlns="http://www.w3.org/2000/svg" xmlns:xlink="http://www.w3.org/1999/xlink" x="0px" y="0px"
	 viewBox="0 0 257.6 114.4" style="enable-background:new 0 0 257.6 114.4;" xml:space="preserve">
<style type="text/css">
	.st0{fill:#FFFFFF;}
	.st1{fill:#82B9E5;}
</style>
<path class="st0" d="M160,25.4c0.4-1.8,1.4-2.9,3-3.4c3.2-1.1,6.4-1.1,9.6-0.1c1.6,0.5,2.7,1.6,3.1,3.5H160z M186.4,14.8
	c-3.3-1.6-6.9-2.4-10.6-2.8c-6.8-0.7-13.5-0.7-20.2,0.7c-3.6,0.7-6.9,2-9.8,4.4c-3.3,2.7-5,6.2-5.6,10.3c-0.2,1.5-0.2,3.1-0.2,4.7
	c0,0.6,0.1,1.3,0.2,2.1h35.7c-0.1,3-1.2,4.6-3.8,5.4c-2.9,0.8-5.9,0.8-8.8-0.1c-1.4-0.4-2.6-1.3-3.5-2.5h-19.2
	c-0.3,0.9,0,1.6,0.3,2.3c0.7,2.4,2.3,4.2,4.3,5.7c2.4,1.8,5.1,2.8,8,3.4c6.3,1.3,12.6,1.5,19,1.1c3.6-0.2,7.1-0.7,10.5-1.7
	c2.6-0.8,5.1-1.9,7.3-3.7c3.2-2.7,5-6.1,5.5-10.2c0.4-2.8,0.4-5.5-0.3-8.3C194.1,20.7,191,17.1,186.4,14.8"/>
<path class="st0" d="M95.1,31.8c-0.4,1.9-1.5,3.5-2.9,4.6l0.2,2.3c0,0.3-0.4,0.6-0.6,0.3L90,37.7c-1.5,0.6-3.1,0.7-4.8,0.3
	c-4.4-1-7.2-5.4-6.2-9.8c1-4.4,5.4-7.2,9.8-6.2C93.3,23,96.1,27.4,95.1,31.8 M102.4,13.5c-5-1.6-10.2-1.9-16.3-2
	c-1.7,0.1-4.3,0.2-6.9,0.5c-3.5,0.4-6.9,1.1-10.1,2.6c-4.7,2.2-7.9,5.6-9.3,10.6c-0.7,2.5-0.8,5.1-0.6,7.6
	c0.5,6.2,3.5,10.8,9.1,13.6c4.2,2.1,8.7,2.9,13.2,3.1c3.5,0.2,7,0.1,10.6,0c3.8-0.1,7.5-0.8,11.1-2.1c3.9-1.4,7.1-3.6,9.3-7.2
	c1.5-2.6,2.2-5.4,2.3-8.3c0.2-4.3-0.5-8.3-3-11.9C109.5,16.7,106.2,14.7,102.4,13.5"/>
<path class="st0" d="M118.2,1.5c-0.3,1.9-0.2,45.7,0.1,46.6c1.7,0.3,17.9,0.2,18.8-0.1c0.3-1.6,0.2-45.5-0.1-46.5H118.2z"/>
<path class="st0" d="M216.6,31.4l-12.9-8.1c-0.4-0.3-1,0.1-0.8,0.6l1.8,7.4h0l-2.1,7.3c-0.1,0.5,0.4,0.9,0.8,0.6l12.2-6.9l1.1-0.6
	C216.7,31.7,216.7,31.5,216.6,31.4"/>
<path class="st0" d="M194.7,68.2c-0.4-5.5-3.3-9.1-8.5-10.9c-4.1-1.4-8.3-1.4-12.5-0.6c-3.8,0.7-7.1,2.2-9.8,5
	c-0.1,0.1-0.3,0.2-0.4,0.3c-0.1-0.2-0.3-0.3-0.4-0.4c-1.5-2.5-3.7-3.9-6.4-4.6c-3-0.8-6-1-9.1-0.7c-4.7,0.4-9,1.8-12.4,5.2
	c-0.1,0.1-0.3,0.2-0.6,0.4v-4.7c-2.2-0.1-4.3-0.1-6.4-0.1c-2.1,0-4.2,0-6.3,0c-2.1,0-4.1-0.1-6.2,0.1c-0.3,2.2-0.2,33.9,0.1,34.8
	c2,0.3,18,0.2,19-0.2v-1.4c0-4.6,0-9.1,0-13.7c0-1,0.1-1.9,0.2-2.9c0.3-1.8,1.2-3.2,2.9-3.8c1.6-0.6,3.2-0.6,4.8-0.2
	c1.4,0.4,2.3,1.3,2.6,2.7c0.2,0.8,0.3,1.7,0.3,2.6c0,5.1,0,10.3,0,15.4c0,0.5,0,1,0.1,1.5c1.9,0.3,18.1,0.2,19.1-0.1v-1.4
	c0-4.8,0-9.6,0-14.5c0-0.9,0.1-1.8,0.3-2.7c0.3-1.5,1.2-2.6,2.7-3.2c1.6-0.6,3.2-0.7,4.9-0.3c1.2,0.3,2.1,1.1,2.5,2.3
	c0.3,0.9,0.4,2,0.4,2.9c0,5.1,0,10.2,0,15.2c0,0.5,0.1,1.1,0.1,1.7h19c0-0.6,0.1-1.1,0.1-1.6c0-5.7,0-11.4,0-17.1
	C194.9,71.7,194.9,69.9,194.7,68.2"/>
<path class="st0" d="M226.5,83.4l0-0.3L226.5,83.4c-9.5-7.9-8.8-11.9-8.8-11.9c0-2.5,2-4.4,4.4-4.4c2.1,0,3.8,1.4,4.3,3.3
	c0.5-1.9,2.2-3.3,4.3-3.3c2.5,0,4.4,2,4.4,4.4C235.2,71.5,236,75.6,226.5,83.4 M243.9,58.1c-4.9-2-10.1-2.3-15.3-1.7
	c-3.9,0.5-7.3,2-10.2,4.6c-0.1,0.1-0.3,0.2-0.7,0.5v-4.4c-1.4-0.4-17.7-0.3-18.8,0c-0.3,1.5-0.2,40.6,0.1,41.6
	c1.3,0.3,17.9,0.2,19-0.1c0-1.2,0-2.5,0-3.7c0-1.3,0-2.5,0-3.8c0-1.3,0-0.1,0-1.3c0-1.2-0.2,0,0.2-1.4c0.4,0.3,0.7,0.6,1,0.8
	c1.7,1.4,3.6,2.5,5.7,3.1c7.1,2,14,1.7,20.6-1.5c4.3-2.1,7-5.6,8.1-10.3c0.7-2.8,0.8-5.6,0.5-8.4C253.4,65.5,250.1,60.7,243.9,58.1"
	/>
<path class="st0" d="M90.3,81.9c-1.3,1-2.8,1.5-4.3,1.7c-1.8,0.3-3.6,0.4-5.4,0c-1.5-0.3-2.2-1-2.2-2.2c-0.1-1.4,0.5-2.3,2-2.8
	c1.1-0.3,2.2-0.5,3.3-0.7c2.5-0.4,5.1-0.8,7.6-1.3c0.5-0.1,0.9-0.2,1.5-0.4C92.8,78.7,92.1,80.6,90.3,81.9 M112,87.6
	c0-3.3,0-6.5,0-9.8c0-3.6,0-7.3,0-10.9c0-3.1-1-5.8-3.7-7.6c-2.1-1.4-4.4-2.3-6.9-2.7c-2.5-0.4-5-0.7-7.5-0.9
	c-6.4-0.4-12.9-0.4-19.3,0.6c-2.8,0.4-5.5,1.1-8,2.4c-3.7,1.9-5.6,5-5.8,9.4h19.6c0.6-1.9,2.2-2.5,3.9-2.8c1.9-0.3,3.8-0.2,5.7,0.1
	c0.5,0.1,0.9,0.2,1.3,0.5c1.1,0.6,1.1,2,0,2.7c-0.4,0.2-0.8,0.4-1.2,0.4c-1.4,0.2-2.8,0.4-4.3,0.5c-5,0.4-10.1,0.7-15.1,1.1
	c-2.3,0.2-4.5,0.7-6.5,1.7c-2.9,1.4-4.8,3.5-5.4,6.7c-0.2,1.2-0.4,2.5-0.3,3.7c0.2,3.9,1.9,6.8,5.5,8.5c0.9,0.4,1.8,0.8,2.8,1.1
	C71.8,93.8,77,94,82.3,93c3.7-0.7,7.2-1.9,10.2-4.4c0.1-0.1,0.3-0.1,0.5-0.2c0.2,1.4,0.4,2.7,1.4,3.5c3.5,0.3,17.7,0.2,18.6-0.2
	c0-0.1,0-0.2,0-0.2c0-0.1-0.1-0.3-0.1-0.4C112.2,90.1,112,88.9,112,87.6"/>
<path class="st0" d="M25.4,67.7c1.9-0.3,3.7-0.3,5.6,0c2.1,0.3,3.9,1.1,4.5,3.3c1.5,0.3,19.4,0.2,20.4-0.1c0-0.1,0.1-0.2,0.1-0.4
	c-0.3-4-2-7.3-5.2-9.8c-2.9-2.3-6.3-3.5-9.9-4.2c-7.1-1.4-14.2-1.5-21.3-0.7c-3.5,0.4-7,1.2-10.2,2.8c-3.8,1.9-6.6,4.6-8.2,8.6
	c-1.3,3.1-1.5,6.4-1.2,9.7c0.3,3.6,1.6,6.9,4.1,9.6c2.4,2.6,5.5,4.2,8.9,5.2c3.4,1,6.8,1.4,10.3,1.7c6,0.4,11.9,0.1,17.8-1.1
	c3.2-0.7,6.2-1.7,8.9-3.5c3-2.1,4.9-4.9,5.6-8.5c0.2-0.9,0.3-1.9,0-2.9H35.5c-0.4,2.3-1.9,3.3-3.9,3.6c-1.8,0.3-3.6,0.4-5.5,0.3
	c-3.8-0.2-6-2.3-6.3-6C19.5,71.4,21.1,68.4,25.4,67.7"/>
<path class="st0" d="M25.4,22.4c1.9-0.3,3.7-0.3,5.6,0c2.1,0.3,3.9,1.1,4.5,3.3C37.1,26,55,26,55.9,25.6c0-0.1,0.1-0.2,0.1-0.4
	c-0.3-4-2-7.3-5.2-9.8c-2.9-2.3-6.3-3.5-9.9-4.2c-7.1-1.4-14.2-1.5-21.3-0.7c-3.5,0.4-7,1.2-10.2,2.8c-3.8,1.9-6.6,4.6-8.2,8.6
	C0,25-0.2,28.3,0.1,31.6c0.3,3.6,1.6,6.9,4.1,9.6c2.4,2.6,5.5,4.2,8.9,5.2c3.4,1,6.8,1.4,10.3,1.7c6,0.4,11.9,0.1,17.8-1.1
	c3.2-0.7,6.2-1.7,8.9-3.5c3-2.1,4.9-4.9,5.6-8.5c0.2-0.9,0.3-1.9,0-2.9H35.5c-0.4,2.3-1.9,3.3-3.9,3.6C29.8,36,28,36.1,26.2,36
	c-3.8-0.2-6-2.3-6.3-6C19.5,26.1,21.1,23.1,25.4,22.4"/>
<path class="st1" d="M244.8,110.5c0.4,0,0.7,0,0.9-0.1c1.6-0.3,2.2-1.2,1.9-2.8c-0.1-0.7-0.6-1.2-1.2-1.4c-1-0.4-2-0.3-3,0
	c-0.9,0.3-1.4,1.1-1.4,2.1c0,1,0.6,1.8,1.5,2C243.9,110.4,244.4,110.4,244.8,110.5 M242.1,112.7v1.2h-6.2v-15h6.3v4.9
	c0.1-0.1,0.2-0.1,0.3-0.2c1-0.9,2.3-1.4,3.6-1.5c1.6-0.1,3.1,0,4.6,0.5c1.9,0.7,3,2,3.4,4c0.2,1.3,0.2,2.5-0.1,3.7
	c-0.5,1.8-1.7,2.9-3.4,3.5c-1.9,0.7-3.9,0.7-5.9,0.2c-0.8-0.2-1.5-0.7-2.2-1.2c-0.1-0.1-0.2-0.2-0.3-0.2
	C242.1,112.6,242.1,112.7,242.1,112.7"/>
<path class="st1" d="M228.1,108.5c-0.2,0.1-0.5,0.1-0.7,0.2c-0.7,0.1-1.5,0.2-2.2,0.4c-0.5,0.1-0.9,0.2-1.3,0.3
	c-0.5,0.2-0.7,0.5-0.6,1c0,0.4,0.3,0.6,0.8,0.7c1,0.2,2,0.1,2.9-0.3C227.8,110.3,228.3,109.5,228.1,108.5 M224,105.8h-6.4
	c0-0.8,0.2-1.5,0.6-2.1c0.4-0.6,1-0.9,1.7-1.2c1.5-0.5,3-0.7,4.5-0.8c2.1-0.1,4.3-0.1,6.4,0.3c0.6,0.1,1.3,0.3,1.9,0.6
	c1.2,0.5,1.7,1.5,1.7,2.8c0,1.8,0,3.5,0,5.3c0,0.2,0,0.4,0,0.7c0,0.8-0.1,1.6,0.5,2.4h-6.4c-0.1-0.4-0.3-0.8-0.4-1.2c0,0,0,0,0,0
	c-1.1,1-2.5,1.4-3.9,1.6c-1.6,0.2-3.2,0.2-4.7-0.3c-0.4-0.1-0.8-0.3-1.1-0.5c-1.3-0.7-1.8-2-1.6-3.5c0.2-1.7,1.1-2.6,3.1-3
	c1.2-0.2,2.3-0.2,3.5-0.4c1.3-0.1,2.5-0.2,3.8-0.3c0.2,0,0.3-0.1,0.5-0.2c0.3-0.2,0.3-0.7,0-0.9c-0.1-0.1-0.3-0.1-0.4-0.2
	c-0.7-0.1-1.5-0.2-2.2,0C224.6,105,224.2,105.2,224,105.8"/>
<path class="st1" d="M205,102.3v0.4c0,1.6,0,3.3,0,4.9c0,1.7,0.9,2.4,2.6,2.1c1.2-0.2,1.8-0.9,1.8-2.2c0-1.6,0-3.2,0-4.8v-0.4h6.3
	v11.6h-6.2v-1.6c-0.2,0.2-0.4,0.3-0.5,0.4c-2.4,1.7-5,1.9-7.7,1c-1.7-0.6-2.5-1.9-2.6-3.7c0-0.7,0-1.4,0-2.2c0-1.7,0-3.4,0-5.1v-0.5
	H205z"/>
</svg>
