<?xml version="1.0" encoding="utf-8"?>
<!-- Generator: Adobe Illustrator 24.0.1, SVG Export Plug-In . SVG Version: 6.00 Build 0)  -->
<svg version="1.1" id="Capa_1" xmlns="http://www.w3.org/2000/svg" xmlns:xlink="http://www.w3.org/1999/xlink" x="0px" y="0px"
	 viewBox="0 0 188.5 188.5" style="enable-background:new 0 0 188.5 188.5;" xml:space="preserve">
<style type="text/css">
	.st0{fill:none;stroke:#003264;stroke-width:0.25;stroke-miterlimit:10;}
	.st1{fill:#003264;}
</style>
<rect x="3.8" y="3.8" class="st0" width="180.9" height="180.9"/>
<g>
	<path class="st1" d="M56.1,133.9h1.7l4.2,9.3l4.2-9.3H68v11.9h-1.7v-8.4l-3.9,8.4h-0.8l-3.9-8.4v8.4h-1.7V133.9z"/>
	<path class="st1" d="M70.8,145.3c-0.6-0.5-0.9-1.2-0.9-2c0-0.9,0.3-1.6,0.9-2.1s1.4-0.7,2.4-0.7c1.1,0,2.1,0.2,2.9,0.7v-0.4
		c0-0.6-0.2-1.1-0.6-1.4c-0.4-0.3-1-0.5-1.8-0.5c-0.5,0-1,0-1.5,0.1c-0.5,0.1-0.9,0.2-1.3,0.4v-1.4c0.3-0.2,0.8-0.3,1.3-0.4
		c0.5-0.1,1.1-0.1,1.6-0.1c1.3,0,2.3,0.3,3,0.9c0.7,0.6,1,1.4,1,2.5v5h-1.6v-0.9c-0.4,0.4-0.8,0.7-1.2,0.9c-0.5,0.2-1.1,0.3-1.8,0.3
		C72.2,146,71.4,145.8,70.8,145.3z M75.1,144.4c0.4-0.2,0.8-0.5,1-0.9v-1.1c-0.7-0.5-1.6-0.7-2.5-0.7c-0.7,0-1.1,0.1-1.5,0.4
		c-0.3,0.3-0.5,0.6-0.5,1.2c0,1,0.7,1.5,2,1.5C74.1,144.7,74.6,144.6,75.1,144.4z"/>
	<path class="st1" d="M80.7,145.3c-0.4-0.5-0.7-1.2-0.7-2v-4.4h-1.2v-1.3h1.2v-2.4h1.7v2.4h2v1.3h-2v4.2c0,0.5,0.1,0.9,0.3,1.2
		c0.2,0.2,0.6,0.3,1.1,0.3c0.3,0,0.7-0.1,1-0.2v1.4c-0.4,0.1-1,0.2-1.6,0.2C81.8,146,81.2,145.8,80.7,145.3z"/>
	<path class="st1" d="M86.5,145.1c-0.6-0.6-0.8-1.4-0.8-2.4v-5.2h1.7v5.1c0,1.3,0.7,2,2,2c1.1,0,2-0.5,2.7-1.5v-5.5h1.7v8.2h-1.7
		v-1.2c-0.4,0.5-0.8,0.8-1.4,1.1c-0.5,0.2-1.1,0.3-1.7,0.3C87.9,146,87.1,145.7,86.5,145.1z"/>
	<path class="st1" d="M97.2,145.3c-0.4-0.5-0.7-1.2-0.7-2v-4.4h-1.2v-1.3h1.2v-2.4h1.7v2.4h2v1.3h-2v4.2c0,0.5,0.1,0.9,0.3,1.2
		c0.2,0.2,0.6,0.3,1.1,0.3c0.3,0,0.7-0.1,1-0.2v1.4c-0.4,0.1-1,0.2-1.6,0.2C98.3,146,97.6,145.8,97.2,145.3z"/>
	<path class="st1" d="M102.6,135.7c-0.2-0.2-0.3-0.4-0.3-0.7s0.1-0.5,0.3-0.7c0.2-0.2,0.4-0.3,0.7-0.3c0.3,0,0.5,0.1,0.7,0.3
		c0.2,0.2,0.3,0.4,0.3,0.7s-0.1,0.5-0.3,0.7c-0.2,0.2-0.4,0.3-0.7,0.3C103,136,102.8,135.9,102.6,135.7z M102.5,137.6h1.8v8.2h-1.8
		V137.6z"/>
	<path class="st1" d="M106.6,137.6h1.7v1.2c0.4-0.5,0.9-0.8,1.4-1.1c0.6-0.2,1.1-0.3,1.8-0.3c1.1,0,1.9,0.3,2.4,0.9
		c0.5,0.6,0.8,1.4,0.8,2.3v5.2h-1.7v-5c0-1.3-0.6-2-1.9-2c-0.5,0-1.1,0.1-1.5,0.4s-0.9,0.6-1.2,1.2v5.5h-1.7V137.6z"/>
	<path class="st1" d="M117.1,145.3c-0.6-0.5-0.9-1.2-0.9-2c0-0.9,0.3-1.6,0.9-2.1s1.4-0.7,2.4-0.7c1.1,0,2.1,0.2,2.9,0.7v-0.4
		c0-0.6-0.2-1.1-0.6-1.4c-0.4-0.3-1-0.5-1.8-0.5c-0.5,0-1,0-1.5,0.1c-0.5,0.1-0.9,0.2-1.3,0.4v-1.4c0.3-0.2,0.8-0.3,1.3-0.4
		c0.5-0.1,1.1-0.1,1.6-0.1c1.3,0,2.3,0.3,3,0.9c0.7,0.6,1,1.4,1,2.5v5h-1.6v-0.9c-0.4,0.4-0.8,0.7-1.2,0.9c-0.5,0.2-1.1,0.3-1.8,0.3
		C118.5,146,117.7,145.8,117.1,145.3z M121.3,144.4c0.4-0.2,0.8-0.5,1-0.9v-1.1c-0.7-0.5-1.6-0.7-2.5-0.7c-0.7,0-1.1,0.1-1.5,0.4
		c-0.3,0.3-0.5,0.6-0.5,1.2c0,1,0.7,1.5,2,1.5C120.4,144.7,120.9,144.6,121.3,144.4z"/>
	<path class="st1" d="M127.1,145.8c-0.6-0.1-1.1-0.3-1.5-0.6v-1.5c0.4,0.3,1,0.5,1.5,0.6c0.6,0.2,1.1,0.2,1.7,0.2
		c0.6,0,1.1-0.1,1.3-0.2s0.4-0.4,0.4-0.7c0-0.2-0.1-0.5-0.2-0.6s-0.4-0.3-0.7-0.4c-0.3-0.1-0.8-0.3-1.4-0.4
		c-0.7-0.2-1.2-0.4-1.6-0.6c-0.4-0.2-0.7-0.5-0.9-0.8c-0.2-0.3-0.3-0.7-0.3-1.2c0-0.8,0.3-1.4,0.9-1.8c0.6-0.4,1.4-0.6,2.5-0.6
		c0.5,0,1.1,0.1,1.6,0.2c0.5,0.1,0.9,0.2,1.3,0.4v1.4c-0.3-0.2-0.7-0.3-1.2-0.5c-0.5-0.1-1-0.2-1.5-0.2c-0.6,0-1.1,0.1-1.4,0.2
		c-0.3,0.1-0.5,0.4-0.5,0.8c0,0.2,0.1,0.4,0.2,0.6s0.4,0.3,0.7,0.4c0.3,0.1,0.8,0.2,1.4,0.4c1,0.3,1.7,0.6,2.2,1
		c0.4,0.4,0.6,0.9,0.6,1.6c0,0.7-0.3,1.3-0.9,1.7c-0.6,0.4-1.4,0.6-2.6,0.6C128.4,146,127.8,146,127.1,145.8z"/>
</g>
<g id="QHb7kd.tif_1_">
	<g>
		<path class="st1" d="M59.8,64.8c0.3-0.4,0.7-0.5,1.1-0.3c2,0.6,3.9,1.2,5.9,1.8c0.7,0.2,0.9,0.6,0.9,1.3c0,11.1,0,22.2,0,33.2
			c0,1,0,1,1,1c5.4,0,10.7,0.4,15.9,1.7c2.6,0.7,5,1.6,7.3,3c0.4,0.2,0.7,0.2,1.1,0c3.8-2.3,8-3.4,12.4-4c3.6-0.5,7.2-0.7,10.9-0.7
			c0.8,0,0.9-0.1,0.9-0.9c0-6.1,0-12.2,0-18.2c0-5,0-10,0-15c0-1,0-1,1-1.3c1.9-0.6,3.9-1.2,5.8-1.7c0.8-0.3,1.2,0,1.2,0.9
			c0,13.6,0,27.1,0,40.7c0,0.8-0.2,1-1,0.9c-4.4-0.4-8.9-0.5-13.3-0.2c-4.8,0.4-9.5,1.2-13.8,3.6c-1,0.5-2,0.9-3,1.3
			c-1,0.4-2,0.4-3,0c-1.1-0.5-2.3-0.9-3.3-1.5c-3.4-1.9-7.1-2.7-11-3.2c-5.3-0.6-10.5-0.5-15.8,0c-0.3,0-0.7-0.2-1.1-0.3
			C59.8,92.7,59.8,78.8,59.8,64.8z"/>
		<path class="st1" d="M71.3,58.2c1.6,0.6,3.1,1.3,4.7,1.9c4.6,1.8,9.1,3.6,13.7,5.4c0.6,0.2,0.9,0.6,0.9,1.3c0,11.5,0,23,0,34.4
			c0,1.1-0.3,1.3-1.3,0.9c-3.7-1.4-7.5-2.2-11.5-2.6c-2.1-0.2-4.2-0.3-6.3-0.4c-0.9,0-1-0.2-1-1.2c0-12,0-24,0-36c0-0.9,0-1.9,0-2.8
			c0-0.3,0.3-0.7,0.5-1C71.1,58.2,71.2,58.2,71.3,58.2z"/>
		<path class="st1" d="M114.1,58.2c0.2,0.3,0.5,0.7,0.5,1c0,13,0,25.9,0,38.9c0,0.8-0.2,1-1.1,1c-5,0.1-10,0.7-14.9,2.1
			c-1,0.3-1.9,0.6-2.8,1c-1,0.4-1.3,0.2-1.3-0.9c0-7.1,0-14.3,0-21.4c0-4.3,0-8.6,0-12.9c0-0.7,0.2-1.1,0.9-1.3
			c5.9-2.3,11.9-4.7,17.8-7.1c0.2-0.1,0.4-0.2,0.6-0.3C113.8,58.2,114,58.2,114.1,58.2z"/>
	</g>
</g>
</svg>
