<?xml version="1.0" encoding="utf-8"?>
<!-- Generator: Adobe Illustrator 24.0.1, SVG Export Plug-In . SVG Version: 6.00 Build 0)  -->
<svg version="1.1" id="Capa_1" xmlns="http://www.w3.org/2000/svg" xmlns:xlink="http://www.w3.org/1999/xlink" x="0px" y="0px"
	 viewBox="0 0 188.5 188.5" style="enable-background:new 0 0 188.5 188.5;" xml:space="preserve">
<style type="text/css">
	.st0{fill:none;stroke:#003264;stroke-width:0.25;stroke-miterlimit:10;}
	.st1{fill:#003264;}
</style>
<rect x="3.8" y="3.8" class="st0" width="180.9" height="180.9"/>
<g>
	<path class="st1" d="M46.5,114.8H51c1.3,0,2.3,0.3,3,1c0.7,0.6,1.1,1.5,1.1,2.7c0,1.2-0.4,2.1-1.1,2.7c-0.7,0.6-1.8,0.9-3,0.9h-2.8
		v4.5h-1.7V114.8z M50.9,120.7c0.8,0,1.4-0.2,1.9-0.5c0.5-0.3,0.7-0.9,0.7-1.7c0-0.8-0.2-1.4-0.7-1.7c-0.5-0.3-1.1-0.5-1.9-0.5h-2.7
		v4.4H50.9z"/>
	<path class="st1" d="M56.7,125.9c-0.9-0.8-1.3-1.8-1.3-3.2c0-1.3,0.4-2.4,1.1-3.2c0.8-0.8,1.9-1.2,3.3-1.2c0.9,0,1.7,0.2,2.4,0.5
		c0.7,0.4,1.2,0.9,1.5,1.5c0.3,0.6,0.5,1.3,0.5,2.2v0.8h-7.2c0.1,0.8,0.4,1.3,1,1.7c0.6,0.4,1.4,0.6,2.4,0.6c0.5,0,1,0,1.6-0.1
		c0.5-0.1,1-0.2,1.4-0.4v1.4c-0.4,0.1-0.8,0.3-1.4,0.4c-0.6,0.1-1.2,0.1-1.8,0.1C58.8,127,57.6,126.6,56.7,125.9z M62.6,122.1
		c0-0.8-0.3-1.4-0.8-1.8s-1.2-0.6-2-0.6c-0.9,0-1.5,0.2-2,0.7c-0.5,0.4-0.7,1-0.7,1.8H62.6z"/>
	<path class="st1" d="M67.9,126.5c-0.7-0.4-1.2-0.9-1.5-1.5c-0.4-0.7-0.6-1.4-0.6-2.3c0-0.8,0.2-1.6,0.6-2.3s0.9-1.2,1.5-1.5
		c0.7-0.4,1.4-0.6,2.2-0.6c1.5,0,2.6,0.4,3.3,1.3v-5.5h1.7v12.6h-1.7v-1.2c-0.5,0.5-1,0.9-1.5,1.1c-0.5,0.2-1.2,0.3-1.9,0.3
		C69.2,127,68.5,126.8,67.9,126.5z M72.3,125.1c0.5-0.4,0.9-0.9,1.1-1.5v-1.8c-0.2-0.6-0.6-1.1-1.1-1.5c-0.5-0.4-1.2-0.6-1.9-0.6
		c-0.6,0-1.1,0.1-1.5,0.4c-0.4,0.2-0.8,0.6-1.1,1.1c-0.3,0.5-0.4,1-0.4,1.5c0,0.6,0.1,1.1,0.4,1.5c0.3,0.5,0.6,0.8,1.1,1
		c0.4,0.2,0.9,0.4,1.5,0.4C71.2,125.6,71.8,125.4,72.3,125.1z"/>
	<path class="st1" d="M77.6,116.7c-0.2-0.2-0.3-0.4-0.3-0.7s0.1-0.5,0.3-0.7c0.2-0.2,0.4-0.3,0.7-0.3c0.3,0,0.5,0.1,0.7,0.3
		c0.2,0.2,0.3,0.4,0.3,0.7s-0.1,0.5-0.3,0.7c-0.2,0.2-0.4,0.3-0.7,0.3C78.1,117,77.8,116.9,77.6,116.7z M77.5,118.6h1.8v8.2h-1.8
		V118.6z"/>
	<path class="st1" d="M83.3,126.5c-0.7-0.4-1.2-0.9-1.5-1.5c-0.4-0.7-0.6-1.4-0.6-2.3c0-0.8,0.2-1.6,0.6-2.3s0.9-1.2,1.5-1.5
		c0.7-0.4,1.4-0.6,2.2-0.6c1.5,0,2.6,0.4,3.3,1.3v-5.5h1.7v12.6h-1.7v-1.2c-0.5,0.5-1,0.9-1.5,1.1c-0.5,0.2-1.2,0.3-1.9,0.3
		C84.7,127,84,126.8,83.3,126.5z M87.8,125.1c0.5-0.4,0.9-0.9,1.1-1.5v-1.8c-0.2-0.6-0.6-1.1-1.1-1.5c-0.5-0.4-1.2-0.6-1.9-0.6
		c-0.6,0-1.1,0.1-1.5,0.4c-0.4,0.2-0.8,0.6-1.1,1.1c-0.3,0.5-0.4,1-0.4,1.5c0,0.6,0.1,1.1,0.4,1.5c0.3,0.5,0.6,0.8,1.1,1
		c0.4,0.2,0.9,0.4,1.5,0.4C86.6,125.6,87.2,125.4,87.8,125.1z"/>
	<path class="st1" d="M94.4,126.5c-0.7-0.3-1.2-0.8-1.6-1.5c-0.4-0.7-0.6-1.4-0.6-2.3c0-0.9,0.2-1.6,0.6-2.3
		c0.4-0.7,0.9-1.2,1.6-1.5c0.7-0.4,1.5-0.5,2.4-0.5c0.9,0,1.7,0.2,2.4,0.5c0.7,0.4,1.2,0.9,1.6,1.5c0.4,0.7,0.6,1.4,0.6,2.3
		c0,0.9-0.2,1.7-0.6,2.3c-0.4,0.7-0.9,1.2-1.6,1.5c-0.7,0.3-1.5,0.5-2.4,0.5C95.9,127,95.1,126.8,94.4,126.5z M99,124.8
		c0.5-0.5,0.8-1.3,0.8-2.1c0-0.9-0.3-1.6-0.8-2.2c-0.5-0.5-1.2-0.8-2.1-0.8c-0.9,0-1.6,0.3-2.1,0.8c-0.5,0.5-0.8,1.3-0.8,2.2
		c0,0.9,0.3,1.6,0.8,2.1s1.2,0.8,2.1,0.8C97.7,125.6,98.4,125.4,99,124.8z"/>
	<path class="st1" d="M104.2,126.8c-0.6-0.1-1.1-0.3-1.5-0.6v-1.5c0.4,0.3,1,0.5,1.5,0.6c0.6,0.2,1.1,0.2,1.7,0.2
		c0.6,0,1.1-0.1,1.3-0.2s0.4-0.4,0.4-0.7c0-0.2-0.1-0.5-0.2-0.6s-0.4-0.3-0.7-0.4c-0.3-0.1-0.8-0.3-1.4-0.4
		c-0.7-0.2-1.2-0.4-1.6-0.6c-0.4-0.2-0.7-0.5-0.9-0.8c-0.2-0.3-0.3-0.7-0.3-1.2c0-0.8,0.3-1.4,0.9-1.8c0.6-0.4,1.4-0.6,2.5-0.6
		c0.5,0,1.1,0.1,1.6,0.2c0.5,0.1,0.9,0.2,1.3,0.4v1.4c-0.3-0.2-0.7-0.3-1.2-0.5c-0.5-0.1-1-0.2-1.5-0.2c-0.6,0-1.1,0.1-1.4,0.2
		c-0.3,0.1-0.5,0.4-0.5,0.8c0,0.2,0.1,0.4,0.2,0.6s0.4,0.3,0.7,0.4c0.3,0.1,0.8,0.2,1.4,0.4c1,0.3,1.7,0.6,2.2,1
		c0.4,0.4,0.6,0.9,0.6,1.6c0,0.7-0.3,1.3-0.9,1.7c-0.6,0.4-1.4,0.6-2.6,0.6C105.4,127,104.8,126.9,104.2,126.8z"/>
	<path class="st1" d="M119.3,126.5c-0.7-0.4-1.2-0.9-1.5-1.5c-0.4-0.7-0.6-1.4-0.6-2.3c0-0.8,0.2-1.6,0.6-2.3s0.9-1.2,1.5-1.5
		c0.7-0.4,1.4-0.6,2.2-0.6c1.5,0,2.6,0.4,3.3,1.3v-5.5h1.7v12.6h-1.7v-1.2c-0.5,0.5-1,0.9-1.5,1.1c-0.5,0.2-1.2,0.3-1.9,0.3
		C120.7,127,120,126.8,119.3,126.5z M123.7,125.1c0.5-0.4,0.9-0.9,1.1-1.5v-1.8c-0.2-0.6-0.6-1.1-1.1-1.5c-0.5-0.4-1.2-0.6-1.9-0.6
		c-0.6,0-1.1,0.1-1.5,0.4c-0.4,0.2-0.8,0.6-1.1,1.1c-0.3,0.5-0.4,1-0.4,1.5c0,0.6,0.1,1.1,0.4,1.5c0.3,0.5,0.6,0.8,1.1,1
		c0.4,0.2,0.9,0.4,1.5,0.4C122.6,125.6,123.2,125.4,123.7,125.1z"/>
	<path class="st1" d="M129.7,125.9c-0.9-0.8-1.3-1.8-1.3-3.2c0-1.3,0.4-2.4,1.1-3.2c0.8-0.8,1.9-1.2,3.3-1.2c0.9,0,1.7,0.2,2.4,0.5
		c0.7,0.4,1.2,0.9,1.5,1.5c0.3,0.6,0.5,1.3,0.5,2.2v0.8h-7.2c0.1,0.8,0.4,1.3,1,1.7c0.6,0.4,1.4,0.6,2.4,0.6c0.5,0,1,0,1.6-0.1
		c0.5-0.1,1-0.2,1.4-0.4v1.4c-0.4,0.1-0.8,0.3-1.4,0.4c-0.6,0.1-1.2,0.1-1.8,0.1C131.8,127,130.6,126.6,129.7,125.9z M135.6,122.1
		c0-0.8-0.3-1.4-0.8-1.8s-1.2-0.6-2-0.6c-0.9,0-1.5,0.2-2,0.7c-0.5,0.4-0.7,1-0.7,1.8H135.6z"/>
	<path class="st1" d="M63.5,146.3c-1-0.5-1.7-1.2-2.2-2.2c-0.5-0.9-0.8-2-0.8-3.2s0.3-2.3,0.8-3.2c0.5-0.9,1.3-1.7,2.2-2.2
		c1-0.5,2-0.8,3.2-0.8s2.2,0.3,3.2,0.8c1,0.5,1.7,1.3,2.2,2.2c0.5,0.9,0.8,2,0.8,3.2s-0.3,2.3-0.8,3.2c-0.5,0.9-1.3,1.7-2.2,2.2
		c-1,0.5-2,0.8-3.2,0.8S64.5,146.8,63.5,146.3z M69,144.9c0.7-0.4,1.2-0.9,1.6-1.6c0.4-0.7,0.6-1.5,0.6-2.4c0-0.9-0.2-1.7-0.6-2.4
		c-0.4-0.7-0.9-1.2-1.6-1.6c-0.7-0.4-1.4-0.6-2.3-0.6c-0.9,0-1.6,0.2-2.3,0.6c-0.7,0.4-1.2,0.9-1.6,1.6c-0.4,0.7-0.6,1.5-0.6,2.4
		c0,0.9,0.2,1.7,0.6,2.4c0.4,0.7,0.9,1.2,1.6,1.6c0.7,0.4,1.4,0.6,2.3,0.6C67.6,145.5,68.3,145.3,69,144.9z"/>
	<path class="st1" d="M74.8,138.6h1.7v1.5c0.3-0.5,0.8-0.9,1.4-1.1c0.6-0.2,1.3-0.4,2.2-0.4v1.3c-0.9,0-1.6,0.1-2.2,0.4
		s-1.1,0.7-1.3,1.3v5h-1.7V138.6z"/>
	<path class="st1" d="M81.4,146.3c-0.6-0.5-0.9-1.2-0.9-2c0-0.9,0.3-1.6,0.9-2.1s1.4-0.7,2.4-0.7c1.1,0,2.1,0.2,2.9,0.7v-0.4
		c0-0.6-0.2-1.1-0.6-1.4c-0.4-0.3-1-0.5-1.8-0.5c-0.5,0-1,0-1.5,0.1c-0.5,0.1-0.9,0.2-1.3,0.4v-1.4c0.3-0.2,0.8-0.3,1.3-0.4
		c0.5-0.1,1.1-0.1,1.6-0.1c1.3,0,2.3,0.3,3,0.9c0.7,0.6,1,1.4,1,2.5v5h-1.6v-0.9c-0.4,0.4-0.8,0.7-1.2,0.9c-0.5,0.2-1.1,0.3-1.8,0.3
		C82.8,147.1,82,146.8,81.4,146.3z M85.7,145.4c0.4-0.2,0.8-0.5,1-0.9v-1.1c-0.7-0.5-1.6-0.7-2.5-0.7c-0.7,0-1.1,0.1-1.5,0.4
		c-0.3,0.3-0.5,0.6-0.5,1.2c0,1,0.7,1.5,2,1.5C84.8,145.7,85.2,145.6,85.7,145.4z"/>
	<path class="st1" d="M92.1,146.5c-0.7-0.3-1.2-0.8-1.6-1.5c-0.4-0.7-0.6-1.4-0.6-2.3c0-0.9,0.2-1.7,0.6-2.3
		c0.4-0.7,0.9-1.2,1.6-1.5c0.7-0.4,1.5-0.5,2.4-0.5c1.2,0,2.2,0.2,3,0.7v1.4c-0.7-0.5-1.7-0.8-2.8-0.8c-0.9,0-1.7,0.3-2.3,0.8
		c-0.6,0.5-0.9,1.2-0.9,2.2c0,1,0.3,1.7,0.9,2.2c0.6,0.5,1.3,0.7,2.2,0.7c1.1,0,2.1-0.3,3-0.8v1.4c-0.4,0.3-0.8,0.5-1.4,0.6
		c-0.5,0.1-1.1,0.2-1.8,0.2C93.6,147.1,92.8,146.9,92.1,146.5z"/>
	<path class="st1" d="M99.8,136.8c-0.2-0.2-0.3-0.4-0.3-0.7s0.1-0.5,0.3-0.7c0.2-0.2,0.4-0.3,0.7-0.3c0.3,0,0.5,0.1,0.7,0.3
		c0.2,0.2,0.3,0.4,0.3,0.7s-0.1,0.5-0.3,0.7s-0.4,0.3-0.7,0.3C100.2,137,100,136.9,99.8,136.8z M99.6,138.6h1.8v8.2h-1.8V138.6z"/>
	<path class="st1" d="M105.6,146.5c-0.7-0.3-1.2-0.8-1.6-1.5c-0.4-0.7-0.6-1.4-0.6-2.3c0-0.9,0.2-1.6,0.6-2.3
		c0.4-0.7,0.9-1.2,1.6-1.5c0.7-0.4,1.5-0.5,2.4-0.5s1.7,0.2,2.4,0.5c0.7,0.4,1.2,0.9,1.6,1.5c0.4,0.7,0.6,1.4,0.6,2.3
		c0,0.9-0.2,1.7-0.6,2.3c-0.4,0.7-0.9,1.2-1.6,1.5c-0.7,0.3-1.5,0.5-2.4,0.5S106.3,146.9,105.6,146.5z M110.2,144.9
		c0.5-0.5,0.8-1.3,0.8-2.1c0-0.9-0.3-1.6-0.8-2.2c-0.5-0.5-1.2-0.8-2.1-0.8s-1.6,0.3-2.1,0.8c-0.5,0.5-0.8,1.3-0.8,2.2
		c0,0.9,0.3,1.6,0.8,2.1s1.2,0.8,2.1,0.8S109.6,145.4,110.2,144.9z M108.3,134.8h1.8l-1.4,2.9h-1.6L108.3,134.8z"/>
	<path class="st1" d="M114.6,138.6h1.7v1.2c0.4-0.5,0.9-0.8,1.4-1.1c0.6-0.2,1.1-0.3,1.8-0.3c1.1,0,1.9,0.3,2.4,0.9
		c0.5,0.6,0.8,1.4,0.8,2.3v5.2h-1.7v-5c0-1.3-0.6-2-1.9-2c-0.5,0-1.1,0.1-1.5,0.4c-0.5,0.3-0.9,0.6-1.2,1.2v5.5h-1.7V138.6z"/>
</g>
<g id="FdPW4V.tif_1_">
	<g>
		<path class="st1" d="M120.8,104.5c-2.9-0.7-5.4-2.5-8.1-3.8c-4.4-2.2-8.6-4.6-13-6.8c-2.1-1-3.2-2.6-3.6-4.9
			c-0.9-5.9-2-11.7-3-17.6c-0.4-2.4,0.9-4.5,3-5.1c2.3-0.6,4.4,0.5,5.3,2.8c0.8,2,1.5,4.1,2.2,6.1c0.1,0.2,0.1,0.4,0.3,0.6
			c0-1.8,0.5-3.5-0.1-5.3c-2.6-6.9-5.1-13.9-7.5-20.9c-0.2-0.7-0.3-1.6-0.2-2.3c0.3-1.3,1.3-2.1,2.6-2.3c1.3-0.2,2.3,0.3,3,1.3
			c0.2,0.3,0.4,0.6,0.6,1c3.6,7.1,7.2,14.3,10.8,21.4c0.5,0.9,0.7,1.8,0.7,2.9c0,5.2,0,10.4-0.1,15.7c0,0.5,0.1,0.7,0.6,1
			c3.2,1.7,6.4,3.3,9.6,5c2.1,1.1,3.4,2.9,3.4,5.3c0.1,2.8-1.9,5.3-4.7,5.9c-0.2,0-0.4,0.1-0.6,0.2
			C121.7,104.5,121.2,104.5,120.8,104.5z"/>
		<path class="st1" d="M56,97.7c0.3-0.7,0.5-1.4,0.8-2.1c0.6-1.1,1.6-1.9,2.7-2.5c3.1-1.6,6.2-3.3,9.3-4.9c0.6-0.3,0.8-0.7,0.8-1.3
			c0-5.1,0-10.3-0.1-15.4c0-1,0.2-2,0.7-2.9c3.7-7.2,7.3-14.4,11-21.6c0.8-1.7,2.2-2.3,3.8-2c1.9,0.5,2.9,2.4,2.2,4.4
			c-1.2,3.3-2.3,6.5-3.5,9.7c-1.4,3.9-2.9,7.9-4.2,11.8c-0.2,0.5-0.2,1.1-0.2,1.7c0,1,0.1,2.1,0.3,3.1c0.8-2.1,1.5-4.2,2.3-6.3
			c0.3-0.7,0.7-1.5,1.2-2c1.3-1.4,3.3-1.7,5-0.8c1.6,0.8,2.6,2.6,2.3,4.5c-1,6.2-2.1,12.4-3.2,18.6c-0.3,1.7-1.2,2.9-2.7,3.7
			c-6.5,3.4-13,6.8-19.5,10.2c-0.7,0.4-1.5,0.5-2.3,0.8c-0.4,0-0.8,0-1.3,0c-0.1,0-0.3-0.1-0.4-0.1c-1.8-0.3-3.2-1.3-4.1-2.9
			c-0.4-0.7-0.5-1.4-0.8-2.1C56,98.8,56,98.2,56,97.7z"/>
	</g>
</g>
</svg>
