<?xml version="1.0" encoding="utf-8"?>
<!-- Generator: Adobe Illustrator 24.0.1, SVG Export Plug-In . SVG Version: 6.00 Build 0)  -->
<svg version="1.1" id="Capa_1" xmlns="http://www.w3.org/2000/svg" xmlns:xlink="http://www.w3.org/1999/xlink" x="0px" y="0px"
	 viewBox="0 0 188.5 188.5" style="enable-background:new 0 0 188.5 188.5;" xml:space="preserve">
<style type="text/css">
	.st0{fill:none;stroke:#003264;stroke-width:0.25;stroke-miterlimit:10;}
	.st1{fill:#003264;}
</style>
<rect x="3.8" y="3.8" class="st0" width="180.9" height="180.9"/>
<g>
	<path class="st1" d="M51.1,133.7h-3.7v-1.5h9.1v1.5h-3.7v10.4h-1.8V133.7z"/>
	<path class="st1" d="M57,143.2c-0.9-0.8-1.3-1.8-1.3-3.2c0-1.3,0.4-2.4,1.1-3.2s1.9-1.2,3.3-1.2c0.9,0,1.7,0.2,2.4,0.5
		c0.7,0.4,1.2,0.9,1.5,1.5s0.5,1.3,0.5,2.2v0.8h-7.2c0.1,0.8,0.4,1.3,1,1.7c0.6,0.4,1.4,0.6,2.4,0.6c0.5,0,1,0,1.6-0.1
		c0.5-0.1,1-0.2,1.4-0.4v1.4c-0.4,0.1-0.8,0.3-1.4,0.4c-0.6,0.1-1.2,0.1-1.8,0.1C59.1,144.3,57.9,144,57,143.2z M62.9,139.5
		c0-0.8-0.3-1.4-0.8-1.8c-0.5-0.4-1.2-0.6-2-0.6c-0.9,0-1.5,0.2-2,0.7s-0.7,1-0.7,1.8H62.9z"/>
	<path class="st1" d="M67.6,144.1c-0.6-0.1-1.1-0.3-1.5-0.6v-1.5c0.4,0.3,1,0.5,1.5,0.6c0.6,0.2,1.1,0.2,1.7,0.2
		c0.6,0,1.1-0.1,1.3-0.2c0.3-0.1,0.4-0.4,0.4-0.7c0-0.2-0.1-0.5-0.2-0.6c-0.1-0.2-0.4-0.3-0.7-0.4c-0.3-0.1-0.8-0.3-1.4-0.4
		c-0.7-0.2-1.2-0.4-1.6-0.6c-0.4-0.2-0.7-0.5-0.9-0.8c-0.2-0.3-0.3-0.7-0.3-1.2c0-0.8,0.3-1.4,0.9-1.8s1.4-0.6,2.5-0.6
		c0.5,0,1.1,0.1,1.6,0.2c0.5,0.1,0.9,0.2,1.3,0.4v1.4c-0.3-0.2-0.7-0.3-1.2-0.5c-0.5-0.1-1-0.2-1.5-0.2c-0.6,0-1.1,0.1-1.4,0.2
		c-0.3,0.1-0.5,0.4-0.5,0.8c0,0.2,0.1,0.4,0.2,0.6c0.1,0.1,0.4,0.3,0.7,0.4s0.8,0.2,1.4,0.4c1,0.3,1.7,0.6,2.2,1
		c0.4,0.4,0.6,0.9,0.6,1.6c0,0.7-0.3,1.3-0.9,1.7c-0.6,0.4-1.4,0.6-2.6,0.6C68.9,144.3,68.3,144.3,67.6,144.1z"/>
	<path class="st1" d="M75.7,143.6c-0.4-0.5-0.7-1.2-0.7-2v-4.4h-1.2v-1.3H75v-2.4h1.7v2.4h2v1.3h-2v4.2c0,0.5,0.1,0.9,0.3,1.2
		c0.2,0.2,0.6,0.3,1.1,0.3c0.3,0,0.7-0.1,1-0.2v1.4c-0.4,0.1-1,0.2-1.6,0.2C76.8,144.3,76.2,144.1,75.7,143.6z"/>
	<path class="st1" d="M81.1,134c-0.2-0.2-0.3-0.4-0.3-0.7s0.1-0.5,0.3-0.7c0.2-0.2,0.4-0.3,0.7-0.3c0.3,0,0.5,0.1,0.7,0.3
		c0.2,0.2,0.3,0.4,0.3,0.7s-0.1,0.5-0.3,0.7c-0.2,0.2-0.4,0.3-0.7,0.3C81.5,134.3,81.3,134.2,81.1,134z M81,135.9h1.8v8.2H81V135.9z
		"/>
	<path class="st1" d="M85.1,135.9h1.6v1.2c0.4-0.5,0.8-0.8,1.3-1.1c0.5-0.2,1-0.4,1.5-0.4c0.7,0,1.2,0.1,1.6,0.3
		c0.4,0.2,0.7,0.6,0.9,1c0.4-0.4,0.8-0.8,1.3-1c0.5-0.2,1.1-0.3,1.6-0.3c1,0,1.7,0.3,2.2,0.8c0.4,0.5,0.7,1.2,0.7,2.2v5.4H96v-5.2
		c0-0.7-0.1-1.1-0.4-1.4c-0.2-0.3-0.7-0.4-1.3-0.4c-0.9,0-1.6,0.4-2.1,1.1c0,0.2,0,0.4,0,0.8v5.1h-1.7v-5.2c0-0.7-0.1-1.1-0.3-1.4
		c-0.2-0.3-0.6-0.4-1.2-0.4c-0.9,0-1.6,0.5-2.3,1.5v5.6h-1.7V135.9z"/>
	<path class="st1" d="M101.4,143.8c-0.7-0.3-1.2-0.8-1.6-1.5c-0.4-0.7-0.6-1.4-0.6-2.3c0-0.9,0.2-1.6,0.6-2.3
		c0.4-0.7,0.9-1.2,1.6-1.5c0.7-0.4,1.5-0.5,2.4-0.5c0.9,0,1.7,0.2,2.4,0.5c0.7,0.4,1.2,0.9,1.6,1.5c0.4,0.7,0.6,1.4,0.6,2.3
		c0,0.9-0.2,1.7-0.6,2.3c-0.4,0.7-0.9,1.2-1.6,1.5s-1.5,0.5-2.4,0.5C102.9,144.3,102.1,144.2,101.4,143.8z M106,142.2
		c0.5-0.5,0.8-1.3,0.8-2.1c0-0.9-0.3-1.6-0.8-2.2c-0.5-0.5-1.2-0.8-2.1-0.8c-0.9,0-1.6,0.3-2.1,0.8c-0.5,0.5-0.8,1.3-0.8,2.2
		c0,0.9,0.3,1.6,0.8,2.1s1.2,0.8,2.1,0.8C104.7,143,105.5,142.7,106,142.2z"/>
	<path class="st1" d="M110.4,135.9h1.7v1.2c0.4-0.5,0.9-0.8,1.4-1.1s1.1-0.3,1.8-0.3c1.1,0,1.9,0.3,2.4,0.9s0.8,1.4,0.8,2.3v5.2
		h-1.7v-5c0-1.3-0.6-2-1.9-2c-0.5,0-1.1,0.1-1.5,0.4s-0.9,0.6-1.2,1.2v5.5h-1.7V135.9z"/>
	<path class="st1" d="M120.9,134c-0.2-0.2-0.3-0.4-0.3-0.7s0.1-0.5,0.3-0.7c0.2-0.2,0.4-0.3,0.7-0.3c0.3,0,0.5,0.1,0.7,0.3
		c0.2,0.2,0.3,0.4,0.3,0.7s-0.1,0.5-0.3,0.7c-0.2,0.2-0.4,0.3-0.7,0.3C121.3,134.3,121.1,134.2,120.9,134z M120.7,135.9h1.8v8.2
		h-1.8V135.9z"/>
	<path class="st1" d="M126.7,143.8c-0.7-0.3-1.2-0.8-1.6-1.5c-0.4-0.7-0.6-1.4-0.6-2.3c0-0.9,0.2-1.6,0.6-2.3
		c0.4-0.7,0.9-1.2,1.6-1.5c0.7-0.4,1.5-0.5,2.4-0.5s1.7,0.2,2.4,0.5c0.7,0.4,1.2,0.9,1.6,1.5c0.4,0.7,0.6,1.4,0.6,2.3
		c0,0.9-0.2,1.7-0.6,2.3c-0.4,0.7-0.9,1.2-1.6,1.5c-0.7,0.3-1.5,0.5-2.4,0.5S127.4,144.2,126.7,143.8z M131.3,142.2
		c0.5-0.5,0.8-1.3,0.8-2.1c0-0.9-0.3-1.6-0.8-2.2c-0.5-0.5-1.2-0.8-2.1-0.8c-0.9,0-1.6,0.3-2.1,0.8c-0.5,0.5-0.8,1.3-0.8,2.2
		c0,0.9,0.3,1.6,0.8,2.1s1.2,0.8,2.1,0.8C130,143,130.7,142.7,131.3,142.2z"/>
	<path class="st1" d="M136.5,144.1c-0.6-0.1-1.1-0.3-1.5-0.6v-1.5c0.4,0.3,1,0.5,1.5,0.6c0.6,0.2,1.1,0.2,1.7,0.2
		c0.6,0,1.1-0.1,1.3-0.2c0.3-0.1,0.4-0.4,0.4-0.7c0-0.2-0.1-0.5-0.2-0.6c-0.1-0.2-0.4-0.3-0.7-0.4c-0.3-0.1-0.8-0.3-1.4-0.4
		c-0.7-0.2-1.2-0.4-1.6-0.6c-0.4-0.2-0.7-0.5-0.9-0.8c-0.2-0.3-0.3-0.7-0.3-1.2c0-0.8,0.3-1.4,0.9-1.8c0.6-0.4,1.4-0.6,2.5-0.6
		c0.5,0,1.1,0.1,1.6,0.2c0.5,0.1,0.9,0.2,1.3,0.4v1.4c-0.3-0.2-0.7-0.3-1.2-0.5c-0.5-0.1-1-0.2-1.5-0.2c-0.6,0-1.1,0.1-1.4,0.2
		c-0.3,0.1-0.5,0.4-0.5,0.8c0,0.2,0.1,0.4,0.2,0.6c0.1,0.1,0.4,0.3,0.7,0.4c0.3,0.1,0.8,0.2,1.4,0.4c1,0.3,1.7,0.6,2.2,1
		c0.4,0.4,0.6,0.9,0.6,1.6c0,0.7-0.3,1.3-0.9,1.7s-1.4,0.6-2.6,0.6C137.7,144.3,137.1,144.3,136.5,144.1z"/>
</g>
<path class="st1" d="M110.9,60.2H71.3c-3.1,0-5.7,2.5-5.7,5.7v20.1c0,3.1,2.5,5.7,5.7,5.7H76v11.2l11.2-11.2h23.8
	c3.1,0,5.7-2.5,5.7-5.7V65.8C116.6,62.7,114.1,60.2,110.9,60.2z"/>
</svg>
