<?xml version="1.0" encoding="utf-8"?>
<!-- Generator: Adobe Illustrator 24.0.1, SVG Export Plug-In . SVG Version: 6.00 Build 0)  -->
<svg version="1.1" xmlns="http://www.w3.org/2000/svg" xmlns:xlink="http://www.w3.org/1999/xlink" x="0px" y="0px"
	 viewBox="0 0 188.5 188.5" style="enable-background:new 0 0 188.5 188.5;" xml:space="preserve">
<style type="text/css">
	.st0{display:none;}
	.st1{display:inline;fill:#003264;}
	.st2{fill:none;stroke:#003264;stroke-miterlimit:10;}
	.st3{fill:#003264;}
	.st4{fill:#003264;}
</style>
<g id="Capa_2" class="st0">
	<rect class="st1" width="188.5" height="188.5"/>
</g>
<g id="Capa_3">
	<rect x="3.8" y="3.8" class="st2" width="180.9" height="180.9"/>
</g>
<g id="Capa_1">
	<g>
		<path class="st3" d="M46.8,140.1h1.7l4.7,11.9h-1.8l-1.2-3H45l-1.2,3h-1.8L46.8,140.1z M49.8,147.6l-2.1-5.6l-2.1,5.6H49.8z"/>
		<path class="st3" d="M55.1,139.4h1.7V152h-1.7V139.4z"/>
		<path class="st3" d="M59.3,141.9c-0.2-0.2-0.3-0.4-0.3-0.7s0.1-0.5,0.3-0.7c0.2-0.2,0.4-0.3,0.7-0.3c0.3,0,0.5,0.1,0.7,0.3
			c0.2,0.2,0.3,0.4,0.3,0.7s-0.1,0.5-0.3,0.7c-0.2,0.2-0.4,0.3-0.7,0.3C59.7,142.2,59.5,142.1,59.3,141.9z M59.2,143.8h1.8v8.2h-1.8
			V143.8z"/>
		<path class="st3" d="M63.3,143.8h1.6v1.2c0.4-0.5,0.8-0.8,1.3-1.1c0.5-0.2,1-0.4,1.5-0.4c0.7,0,1.2,0.1,1.6,0.3
			c0.4,0.2,0.7,0.6,0.9,1c0.4-0.4,0.8-0.8,1.3-1c0.5-0.2,1.1-0.3,1.6-0.3c1,0,1.7,0.3,2.2,0.8c0.4,0.5,0.7,1.2,0.7,2.2v5.4h-1.7
			v-5.2c0-0.7-0.1-1.1-0.4-1.4c-0.2-0.3-0.7-0.4-1.3-0.4c-0.9,0-1.6,0.4-2.1,1.1c0,0.2,0,0.4,0,0.8v5.1h-1.7v-5.2
			c0-0.7-0.1-1.1-0.3-1.4c-0.2-0.3-0.6-0.4-1.2-0.4c-0.9,0-1.6,0.5-2.3,1.5v5.6h-1.7V143.8z"/>
		<path class="st3" d="M78.9,151.1c-0.9-0.8-1.3-1.8-1.3-3.2c0-1.3,0.4-2.4,1.1-3.2c0.8-0.8,1.9-1.2,3.3-1.2c0.9,0,1.7,0.2,2.4,0.5
			c0.7,0.4,1.2,0.9,1.5,1.5s0.5,1.3,0.5,2.2v0.8h-7.2c0.1,0.8,0.4,1.3,1,1.7c0.6,0.4,1.4,0.6,2.4,0.6c0.5,0,1,0,1.6-0.1
			c0.5-0.1,1-0.2,1.4-0.4v1.4c-0.4,0.1-0.8,0.3-1.4,0.4c-0.6,0.1-1.2,0.1-1.8,0.1C81,152.2,79.8,151.8,78.9,151.1z M84.9,147.4
			c0-0.8-0.3-1.4-0.8-1.8c-0.5-0.4-1.2-0.6-2-0.6c-0.9,0-1.5,0.2-2,0.7c-0.5,0.4-0.7,1-0.7,1.8H84.9z"/>
		<path class="st3" d="M88.3,143.8H90v1.2c0.4-0.5,0.9-0.8,1.4-1.1s1.1-0.3,1.8-0.3c1.1,0,1.9,0.3,2.4,0.9s0.8,1.4,0.8,2.3v5.2h-1.7
			v-5c0-1.3-0.6-2-1.9-2c-0.5,0-1.1,0.1-1.5,0.4c-0.5,0.3-0.9,0.6-1.2,1.2v5.5h-1.7V143.8z"/>
		<path class="st3" d="M99.8,151.5c-0.4-0.5-0.7-1.2-0.7-2v-4.4h-1.2v-1.3h1.2v-2.4h1.7v2.4h2v1.3h-2v4.2c0,0.5,0.1,0.9,0.3,1.2
			c0.2,0.2,0.6,0.3,1.1,0.3c0.3,0,0.7-0.1,1-0.2v1.4c-0.4,0.1-1,0.2-1.6,0.2C100.9,152.2,100.2,152,99.8,151.5z"/>
		<path class="st3" d="M105.2,151.5c-0.6-0.5-0.9-1.2-0.9-2c0-0.9,0.3-1.6,0.9-2.1s1.4-0.7,2.4-0.7c1.1,0,2.1,0.2,2.9,0.7v-0.4
			c0-0.6-0.2-1.1-0.6-1.4c-0.4-0.3-1-0.5-1.8-0.5c-0.5,0-1,0-1.5,0.1c-0.5,0.1-0.9,0.2-1.3,0.4v-1.4c0.3-0.2,0.8-0.3,1.3-0.4
			c0.5-0.1,1.1-0.1,1.6-0.1c1.3,0,2.3,0.3,3,0.9c0.7,0.6,1,1.4,1,2.5v5h-1.6V151c-0.4,0.4-0.8,0.7-1.2,0.9c-0.5,0.2-1.1,0.3-1.8,0.3
			C106.6,152.2,105.8,152,105.2,151.5z M109.5,150.6c0.4-0.2,0.8-0.5,1-0.9v-1.1c-0.7-0.5-1.6-0.7-2.5-0.7c-0.7,0-1.1,0.1-1.5,0.4
			c-0.3,0.3-0.5,0.6-0.5,1.2c0,1,0.7,1.5,2,1.5C108.5,150.9,109,150.8,109.5,150.6z"/>
		<path class="st3" d="M115.9,151.7c-0.7-0.3-1.2-0.8-1.6-1.5c-0.4-0.7-0.6-1.4-0.6-2.3c0-0.9,0.2-1.7,0.6-2.3
			c0.4-0.7,0.9-1.2,1.6-1.5c0.7-0.4,1.5-0.5,2.4-0.5c1.2,0,2.2,0.2,3,0.7v1.4c-0.7-0.5-1.7-0.8-2.8-0.8c-0.9,0-1.7,0.3-2.3,0.8
			c-0.6,0.5-0.9,1.2-0.9,2.2c0,1,0.3,1.7,0.9,2.2c0.6,0.5,1.3,0.7,2.2,0.7c1.1,0,2.1-0.3,3-0.8v1.4c-0.4,0.3-0.8,0.5-1.4,0.6
			c-0.5,0.1-1.1,0.2-1.8,0.2C117.4,152.2,116.6,152,115.9,151.7z"/>
		<path class="st3" d="M123.6,141.9c-0.2-0.2-0.3-0.4-0.3-0.7s0.1-0.5,0.3-0.7c0.2-0.2,0.4-0.3,0.7-0.3c0.3,0,0.5,0.1,0.7,0.3
			c0.2,0.2,0.3,0.4,0.3,0.7s-0.1,0.5-0.3,0.7c-0.2,0.2-0.4,0.3-0.7,0.3C124,142.2,123.8,142.1,123.6,141.9z M123.4,143.8h1.8v8.2
			h-1.8V143.8z"/>
		<path class="st3" d="M129.4,151.7c-0.7-0.3-1.2-0.8-1.6-1.5c-0.4-0.7-0.6-1.4-0.6-2.3c0-0.9,0.2-1.6,0.6-2.3
			c0.4-0.7,0.9-1.2,1.6-1.5c0.7-0.4,1.5-0.5,2.4-0.5s1.7,0.2,2.4,0.5c0.7,0.4,1.2,0.9,1.6,1.5c0.4,0.7,0.6,1.4,0.6,2.3
			c0,0.9-0.2,1.7-0.6,2.3c-0.4,0.7-0.9,1.2-1.6,1.5s-1.5,0.5-2.4,0.5S130.1,152,129.4,151.7z M133.9,150c0.5-0.5,0.8-1.3,0.8-2.1
			c0-0.9-0.3-1.6-0.8-2.2c-0.5-0.5-1.2-0.8-2.1-0.8c-0.9,0-1.6,0.3-2.1,0.8c-0.5,0.5-0.8,1.3-0.8,2.2c0,0.9,0.3,1.6,0.8,2.1
			s1.2,0.8,2.1,0.8C132.7,150.9,133.4,150.6,133.9,150z M132,140h1.8l-1.4,2.9h-1.6L132,140z"/>
		<path class="st3" d="M138.4,143.8h1.7v1.2c0.4-0.5,0.9-0.8,1.4-1.1s1.1-0.3,1.8-0.3c1.1,0,1.9,0.3,2.4,0.9s0.8,1.4,0.8,2.3v5.2
			h-1.7v-5c0-1.3-0.6-2-1.9-2c-0.5,0-1.1,0.1-1.5,0.4c-0.5,0.3-0.9,0.6-1.2,1.2v5.5h-1.7V143.8z"/>
	</g>
	<g>
		<g>
			<path class="st4" d="M109.7,70c-4.7-1.3-10-0.1-15.5,2.6c-5.5-2.6-10.7-3.9-15.5-2.6C66.9,73.5,64.7,84,65.3,96.6
				c0.1,1.1,0.2,2.2,0.4,3.3c1.7,9.1,5.9,16.9,12.8,23.3c3.5,3.2,8.8,3.6,12.5,0.7c1.1-0.8,2.2-1.9,3.3-3.3c1.1,1.4,2.2,2.4,3.3,3.3
				c3.7,2.9,9,2.5,12.5-0.7c6.9-6.4,11.1-14.2,12.8-23.3c0.2-1.1,0.3-2.2,0.4-3.3C123.8,84,121.6,73.5,109.7,70z"/>
		</g>
		<g>
			<path class="st4" d="M108.1,50.7c0,0-15.6,4.5-13.9,17.9C107.6,66.9,108.1,50.7,108.1,50.7z"/>
		</g>
	</g>
</g>
</svg>
