<?xml version="1.0" encoding="utf-8"?>
<!-- Generator: Adobe Illustrator 24.0.1, SVG Export Plug-In . SVG Version: 6.00 Build 0)  -->
<svg version="1.1" xmlns="http://www.w3.org/2000/svg" xmlns:xlink="http://www.w3.org/1999/xlink" x="0px" y="0px"
	 viewBox="0 0 188.5 188.5" style="enable-background:new 0 0 188.5 188.5;" xml:space="preserve">
<style type="text/css">
	.st0{display:none;}
	.st1{display:inline;fill:#003264;}
	.st2{fill:none;stroke:#003264;stroke-miterlimit:10;}
	.st3{fill:#003264;}
	.st4{fill:#003264;}
	.st5{fill:#30A9EA;}
</style>
<g id="Capa_2" class="st0">
	<rect class="st1" width="188.5" height="188.5"/>
</g>
<g id="Capa_3">
	<rect x="3.8" y="3.8" class="st2" width="180.9" height="180.9"/>
</g>
<g id="Capa_1">
	<g>
		<path class="st3" d="M54,139.8h4.6c1.3,0,2.3,0.3,3,1c0.7,0.6,1.1,1.5,1.1,2.7c0,1.2-0.4,2.1-1.1,2.7c-0.7,0.6-1.8,0.9-3,0.9h-2.8
			v4.5H54V139.8z M58.4,145.7c0.8,0,1.4-0.2,1.9-0.5c0.5-0.3,0.7-0.9,0.7-1.7c0-0.8-0.2-1.4-0.7-1.7c-0.5-0.3-1.1-0.5-1.9-0.5h-2.7
			v4.4H58.4z"/>
		<path class="st3" d="M64.3,143.5h1.7v1.5c0.3-0.5,0.8-0.9,1.4-1.1c0.6-0.2,1.3-0.4,2.2-0.4v1.3c-0.9,0-1.6,0.1-2.2,0.4
			s-1.1,0.7-1.3,1.3v5h-1.7V143.5z"/>
		<path class="st3" d="M71.5,150.8c-0.9-0.8-1.3-1.8-1.3-3.2c0-1.3,0.4-2.4,1.1-3.2s1.9-1.2,3.3-1.2c0.9,0,1.7,0.2,2.4,0.5
			c0.7,0.4,1.2,0.9,1.5,1.5c0.3,0.6,0.5,1.3,0.5,2.2v0.8h-7.2c0.1,0.8,0.4,1.3,1,1.7c0.6,0.4,1.4,0.6,2.4,0.6c0.5,0,1,0,1.6-0.1
			c0.5-0.1,1-0.2,1.4-0.4v1.4c-0.4,0.1-0.8,0.3-1.4,0.4c-0.6,0.1-1.2,0.1-1.8,0.1C73.5,151.9,72.4,151.6,71.5,150.8z M77.4,147.1
			c0-0.8-0.3-1.4-0.8-1.8s-1.2-0.6-2-0.6c-0.9,0-1.5,0.2-2,0.7s-0.7,1-0.7,1.8H77.4z"/>
		<path class="st3" d="M83.5,155.5c-0.5-0.1-1-0.2-1.3-0.4v-1.4c0.9,0.4,1.8,0.6,3,0.6c1.1,0,1.8-0.2,2.3-0.7
			c0.5-0.5,0.7-1.2,0.7-2.1v-0.9c-0.7,0.9-1.8,1.3-3.3,1.3c-0.8,0-1.6-0.2-2.2-0.5c-0.7-0.4-1.2-0.9-1.5-1.5
			c-0.4-0.7-0.6-1.4-0.6-2.3c0-0.9,0.2-1.6,0.6-2.3c0.4-0.7,0.9-1.2,1.5-1.5c0.7-0.4,1.4-0.5,2.2-0.5c0.8,0,1.4,0.1,1.9,0.3
			c0.5,0.2,1,0.6,1.5,1.1v-1.2h1.7v7.8c0,1.4-0.4,2.5-1.2,3.2c-0.8,0.7-2,1.1-3.6,1.1C84.6,155.6,84.1,155.5,83.5,155.5z M87.1,150
			c0.5-0.4,0.9-0.9,1.1-1.5v-1.8c-0.2-0.6-0.6-1.1-1.1-1.5c-0.5-0.4-1.1-0.5-1.8-0.5c-0.6,0-1.1,0.1-1.5,0.4c-0.4,0.2-0.8,0.6-1.1,1
			s-0.4,1-0.4,1.5c0,0.6,0.1,1.1,0.4,1.6c0.3,0.4,0.6,0.8,1.1,1c0.4,0.2,0.9,0.4,1.5,0.4C85.9,150.6,86.5,150.4,87.1,150z"/>
		<path class="st3" d="M92.9,151.1c-0.6-0.6-0.8-1.4-0.8-2.4v-5.2h1.7v5.1c0,1.3,0.7,2,2,2c1.1,0,2-0.5,2.7-1.5v-5.5h1.7v8.2h-1.7
			v-1.2c-0.4,0.5-0.8,0.8-1.4,1.1c-0.5,0.2-1.1,0.3-1.7,0.3C94.3,151.9,93.4,151.6,92.9,151.1z"/>
		<path class="st3" d="M102.3,143.5h1.7v1.2c0.4-0.5,0.9-0.8,1.4-1.1s1.1-0.3,1.8-0.3c1.1,0,1.9,0.3,2.4,0.9s0.8,1.4,0.8,2.3v5.2
			h-1.7v-5c0-1.3-0.6-2-1.9-2c-0.5,0-1.1,0.1-1.5,0.4s-0.9,0.6-1.2,1.2v5.5h-1.7V143.5z"/>
		<path class="st3" d="M113.7,151.2c-0.4-0.5-0.7-1.2-0.7-2v-4.4h-1.2v-1.3h1.2v-2.4h1.7v2.4h2v1.3h-2v4.2c0,0.5,0.1,0.9,0.3,1.2
			c0.2,0.2,0.6,0.3,1.1,0.3c0.3,0,0.7-0.1,1-0.2v1.4c-0.4,0.1-1,0.2-1.6,0.2C114.8,151.9,114.2,151.7,113.7,151.2z"/>
		<path class="st3" d="M119.2,151.2c-0.6-0.5-0.9-1.2-0.9-2c0-0.9,0.3-1.6,0.9-2.1s1.4-0.7,2.4-0.7c1.1,0,2.1,0.2,2.9,0.7v-0.4
			c0-0.6-0.2-1.1-0.6-1.4s-1-0.5-1.8-0.5c-0.5,0-1,0-1.5,0.1c-0.5,0.1-0.9,0.2-1.3,0.4v-1.4c0.3-0.2,0.8-0.3,1.3-0.4
			c0.5-0.1,1.1-0.1,1.6-0.1c1.3,0,2.3,0.3,3,0.9s1,1.4,1,2.5v5h-1.6v-0.9c-0.4,0.4-0.8,0.7-1.2,0.9c-0.5,0.2-1.1,0.3-1.8,0.3
			C120.5,151.9,119.8,151.7,119.2,151.2z M123.4,150.3c0.4-0.2,0.8-0.5,1-0.9v-1.1c-0.7-0.5-1.6-0.7-2.5-0.7c-0.7,0-1.1,0.1-1.5,0.4
			c-0.3,0.3-0.5,0.6-0.5,1.2c0,1,0.7,1.5,2,1.5C122.5,150.6,123,150.5,123.4,150.3z"/>
		<path class="st3" d="M129.2,151.7c-0.6-0.1-1.1-0.3-1.5-0.6v-1.5c0.4,0.3,1,0.5,1.5,0.6s1.1,0.2,1.7,0.2c0.6,0,1.1-0.1,1.3-0.2
			s0.4-0.4,0.4-0.7c0-0.2-0.1-0.5-0.2-0.6c-0.1-0.2-0.4-0.3-0.7-0.4c-0.3-0.1-0.8-0.3-1.4-0.4c-0.7-0.2-1.2-0.4-1.6-0.6
			c-0.4-0.2-0.7-0.5-0.9-0.8c-0.2-0.3-0.3-0.7-0.3-1.2c0-0.8,0.3-1.4,0.9-1.8c0.6-0.4,1.4-0.6,2.5-0.6c0.5,0,1.1,0.1,1.6,0.2
			c0.5,0.1,0.9,0.2,1.3,0.4v1.4c-0.3-0.2-0.7-0.3-1.2-0.5c-0.5-0.1-1-0.2-1.5-0.2c-0.6,0-1.1,0.1-1.4,0.2c-0.3,0.1-0.5,0.4-0.5,0.8
			c0,0.2,0.1,0.4,0.2,0.6c0.1,0.1,0.4,0.3,0.7,0.4c0.3,0.1,0.8,0.2,1.4,0.4c1,0.3,1.7,0.6,2.2,1c0.4,0.4,0.6,0.9,0.6,1.6
			c0,0.7-0.3,1.3-0.9,1.7c-0.6,0.4-1.4,0.6-2.6,0.6C130.5,151.9,129.9,151.9,129.2,151.7z"/>
	</g>
	<g>
		<circle class="st4" cx="93.3" cy="94.1" r="32.9"/>
	</g>
	<g>
		<g>
			<path class="st5" d="M90.2,82.5c-0.8-0.8-1.3-1.8-1.3-3.1c0-1.2,0.4-2.2,1.3-3c0.8-0.8,1.9-1.2,3.1-1.2c1.2,0,2.2,0.4,3.1,1.2
				c0.8,0.8,1.3,1.8,1.3,3s-0.4,2.2-1.3,3c-0.9,0.8-1.9,1.2-3.1,1.2C92.1,83.8,91.1,83.4,90.2,82.5z M89.3,86.7h8.2V109h-8.2V86.7z"
				/>
		</g>
	</g>
</g>
</svg>
