<?xml version="1.0" encoding="utf-8"?>
<!-- Generator: Adobe Illustrator 24.0.1, SVG Export Plug-In . SVG Version: 6.00 Build 0)  -->
<svg version="1.1" xmlns="http://www.w3.org/2000/svg" xmlns:xlink="http://www.w3.org/1999/xlink" x="0px" y="0px"
	 viewBox="0 0 188.5 188.5" style="enable-background:new 0 0 188.5 188.5;" xml:space="preserve">
<style type="text/css">
	.st0{display:none;}
	.st1{display:inline;fill:#003264;}
	.st2{fill:none;stroke:#003264;stroke-miterlimit:10;}
	.st4{fill:#003264;}
	.st3{fill:#003264;}
</style>
<g id="Capa_2" class="st0">
	<rect class="st1" width="188.5" height="188.5"/>
</g>
<g id="Capa_3">
	<rect x="3.8" y="3.8" class="st2" width="180.9" height="180.9"/>
</g>
<g id="Capa_1">
	<g>
		<path class="st3" d="M34.9,140h3.8c1.3,0,2.4,0.2,3.3,0.7c0.9,0.5,1.7,1.2,2.2,2s0.8,1.9,0.8,3.1c0,2-0.6,3.5-1.7,4.5
			s-2.7,1.5-4.8,1.5h-3.6V140z M38.5,150.4c1.6,0,2.8-0.4,3.6-1.2c0.8-0.8,1.2-1.9,1.2-3.4c0-1.4-0.4-2.4-1.2-3.2
			c-0.8-0.8-1.9-1.2-3.3-1.2h-2.1v9H38.5z"/>
		<path class="st3" d="M46.9,151.4c-0.6-0.5-0.9-1.2-0.9-2c0-0.9,0.3-1.6,0.9-2.1s1.4-0.7,2.4-0.7c1.1,0,2.1,0.2,2.9,0.7v-0.4
			c0-0.6-0.2-1.1-0.6-1.4s-1-0.5-1.8-0.5c-0.5,0-1,0-1.5,0.1c-0.5,0.1-0.9,0.2-1.3,0.4V144c0.3-0.2,0.8-0.3,1.3-0.4
			c0.5-0.1,1.1-0.1,1.6-0.1c1.3,0,2.3,0.3,3,0.9s1,1.4,1,2.5v5h-1.6v-0.9c-0.4,0.4-0.8,0.7-1.2,0.9c-0.5,0.2-1.1,0.3-1.8,0.3
			C48.3,152.1,47.5,151.9,46.9,151.4z M51.2,150.5c0.4-0.2,0.8-0.5,1-0.9v-1.1c-0.7-0.5-1.6-0.7-2.5-0.7c-0.7,0-1.1,0.1-1.5,0.4
			c-0.3,0.3-0.5,0.6-0.5,1.2c0,1,0.7,1.5,2,1.5C50.2,150.8,50.7,150.7,51.2,150.5z"/>
		<path class="st3" d="M56.8,151.4c-0.4-0.5-0.7-1.2-0.7-2V145h-1.2v-1.3h1.2v-2.4h1.7v2.4h2v1.3h-2v4.2c0,0.5,0.1,0.9,0.3,1.2
			c0.2,0.2,0.6,0.3,1.1,0.3c0.3,0,0.7-0.1,1-0.2v1.4c-0.4,0.1-1,0.2-1.6,0.2C57.9,152.1,57.3,151.9,56.8,151.4z"/>
		<path class="st3" d="M63.7,151.6c-0.7-0.3-1.2-0.8-1.6-1.5c-0.4-0.7-0.6-1.4-0.6-2.3c0-0.9,0.2-1.6,0.6-2.3
			c0.4-0.7,0.9-1.2,1.6-1.5c0.7-0.4,1.5-0.5,2.4-0.5c0.9,0,1.7,0.2,2.4,0.5c0.7,0.4,1.2,0.9,1.6,1.5c0.4,0.7,0.6,1.4,0.6,2.3
			c0,0.9-0.2,1.7-0.6,2.3c-0.4,0.7-0.9,1.2-1.6,1.5s-1.5,0.5-2.4,0.5C65.2,152.1,64.4,151.9,63.7,151.6z M68.3,149.9
			c0.5-0.5,0.8-1.3,0.8-2.1c0-0.9-0.3-1.6-0.8-2.2c-0.5-0.5-1.2-0.8-2.1-0.8c-0.9,0-1.6,0.3-2.1,0.8c-0.5,0.5-0.8,1.3-0.8,2.2
			c0,0.9,0.3,1.6,0.8,2.1c0.5,0.5,1.2,0.8,2.1,0.8C67,150.7,67.7,150.5,68.3,149.9z"/>
		<path class="st3" d="M73.5,151.9c-0.6-0.1-1.1-0.3-1.5-0.6v-1.5c0.4,0.3,1,0.5,1.5,0.6c0.6,0.2,1.1,0.2,1.7,0.2
			c0.6,0,1.1-0.1,1.3-0.2c0.3-0.1,0.4-0.4,0.4-0.7c0-0.2-0.1-0.5-0.2-0.6c-0.1-0.2-0.4-0.3-0.7-0.4c-0.3-0.1-0.8-0.3-1.4-0.4
			c-0.7-0.2-1.2-0.4-1.6-0.6c-0.4-0.2-0.7-0.5-0.9-0.8c-0.2-0.3-0.3-0.7-0.3-1.2c0-0.8,0.3-1.4,0.9-1.8c0.6-0.4,1.4-0.6,2.5-0.6
			c0.5,0,1.1,0.1,1.6,0.2c0.5,0.1,0.9,0.2,1.3,0.4v1.4c-0.3-0.2-0.7-0.3-1.2-0.5c-0.5-0.1-1-0.2-1.5-0.2c-0.6,0-1.1,0.1-1.4,0.2
			c-0.3,0.1-0.5,0.4-0.5,0.8c0,0.2,0.1,0.4,0.2,0.6c0.1,0.1,0.4,0.3,0.7,0.4c0.3,0.1,0.8,0.2,1.4,0.4c1,0.3,1.7,0.6,2.2,1
			c0.4,0.4,0.6,0.9,0.6,1.6c0,0.7-0.3,1.3-0.9,1.7s-1.4,0.6-2.6,0.6C74.7,152.1,74.1,152,73.5,151.9z"/>
		<path class="st3" d="M88.6,151.6c-0.7-0.4-1.2-0.9-1.5-1.5c-0.4-0.7-0.6-1.4-0.6-2.3c0-0.8,0.2-1.6,0.6-2.3s0.9-1.2,1.5-1.5
			c0.7-0.4,1.4-0.6,2.2-0.6c1.5,0,2.6,0.4,3.3,1.3v-5.5h1.7v12.6h-1.7v-1.2c-0.5,0.5-0.9,0.9-1.5,1.1c-0.5,0.2-1.2,0.3-1.9,0.3
			C90,152.1,89.2,151.9,88.6,151.6z M93,150.2c0.5-0.4,0.9-0.9,1.1-1.5v-1.8c-0.2-0.6-0.6-1.1-1.1-1.5c-0.5-0.4-1.2-0.6-1.9-0.6
			c-0.6,0-1.1,0.1-1.5,0.4s-0.8,0.6-1.1,1.1c-0.3,0.5-0.4,1-0.4,1.5c0,0.6,0.1,1.1,0.4,1.5c0.3,0.5,0.6,0.8,1.1,1
			c0.4,0.2,0.9,0.4,1.5,0.4C91.9,150.7,92.5,150.6,93,150.2z"/>
		<path class="st3" d="M99,151c-0.9-0.8-1.3-1.8-1.3-3.2c0-1.3,0.4-2.4,1.1-3.2c0.8-0.8,1.9-1.2,3.3-1.2c0.9,0,1.7,0.2,2.4,0.5
			c0.7,0.4,1.2,0.9,1.5,1.5s0.5,1.3,0.5,2.2v0.8h-7.2c0.1,0.8,0.4,1.3,1,1.7c0.6,0.4,1.4,0.6,2.4,0.6c0.5,0,1,0,1.6-0.1
			c0.5-0.1,1-0.2,1.4-0.4v1.4c-0.4,0.1-0.8,0.3-1.4,0.4c-0.6,0.1-1.2,0.1-1.8,0.1C101.1,152.1,99.9,151.7,99,151z M104.9,147.2
			c0-0.8-0.3-1.4-0.8-1.8c-0.5-0.4-1.2-0.6-2-0.6c-0.9,0-1.5,0.2-2,0.7c-0.5,0.4-0.7,1-0.7,1.8H104.9z"/>
		<path class="st3" d="M108.4,139.3h1.7v12.6h-1.7V139.3z"/>
		<path class="st3" d="M121.3,151.3c-1-0.5-1.7-1.2-2.2-2.2c-0.5-0.9-0.8-2-0.8-3.3s0.3-2.3,0.8-3.3c0.5-0.9,1.3-1.7,2.2-2.2
			s2-0.8,3.3-0.8c1.6,0,3,0.4,4.1,1.2v1.7c-1-0.9-2.3-1.3-3.9-1.3c-0.9,0-1.7,0.2-2.4,0.6c-0.7,0.4-1.3,0.9-1.7,1.6
			c-0.4,0.7-0.6,1.5-0.6,2.4c0,0.9,0.2,1.7,0.6,2.4c0.4,0.7,1,1.2,1.7,1.6c0.7,0.4,1.5,0.6,2.4,0.6c0.8,0,1.6-0.1,2.3-0.3
			c0.7-0.2,1.3-0.6,1.8-1.1v1.7c-1,0.8-2.4,1.3-4.2,1.3C123.4,152.1,122.3,151.9,121.3,151.3z"/>
		<path class="st3" d="M130.7,139.3h1.7v12.6h-1.7V139.3z"/>
		<path class="st3" d="M134.9,141.8c-0.2-0.2-0.3-0.4-0.3-0.7s0.1-0.5,0.3-0.7c0.2-0.2,0.4-0.3,0.7-0.3c0.3,0,0.5,0.1,0.7,0.3
			c0.2,0.2,0.3,0.4,0.3,0.7s-0.1,0.5-0.3,0.7c-0.2,0.2-0.4,0.3-0.7,0.3C135.3,142.1,135.1,142,134.9,141.8z M134.8,143.7h1.8v8.2
			h-1.8V143.7z"/>
		<path class="st3" d="M138.9,143.7h1.6v1.2c0.4-0.5,0.8-0.8,1.3-1.1c0.5-0.2,1-0.4,1.5-0.4c0.7,0,1.2,0.1,1.6,0.3
			c0.4,0.2,0.7,0.6,0.8,1c0.4-0.4,0.8-0.8,1.3-1s1.1-0.3,1.6-0.3c1,0,1.7,0.3,2.2,0.8c0.4,0.5,0.7,1.2,0.7,2.2v5.4h-1.7v-5.2
			c0-0.7-0.1-1.1-0.4-1.4c-0.2-0.3-0.7-0.4-1.3-0.4c-0.9,0-1.6,0.4-2.1,1.1c0,0.2,0,0.4,0,0.8v5.1h-1.7v-5.2c0-0.7-0.1-1.1-0.3-1.4
			c-0.2-0.3-0.6-0.4-1.2-0.4c-0.9,0-1.6,0.5-2.3,1.5v5.6h-1.7V143.7z"/>
		<path class="st3" d="M153.9,151.4c-0.6-0.5-0.9-1.2-0.9-2c0-0.9,0.3-1.6,0.9-2.1s1.4-0.7,2.4-0.7c1.1,0,2.1,0.2,2.9,0.7v-0.4
			c0-0.6-0.2-1.1-0.6-1.4c-0.4-0.3-1-0.5-1.8-0.5c-0.5,0-1,0-1.5,0.1c-0.5,0.1-0.9,0.2-1.3,0.4V144c0.3-0.2,0.8-0.3,1.3-0.4
			c0.5-0.1,1.1-0.1,1.6-0.1c1.3,0,2.3,0.3,3,0.9c0.7,0.6,1,1.4,1,2.5v5h-1.6v-0.9c-0.4,0.4-0.8,0.7-1.2,0.9
			c-0.5,0.2-1.1,0.3-1.8,0.3C155.3,152.1,154.5,151.9,153.9,151.4z M158.2,150.5c0.4-0.2,0.8-0.5,1-0.9v-1.1
			c-0.7-0.5-1.6-0.7-2.5-0.7c-0.7,0-1.1,0.1-1.5,0.4c-0.3,0.3-0.5,0.6-0.5,1.2c0,1,0.7,1.5,2,1.5
			C157.2,150.8,157.7,150.7,158.2,150.5z"/>
	</g>
	<g>
		<path class="st4" d="M123.2,76.4c-0.7,0-1.4,0-2,0.1c-3.9-9.3-13.2-15.9-23.9-15.9c-12.8,0-23.5,9.3-25.6,21.6
			c-0.6-0.1-1.2-0.1-1.8-0.1c-8.9,0-16.1,7.2-16.1,16.1s7.2,16.1,16.1,16.1h53.4c10.5,0,19-8.5,19-19
			C142.2,84.9,133.7,76.4,123.2,76.4z"/>
	</g>
</g>
</svg>
