<?xml version="1.0" encoding="utf-8"?>
<!-- Generator: Adobe Illustrator 24.0.1, SVG Export Plug-In . SVG Version: 6.00 Build 0)  -->
<svg version="1.1" xmlns="http://www.w3.org/2000/svg" xmlns:xlink="http://www.w3.org/1999/xlink" x="0px" y="0px"
	 viewBox="0 0 188.5 188.5" style="enable-background:new 0 0 188.5 188.5;" xml:space="preserve">
<style type="text/css">
	.st0{display:none;}
	.st1{display:inline;fill:#003264;}
	.st2{fill:#003264;}
	.st3{font-family:'Prompt-Regular';}
	.st4{font-size:17px;}
	.st5{fill:none;stroke:#003264;stroke-miterlimit:10;}
	.st6{fill:#003264;}
	.st7{fill:#30A9EA;}
</style>
<g id="Capa_2" class="st0">
	<rect class="st1" width="188.5" height="188.5"/>
</g>
<g id="Capa_1">
	<text transform="matrix(1 0 0 1 45.4692 159.6246)" class="st2 st3 st4">Actividades</text>
	<rect x="3.8" y="3.8" class="st5" width="180.9" height="180.9"/>
	<rect x="62" y="57.2" class="st6" width="64" height="64"/>
	<g>
		<rect x="74.8" y="51.2" class="st6" width="4.1" height="7.6"/>
		<rect x="109" y="51.2" class="st6" width="4.1" height="7.6"/>
	</g>
	<rect x="62" y="72.2" class="st7" width="64" height="3.7"/>
	<g>
		<circle class="st7" cx="101.3" cy="86.4" r="3.3"/>
		<circle class="st7" cx="115.4" cy="86.4" r="3.3"/>
		<circle class="st7" cx="73.1" cy="94.4" r="3.3"/>
		<circle class="st7" cx="87.2" cy="94.4" r="3.3"/>
		<circle class="st7" cx="101.3" cy="94.4" r="3.3"/>
		<circle class="st7" cx="115.4" cy="94.4" r="3.3"/>
		<circle class="st7" cx="73.1" cy="102.3" r="3.3"/>
		<circle class="st7" cx="87.2" cy="102.3" r="3.3"/>
		<circle class="st7" cx="101.3" cy="102.3" r="3.3"/>
		<circle class="st7" cx="115.4" cy="102.3" r="3.3"/>
		<circle class="st7" cx="73.1" cy="110.3" r="3.3"/>
		<circle class="st7" cx="87.2" cy="110.3" r="3.3"/>
	</g>
</g>
</svg>
