<svg width="188.5" height="188.5" xmlns="http://www.w3.org/2000/svg" xml:space="preserve" version="1.1">

 <g>
  <title>Layer 1</title>
  <g display="none" class="st0" id="Capa_2">
   <rect id="svg_1" fill="#003264" display="inline" height="188.5" width="188.5" class="st1"/>
  </g>
  <g id="Capa_3">
   <rect id="svg_2" stroke-miterlimit="10" stroke="#003264" fill="none" height="180.9" width="180.9" class="st2" y="3.8" x="3.8"/>
  </g>
  <g id="Capa_1">
   <g id="svg_3">
    <path id="svg_4" fill="#ffffff" d="m47.7,152.1c-1,-0.5 -1.7,-1.2 -2.2,-2.2c-0.5,-0.9 -0.8,-2 -0.8,-3.3s0.3,-2.3 0.8,-3.3c0.5,-0.9 1.3,-1.7 2.2,-2.2s2,-0.8 3.3,-0.8c1.6,0 3,0.4 4.1,1.2l0,1.7c-1,-0.9 -2.3,-1.3 -3.9,-1.3c-0.9,0 -1.7,0.2 -2.4,0.6c-0.7,0.4 -1.3,0.9 -1.7,1.6c-0.4,0.7 -0.6,1.5 -0.6,2.4c0,0.9 0.2,1.7 0.6,2.4c0.4,0.7 1,1.2 1.7,1.6c0.7,0.4 1.5,0.6 2.4,0.6c0.8,0 1.6,-0.1 2.3,-0.3c0.7,-0.2 1.3,-0.6 1.8,-1.1l0,1.7c-1,0.8 -2.4,1.3 -4.2,1.3c-1.3,0.2 -2.4,-0.1 -3.4,-0.6z" class="st3"/>
    <path id="svg_5" fill="#ffffff" d="m56.7,144.5l1.7,0l0,1.5c0.3,-0.5 0.8,-0.9 1.4,-1.1c0.6,-0.2 1.3,-0.4 2.2,-0.4l0,1.3c-0.9,0 -1.6,0.1 -2.2,0.4s-1.1,0.7 -1.3,1.3l0,5l-1.7,0l0,-8l-0.1,0z" class="st3"/>
    <path id="svg_6" fill="#ffffff" d="m65.1,152.4c-0.7,-0.3 -1.2,-0.8 -1.6,-1.5c-0.4,-0.7 -0.6,-1.4 -0.6,-2.3c0,-0.9 0.2,-1.6 0.6,-2.3c0.4,-0.7 0.9,-1.2 1.6,-1.5c0.7,-0.4 1.5,-0.5 2.4,-0.5s1.7,0.2 2.4,0.5c0.7,0.4 1.2,0.9 1.6,1.5c0.4,0.7 0.6,1.4 0.6,2.3c0,0.9 -0.2,1.7 -0.6,2.3c-0.4,0.7 -0.9,1.2 -1.6,1.5s-1.5,0.5 -2.4,0.5s-1.7,-0.2 -2.4,-0.5zm4.5,-1.7c0.5,-0.5 0.8,-1.3 0.8,-2.1c0,-0.9 -0.3,-1.6 -0.8,-2.2c-0.5,-0.5 -1.2,-0.8 -2.1,-0.8c-0.9,0 -1.6,0.3 -2.1,0.8c-0.5,0.5 -0.8,1.3 -0.8,2.2c0,0.9 0.3,1.6 0.8,2.1s1.2,0.8 2.1,0.8c0.9,0 1.6,-0.3 2.1,-0.8z" class="st3"/>
    <path id="svg_7" fill="#ffffff" d="m74.1,144.5l1.7,0l0,1.2c0.4,-0.5 0.9,-0.8 1.4,-1.1s1.1,-0.3 1.8,-0.3c1.1,0 1.9,0.3 2.4,0.9s0.8,1.4 0.8,2.3l0,5.2l-1.7,0l0,-5c0,-1.3 -0.6,-2 -1.9,-2c-0.5,0 -1.1,0.1 -1.5,0.4c-0.5,0.3 -0.9,0.6 -1.2,1.2l0,5.5l-1.7,0l0,-8.3l-0.1,0z" class="st3"/>
    <path id="svg_8" fill="#ffffff" d="m85.9,152.4c-0.7,-0.3 -1.2,-0.8 -1.6,-1.5c-0.4,-0.7 -0.6,-1.4 -0.6,-2.3c0,-0.9 0.2,-1.6 0.6,-2.3c0.4,-0.7 0.9,-1.2 1.6,-1.5c0.7,-0.4 1.5,-0.5 2.4,-0.5s1.7,0.2 2.4,0.5c0.7,0.4 1.2,0.9 1.6,1.5c0.4,0.7 0.6,1.4 0.6,2.3c0,0.9 -0.2,1.7 -0.6,2.3c-0.4,0.7 -0.9,1.2 -1.6,1.5s-1.5,0.5 -2.4,0.5s-1.7,-0.2 -2.4,-0.5zm4.5,-1.7c0.5,-0.5 0.8,-1.3 0.8,-2.1c0,-0.9 -0.3,-1.6 -0.8,-2.2c-0.5,-0.5 -1.2,-0.8 -2.1,-0.8c-0.9,0 -1.6,0.3 -2.1,0.8c-0.5,0.5 -0.8,1.3 -0.8,2.2c0,0.9 0.3,1.6 0.8,2.1s1.2,0.8 2.1,0.8c0.9,0 1.6,-0.3 2.1,-0.8z" class="st3"/>
    <path id="svg_9" fill="#ffffff" d="m97.5,156.4c-0.5,-0.1 -1,-0.2 -1.3,-0.4l0,-1.4c0.9,0.4 1.8,0.6 3,0.6c1.1,0 1.8,-0.2 2.3,-0.7c0.5,-0.5 0.7,-1.2 0.7,-2.1l0,-0.9c-0.7,0.9 -1.8,1.3 -3.3,1.3c-0.8,0 -1.6,-0.2 -2.2,-0.5s-1.2,-0.9 -1.5,-1.5c-0.4,-0.7 -0.6,-1.4 -0.6,-2.3c0,-0.9 0.2,-1.6 0.6,-2.3c0.4,-0.7 0.9,-1.2 1.5,-1.5c0.7,-0.4 1.4,-0.5 2.2,-0.5c0.8,0 1.4,0.1 1.9,0.3c0.5,0.2 1,0.6 1.5,1.1l0,-1.2l1.7,0l0,7.8c0,1.4 -0.4,2.5 -1.2,3.2c-0.8,0.7 -2,1.1 -3.6,1.1c-0.7,0 -1.2,0 -1.7,-0.1zm3.5,-5.4c0.5,-0.4 0.9,-0.9 1.1,-1.5l0,-1.8c-0.2,-0.6 -0.6,-1.1 -1.1,-1.5c-0.5,-0.4 -1.1,-0.5 -1.8,-0.5c-0.6,0 -1.1,0.1 -1.5,0.4c-0.4,0.2 -0.8,0.6 -1.1,1c-0.3,0.5 -0.4,1 -0.4,1.5c0,0.6 0.1,1.1 0.4,1.6c0.3,0.4 0.6,0.8 1.1,1c0.4,0.2 0.9,0.4 1.5,0.4c0.7,-0.1 1.3,-0.3 1.8,-0.6z" class="st3"/>
    <path id="svg_10" fill="#ffffff" d="m106.1,144.5l1.7,0l0,1.5c0.3,-0.5 0.8,-0.9 1.4,-1.1c0.6,-0.2 1.3,-0.4 2.2,-0.4l0,1.3c-0.9,0 -1.6,0.1 -2.2,0.4c-0.6,0.3 -1.1,0.7 -1.3,1.3l0,5l-1.7,0l0,-8l-0.1,0z" class="st3"/>
    <path id="svg_11" fill="#ffffff" d="m112.6,152.1c-0.6,-0.5 -0.9,-1.2 -0.9,-2c0,-0.9 0.3,-1.6 0.9,-2.1s1.4,-0.7 2.4,-0.7c1.1,0 2.1,0.2 2.9,0.7l0,-0.4c0,-0.6 -0.2,-1.1 -0.6,-1.4s-1,-0.5 -1.8,-0.5c-0.5,0 -1,0 -1.5,0.1c-0.5,0.1 -0.9,0.2 -1.3,0.4l0,-1.4c0.3,-0.2 0.8,-0.3 1.3,-0.4c0.5,-0.1 1.1,-0.1 1.6,-0.1c1.3,0 2.3,0.3 3,0.9s1,1.4 1,2.5l0,5l-1.6,0l0,-0.9c-0.4,0.4 -0.8,0.7 -1.2,0.9c-0.5,0.2 -1.1,0.3 -1.8,0.3c-1,-0.1 -1.8,-0.4 -2.4,-0.9zm4.3,-0.9c0.4,-0.2 0.8,-0.5 1,-0.9l0,-1.1c-0.7,-0.5 -1.6,-0.7 -2.5,-0.7c-0.7,0 -1.1,0.1 -1.5,0.4c-0.3,0.3 -0.5,0.6 -0.5,1.2c0,1 0.7,1.5 2,1.5c0.6,0 1.1,-0.1 1.5,-0.4z" class="st3"/>
    <path id="svg_12" fill="#ffffff" d="m121.7,144.5l1.6,0l0,1.2c0.4,-0.5 0.8,-0.8 1.3,-1.1c0.5,-0.2 1,-0.4 1.5,-0.4c0.7,0 1.2,0.1 1.6,0.3c0.4,0.2 0.7,0.6 0.8,1c0.4,-0.4 0.8,-0.8 1.3,-1s1.1,-0.3 1.6,-0.3c1,0 1.7,0.3 2.2,0.8c0.4,0.5 0.7,1.2 0.7,2.2l0,5.4l-1.7,0l0,-5.2c0,-0.7 -0.1,-1.1 -0.4,-1.4c-0.2,-0.3 -0.7,-0.4 -1.3,-0.4c-0.9,0 -1.6,0.4 -2.1,1.1c0,0.2 0,0.4 0,0.8l0,5.1l-1.7,0l0,-5.2c0,-0.7 -0.1,-1.1 -0.3,-1.4c-0.2,-0.3 -0.6,-0.4 -1.2,-0.4c-0.9,0 -1.6,0.5 -2.3,1.5l0,5.6l-1.7,0l0,-8.2l0.1,0z" class="st3"/>
    <path id="svg_13" fill="#ffffff" d="m136.8,152.1c-0.6,-0.5 -0.9,-1.2 -0.9,-2c0,-0.9 0.3,-1.6 0.9,-2.1s1.4,-0.7 2.4,-0.7c1.1,0 2.1,0.2 2.9,0.7l0,-0.4c0,-0.6 -0.2,-1.1 -0.6,-1.4s-1,-0.5 -1.8,-0.5c-0.5,0 -1,0 -1.5,0.1c-0.5,0.1 -0.9,0.2 -1.3,0.4l0,-1.4c0.3,-0.2 0.8,-0.3 1.3,-0.4c0.5,-0.1 1.1,-0.1 1.6,-0.1c1.3,0 2.3,0.3 3,0.9s1,1.4 1,2.5l0,5l-1.6,0l0,-0.9c-0.4,0.4 -0.8,0.7 -1.2,0.9c-0.5,0.2 -1.1,0.3 -1.8,0.3c-1,-0.1 -1.8,-0.4 -2.4,-0.9zm4.3,-0.9c0.4,-0.2 0.8,-0.5 1,-0.9l0,-1.1c-0.7,-0.5 -1.6,-0.7 -2.5,-0.7c-0.7,0 -1.1,0.1 -1.5,0.4c-0.3,0.3 -0.5,0.6 -0.5,1.2c0,1 0.7,1.5 2,1.5c0.5,0 1,-0.1 1.5,-0.4z" class="st3"/>
   </g>
   <g id="svg_14">
    <circle id="svg_15" fill="#003264" r="32.9" cy="85.1" cx="94.2" class="st4"/>
   </g>
   <g id="svg_16">
    <path id="svg_17" fill="#fefefe" d="m111.7,90l-18.1,0c-1.4,0 -2.5,-1.1 -2.5,-2.5l0,-20.3c0,-1.4 1.1,-2.5 2.5,-2.5s2.5,1.1 2.5,2.5l0,17.8l15.6,0c1.4,0 2.5,1.1 2.5,2.5s-1.2,2.5 -2.5,2.5z" class="st5"/>
   </g>
  </g>
  <text xml:space="preserve" text-anchor="start" font-family="Noto Sans JP" font-size="24" stroke-width="0" id="svg_19" y="157.1221" x="59.99303" fill="#003264">Bonos</text>
 </g>
</svg>