<?xml version="1.0" encoding="utf-8"?>
<!-- Generator: Adobe Illustrator 24.0.1, SVG Export Plug-In . SVG Version: 6.00 Build 0)  -->
<svg version="1.1" id="Capa_1" xmlns="http://www.w3.org/2000/svg" xmlns:xlink="http://www.w3.org/1999/xlink" x="0px" y="0px"
	 viewBox="0 0 188.49 188.49" style="enable-background:new 0 0 188.49 188.49;" xml:space="preserve">
<style type="text/css">
	.st0{fill:none;stroke:#003264;stroke-width:0.25;stroke-miterlimit:10;}
	.st1{fill:#003264;}
	.st2{fill:#FFFFFF;}
</style>
<rect x="3.8" y="3.8" class="st0" width="180.88" height="180.88"/>
<g>
	<path class="st1" d="M80.63,144.97h-3.69v-1.46h9.13v1.46h-3.69v10.42h-1.75V144.97z"/>
	<path class="st1" d="M86.59,154.52c-0.86-0.75-1.28-1.82-1.28-3.19c0-1.34,0.38-2.4,1.15-3.18s1.86-1.17,3.27-1.17
		c0.94,0,1.74,0.18,2.4,0.54c0.66,0.36,1.15,0.85,1.49,1.48s0.5,1.35,0.5,2.15v0.85h-7.17c0.06,0.77,0.38,1.35,0.98,1.73
		c0.6,0.38,1.4,0.57,2.42,0.57c0.52,0,1.05-0.05,1.58-0.14c0.53-0.1,1-0.22,1.41-0.38v1.38c-0.36,0.15-0.84,0.27-1.44,0.37
		c-0.6,0.1-1.18,0.14-1.76,0.14C88.63,155.65,87.45,155.27,86.59,154.52z M92.5,150.79c-0.02-0.77-0.27-1.37-0.76-1.79
		c-0.48-0.42-1.16-0.64-2.05-0.64c-0.86,0-1.53,0.22-2.01,0.66s-0.73,1.03-0.75,1.77H92.5z"/>
	<path class="st1" d="M97.19,155.44c-0.63-0.14-1.13-0.33-1.5-0.57v-1.46c0.44,0.26,0.95,0.47,1.53,0.64
		c0.58,0.16,1.14,0.25,1.68,0.25c0.61,0,1.06-0.07,1.34-0.22c0.28-0.15,0.42-0.38,0.42-0.71c0-0.25-0.07-0.45-0.2-0.6
		c-0.13-0.15-0.35-0.29-0.66-0.42c-0.31-0.12-0.78-0.27-1.4-0.44c-0.67-0.19-1.2-0.39-1.59-0.59c-0.39-0.2-0.69-0.45-0.88-0.76
		c-0.2-0.31-0.3-0.7-0.3-1.19c0-0.78,0.31-1.37,0.93-1.78s1.45-0.6,2.49-0.6c0.54,0,1.08,0.05,1.6,0.15
		c0.52,0.1,0.94,0.24,1.26,0.42v1.43c-0.33-0.19-0.73-0.35-1.22-0.46c-0.48-0.11-0.97-0.17-1.47-0.17c-0.6,0-1.06,0.07-1.38,0.22
		c-0.32,0.15-0.48,0.41-0.48,0.78c0,0.24,0.07,0.43,0.2,0.58c0.14,0.15,0.35,0.28,0.65,0.38s0.78,0.25,1.44,0.42
		c1.03,0.28,1.75,0.62,2.15,1c0.4,0.39,0.6,0.92,0.6,1.6c0,0.7-0.29,1.26-0.87,1.68c-0.58,0.42-1.43,0.63-2.57,0.63
		C98.43,155.65,97.83,155.58,97.19,155.44z"/>
	<path class="st1" d="M105.28,154.94c-0.45-0.48-0.67-1.15-0.67-2.02v-4.35h-1.24v-1.33h1.24v-2.45h1.73v2.45h2.01v1.33h-2.01v4.23
		c0,0.54,0.1,0.93,0.31,1.16c0.21,0.23,0.59,0.34,1.15,0.34c0.33,0,0.66-0.07,0.99-0.22v1.36c-0.43,0.15-0.96,0.22-1.6,0.22
		C106.36,155.65,105.72,155.41,105.28,154.94z"/>
</g>
<g>
	<g>
		<rect x="69.07" y="57.53" class="st1" width="50.34" height="67.39"/>
	</g>
	<g>
		<path class="st2" d="M108.92,73.09H79.33c-1.05,0-1.91-0.86-1.91-1.91v0c0-1.05,0.86-1.91,1.91-1.91h29.58
			c1.05,0,1.91,0.86,1.91,1.91v0C110.83,72.24,109.97,73.09,108.92,73.09z"/>
		<path d="M108.92,73.17H79.33c-1.09,0-1.98-0.89-1.98-1.98s0.89-1.98,1.98-1.98h29.58c1.09,0,1.98,0.89,1.98,1.98
			S110.01,73.17,108.92,73.17z M79.33,69.35c-1.01,0-1.83,0.82-1.83,1.83s0.82,1.83,1.83,1.83h29.58c1.01,0,1.83-0.82,1.83-1.83
			s-0.82-1.83-1.83-1.83H79.33z"/>
	</g>
	<g>
		<path class="st2" d="M108.92,80.89H79.33c-1.05,0-1.91-0.86-1.91-1.91l0,0c0-1.05,0.86-1.91,1.91-1.91h29.58
			c1.05,0,1.91,0.86,1.91,1.91l0,0C110.83,80.03,109.97,80.89,108.92,80.89z"/>
		<path d="M108.92,80.96H79.33c-1.09,0-1.98-0.89-1.98-1.98S78.24,77,79.33,77h29.58c1.09,0,1.98,0.89,1.98,1.98
			S110.01,80.96,108.92,80.96z M79.33,77.15c-1.01,0-1.83,0.82-1.83,1.83s0.82,1.83,1.83,1.83h29.58c1.01,0,1.83-0.82,1.83-1.83
			s-0.82-1.83-1.83-1.83H79.33z"/>
	</g>
	<g>
		<path class="st2" d="M108.92,88.68H79.33c-1.05,0-1.91-0.86-1.91-1.91v0c0-1.05,0.86-1.91,1.91-1.91h29.58
			c1.05,0,1.91,0.86,1.91,1.91v0C110.83,87.82,109.97,88.68,108.92,88.68z"/>
		<path d="M108.92,88.76H79.33c-1.09,0-1.98-0.89-1.98-1.98s0.89-1.98,1.98-1.98h29.58c1.09,0,1.98,0.89,1.98,1.98
			S110.01,88.76,108.92,88.76z M79.33,84.94c-1.01,0-1.83,0.82-1.83,1.83c0,1.01,0.82,1.83,1.83,1.83h29.58
			c1.01,0,1.83-0.82,1.83-1.83c0-1.01-0.82-1.83-1.83-1.83H79.33z"/>
	</g>
	<g>
		<path class="st2" d="M108.92,96.48H79.33c-1.05,0-1.91-0.86-1.91-1.91v0c0-1.05,0.86-1.91,1.91-1.91h29.58
			c1.05,0,1.91,0.86,1.91,1.91v0C110.83,95.62,109.97,96.48,108.92,96.48z"/>
		<path d="M108.92,96.55H79.33c-1.09,0-1.98-0.89-1.98-1.98s0.89-1.98,1.98-1.98h29.58c1.09,0,1.98,0.89,1.98,1.98
			S110.01,96.55,108.92,96.55z M79.33,92.73c-1.01,0-1.83,0.82-1.83,1.83s0.82,1.83,1.83,1.83h29.58c1.01,0,1.83-0.82,1.83-1.83
			s-0.82-1.83-1.83-1.83H79.33z"/>
	</g>
	<g>
		<path class="st2" d="M108.92,104.27H98.57c-1.05,0-1.91-0.86-1.91-1.91l0,0c0-1.05,0.86-1.91,1.91-1.91h10.35
			c1.05,0,1.91,0.86,1.91,1.91l0,0C110.83,103.41,109.97,104.27,108.92,104.27z"/>
		<path d="M108.92,104.34H98.57c-1.09,0-1.98-0.89-1.98-1.98s0.89-1.98,1.98-1.98h10.35c1.09,0,1.98,0.89,1.98,1.98
			S110.01,104.34,108.92,104.34z M98.57,100.53c-1.01,0-1.83,0.82-1.83,1.83s0.82,1.83,1.83,1.83h10.35c1.01,0,1.83-0.82,1.83-1.83
			s-0.82-1.83-1.83-1.83H98.57z"/>
	</g>
</g>
</svg>
