<?xml version="1.0" encoding="utf-8"?>
<!-- Generator: Adobe Illustrator 24.0.1, SVG Export Plug-In . SVG Version: 6.00 Build 0)  -->
<svg version="1.1" id="Capa_1" xmlns="http://www.w3.org/2000/svg" xmlns:xlink="http://www.w3.org/1999/xlink" x="0px" y="0px"
	 viewBox="0 0 188.49 188.49" style="enable-background:new 0 0 188.49 188.49;" xml:space="preserve">
<style type="text/css">
	.st0{fill:none;stroke:#003264;stroke-width:0.25;stroke-miterlimit:10;}
	.st1{fill:#003264;}
	.st2{fill:#FFFFFF;}
	.st3{fill-rule:evenodd;clip-rule:evenodd;fill:#FFFFFF;}
	.st4{fill-rule:evenodd;clip-rule:evenodd;fill:#003264;}
</style>
<rect x="3.8" y="3.8" class="st0" width="180.88" height="180.88"/>
<g>
	<g>
		<path class="st1" d="M47.11,141.32c-0.95-0.51-1.69-1.23-2.23-2.17c-0.53-0.93-0.8-2.02-0.8-3.25s0.27-2.32,0.8-3.26
			c0.53-0.94,1.27-1.67,2.23-2.18s2.04-0.76,3.26-0.76c1.63,0,3,0.41,4.1,1.24v1.67c-0.99-0.87-2.3-1.31-3.94-1.31
			c-0.92,0-1.73,0.19-2.44,0.56c-0.71,0.37-1.26,0.91-1.66,1.61c-0.4,0.7-0.59,1.51-0.59,2.44c0,0.93,0.2,1.75,0.6,2.45
			c0.4,0.7,0.96,1.24,1.67,1.62c0.71,0.37,1.52,0.56,2.42,0.56c0.84,0,1.59-0.11,2.25-0.33s1.28-0.58,1.84-1.06v1.68
			c-1.02,0.85-2.44,1.27-4.25,1.27C49.15,142.09,48.06,141.83,47.11,141.32z"/>
		<path class="st1" d="M57.95,141.57c-0.7-0.35-1.24-0.84-1.63-1.5c-0.39-0.65-0.59-1.42-0.59-2.3c0-0.87,0.19-1.64,0.58-2.29
			c0.39-0.66,0.93-1.16,1.63-1.52c0.7-0.36,1.51-0.54,2.43-0.54c0.92,0,1.73,0.18,2.43,0.54c0.7,0.36,1.25,0.86,1.64,1.52
			c0.39,0.66,0.59,1.42,0.59,2.29c0,0.88-0.2,1.65-0.59,2.3c-0.39,0.65-0.94,1.15-1.64,1.5s-1.51,0.52-2.43,0.52
			C59.45,142.09,58.65,141.92,57.95,141.57z M62.48,139.91c0.52-0.54,0.78-1.26,0.78-2.14c0-0.92-0.26-1.64-0.78-2.18
			c-0.52-0.53-1.22-0.8-2.11-0.8c-0.88,0-1.59,0.27-2.11,0.8c-0.52,0.53-0.78,1.26-0.78,2.18c0,0.88,0.26,1.6,0.78,2.14
			s1.22,0.82,2.11,0.82C61.26,140.73,61.96,140.46,62.48,139.91z"/>
		<path class="st1" d="M66.9,133.67h1.67v1.17c0.39-0.49,0.86-0.85,1.42-1.08s1.15-0.35,1.76-0.35c1.09,0,1.9,0.29,2.43,0.87
			s0.8,1.35,0.8,2.33v5.22h-1.72v-5.05c0-1.33-0.63-1.99-1.9-1.99c-0.54,0-1.05,0.13-1.52,0.38c-0.47,0.25-0.88,0.64-1.22,1.16v5.49
			H66.9V133.67z"/>
		<path class="st1" d="M78.33,141.37c-0.45-0.48-0.67-1.15-0.67-2.02V135h-1.24v-1.33h1.24v-2.45h1.73v2.45h2.01V135h-2.01v4.23
			c0,0.54,0.1,0.93,0.31,1.16c0.21,0.23,0.59,0.34,1.15,0.34c0.33,0,0.66-0.07,0.99-0.22v1.36c-0.43,0.15-0.96,0.22-1.6,0.22
			C79.42,142.09,78.78,141.85,78.33,141.37z"/>
		<path class="st1" d="M83.76,141.33c-0.6-0.5-0.89-1.19-0.89-2.05c0-0.91,0.29-1.61,0.86-2.1s1.39-0.74,2.44-0.74
			c1.12,0,2.07,0.23,2.86,0.68v-0.42c0-0.65-0.2-1.12-0.59-1.44s-1.01-0.47-1.84-0.47c-0.5,0-0.98,0.05-1.45,0.14
			c-0.47,0.1-0.89,0.23-1.27,0.4v-1.39c0.34-0.16,0.78-0.29,1.33-0.38c0.54-0.1,1.07-0.14,1.58-0.14c1.35,0,2.35,0.3,3,0.89
			s0.98,1.42,0.98,2.47v5.05h-1.61v-0.92c-0.35,0.39-0.77,0.68-1.25,0.88c-0.48,0.2-1.07,0.3-1.76,0.3
			C85.14,142.09,84.35,141.84,83.76,141.33z M88.03,140.46c0.44-0.21,0.77-0.52,0.99-0.9v-1.1c-0.74-0.48-1.56-0.71-2.46-0.71
			c-0.66,0-1.15,0.13-1.47,0.38c-0.32,0.25-0.48,0.64-0.48,1.17c0,1,0.65,1.5,1.96,1.5C87.1,140.78,87.59,140.67,88.03,140.46z
			 M87.28,129.83h1.82l-1.41,2.92h-1.56L87.28,129.83z"/>
		<path class="st1" d="M94.42,141.58c-0.7-0.34-1.25-0.84-1.64-1.49c-0.39-0.65-0.59-1.43-0.59-2.32c0-0.89,0.2-1.67,0.59-2.32
			c0.39-0.65,0.94-1.15,1.65-1.5c0.71-0.35,1.52-0.53,2.44-0.53c1.25,0,2.24,0.24,2.99,0.73v1.41c-0.74-0.51-1.68-0.76-2.82-0.76
			c-0.93,0-1.68,0.25-2.25,0.76c-0.57,0.5-0.86,1.24-0.86,2.22c0,0.98,0.28,1.71,0.85,2.21c0.57,0.5,1.31,0.75,2.23,0.75
			c1.14,0,2.13-0.27,2.96-0.82v1.39c-0.4,0.27-0.85,0.47-1.35,0.6c-0.5,0.12-1.1,0.19-1.78,0.19
			C95.93,142.09,95.12,141.92,94.42,141.58z"/>
		<path class="st1" d="M103.07,141.37c-0.45-0.48-0.67-1.15-0.67-2.02V135h-1.24v-1.33h1.24v-2.45h1.73v2.45h2.01V135h-2.01v4.23
			c0,0.54,0.1,0.93,0.31,1.16c0.21,0.23,0.59,0.34,1.15,0.34c0.33,0,0.66-0.07,0.99-0.22v1.36c-0.43,0.15-0.96,0.22-1.6,0.22
			C104.15,142.09,103.51,141.85,103.07,141.37z"/>
		<path class="st1" d="M108.49,141.33c-0.6-0.5-0.89-1.19-0.89-2.05c0-0.91,0.29-1.61,0.86-2.1s1.38-0.74,2.44-0.74
			c1.12,0,2.07,0.23,2.86,0.68v-0.42c0-0.65-0.2-1.12-0.59-1.44c-0.39-0.31-1.01-0.47-1.84-0.47c-0.5,0-0.98,0.05-1.45,0.14
			c-0.47,0.1-0.89,0.23-1.27,0.4v-1.39c0.34-0.16,0.78-0.29,1.33-0.38c0.54-0.1,1.07-0.14,1.58-0.14c1.35,0,2.35,0.3,3,0.89
			c0.65,0.59,0.98,1.42,0.98,2.47v5.05h-1.62v-0.92c-0.35,0.39-0.77,0.68-1.25,0.88c-0.48,0.2-1.07,0.3-1.76,0.3
			C109.87,142.09,109.08,141.84,108.49,141.33z M112.77,140.46c0.44-0.21,0.77-0.52,0.99-0.9v-1.1c-0.74-0.48-1.56-0.71-2.46-0.71
			c-0.66,0-1.15,0.13-1.47,0.38c-0.32,0.25-0.48,0.64-0.48,1.17c0,1,0.65,1.5,1.96,1.5C111.83,140.78,112.32,140.67,112.77,140.46z"
			/>
		<path class="st1" d="M117.61,133.67h1.67v1.17c0.38-0.49,0.86-0.85,1.42-1.08c0.56-0.23,1.15-0.35,1.76-0.35
			c1.09,0,1.9,0.29,2.43,0.87c0.53,0.58,0.8,1.35,0.8,2.33v5.22h-1.72v-5.05c0-1.33-0.63-1.99-1.9-1.99c-0.54,0-1.05,0.13-1.52,0.38
			c-0.47,0.25-0.88,0.64-1.22,1.16v5.49h-1.72V133.67z"/>
		<path class="st1" d="M129.43,141.57c-0.7-0.35-1.24-0.84-1.63-1.5c-0.39-0.65-0.59-1.42-0.59-2.3c0-0.87,0.19-1.64,0.58-2.29
			c0.38-0.66,0.93-1.16,1.63-1.52c0.7-0.36,1.51-0.54,2.43-0.54c0.92,0,1.73,0.18,2.43,0.54c0.7,0.36,1.25,0.86,1.64,1.52
			c0.39,0.66,0.59,1.42,0.59,2.29c0,0.88-0.2,1.65-0.59,2.3c-0.39,0.65-0.94,1.15-1.64,1.5c-0.7,0.35-1.51,0.52-2.43,0.52
			C130.94,142.09,130.13,141.92,129.43,141.57z M133.96,139.91c0.52-0.54,0.78-1.26,0.78-2.14c0-0.92-0.26-1.64-0.78-2.18
			c-0.52-0.53-1.22-0.8-2.11-0.8c-0.88,0-1.59,0.27-2.11,0.8c-0.52,0.53-0.78,1.26-0.78,2.18c0,0.88,0.26,1.6,0.78,2.14
			s1.22,0.82,2.11,0.82C132.74,140.73,133.44,140.46,133.96,139.91z"/>
		<path class="st1" d="M139.17,141.88c-0.63-0.14-1.13-0.33-1.5-0.57v-1.46c0.44,0.26,0.95,0.47,1.53,0.64
			c0.58,0.16,1.14,0.25,1.68,0.25c0.61,0,1.06-0.07,1.34-0.22s0.42-0.38,0.42-0.71c0-0.25-0.07-0.45-0.2-0.6s-0.35-0.29-0.66-0.42
			c-0.31-0.12-0.78-0.27-1.4-0.44c-0.67-0.19-1.2-0.39-1.59-0.59c-0.39-0.2-0.69-0.45-0.88-0.76c-0.2-0.31-0.3-0.7-0.3-1.19
			c0-0.78,0.31-1.37,0.93-1.78c0.62-0.4,1.45-0.6,2.49-0.6c0.54,0,1.08,0.05,1.6,0.15c0.52,0.1,0.94,0.24,1.26,0.42v1.43
			c-0.33-0.19-0.73-0.35-1.22-0.46c-0.48-0.11-0.97-0.17-1.47-0.17c-0.6,0-1.06,0.07-1.38,0.22c-0.32,0.15-0.48,0.41-0.48,0.78
			c0,0.24,0.07,0.43,0.2,0.58s0.35,0.28,0.65,0.38c0.3,0.11,0.78,0.25,1.44,0.42c1.03,0.28,1.75,0.62,2.15,1
			c0.4,0.39,0.6,0.92,0.6,1.6c0,0.7-0.29,1.26-0.87,1.68c-0.58,0.42-1.43,0.63-2.57,0.63C140.4,142.09,139.8,142.02,139.17,141.88z"
			/>
	</g>
	<g>
		<g>
			<path class="st1" d="M89.59,67.01c0,7.3-5.61,13.3-12.73,13.87c-0.39,0.07-0.79,0.07-1.18,0.07c-1.04,0-2.05-0.1-3.02-0.32
				c-6.26-1.41-10.93-6.98-10.93-13.62c0-7.69,6.26-13.91,13.95-13.91C83.37,53.1,89.59,59.32,89.59,67.01z"/>
			<g>
				<path class="st2" d="M77.26,64.1c0.21-0.25,0.65-0.43,1.26-0.43c0.57,0,1.26,0.08,1.9,0.26L80.97,61
					c-1.11-0.39-2.26-0.5-3.45-0.5c-1.19,0-2.12,0.18-2.88,0.61c-0.76,0.43-1.26,0.9-1.55,1.59c-0.29,0.6-0.43,1.65-0.43,2.94v1.15
					h-2.3v3.34h2.3v10.5c0.97,0.21,1.98,0.32,3.02,0.32c0.39,0,0.79,0,1.18-0.07V70.14h3.05v-3.34h-3.05v-1.08
					C76.87,64.89,76.98,64.38,77.26,64.1z"/>
			</g>
			<path class="st1" d="M122.61,67c0,7.7-6.24,13.93-13.94,13.93c-7.69,0-13.93-6.23-13.93-13.93c0-7.69,6.23-13.93,13.93-13.93
				C116.37,53.07,122.61,59.31,122.61,67z"/>
			<g>
				<path class="st3" d="M116.94,65.01c-0.92-3.86-4.25-6.49-8.26-6.54c-0.53,0.03-1.1,0.06-1.62,0.17
					c-5.63,1.12-8.52,7.34-5.8,12.34c0.1,0.14,0.1,0.27,0.08,0.42c-0.4,1.29-0.76,2.62-1.11,3.93c-0.06,0.23-0.06,0.23,0.16,0.17
					c1.37-0.38,2.73-0.72,4.1-1.07c0.12-0.03,0.2-0.03,0.31,0.02c1.76,0.9,3.62,1.14,5.56,0.79C115,74.34,118.05,69.6,116.94,65.01z
					 M109.87,73.88c-0.41,0.08-0.79,0.11-0.98,0.08c-1.5,0-2.7-0.33-3.82-0.98c-0.16-0.1-0.28-0.12-0.43-0.07
					c-0.77,0.19-1.51,0.4-2.27,0.59c-0.16,0.05-0.17,0.02-0.14-0.14c0.2-0.69,0.39-1.41,0.61-2.14c0.05-0.19,0.04-0.34-0.09-0.51
					c-1.54-2.49-1.47-5.58,0.25-7.89c1.79-2.39,4.25-3.38,7.16-2.76c2.88,0.6,4.72,2.48,5.38,5.34
					C116.48,69.33,113.83,73.23,109.87,73.88z"/>
				<path class="st3" d="M110.89,70.97c-0.3,0.03-0.59-0.03-0.88-0.12c-1.94-0.56-3.41-1.75-4.58-3.37
					c-0.44-0.6-0.86-1.24-0.98-1.99c-0.18-0.88,0.1-1.66,0.76-2.27c0.22-0.21,0.87-0.31,1.13-0.17c0.08,0.07,0.13,0.14,0.19,0.23
					c0.24,0.6,0.5,1.16,0.74,1.73c0.04,0.12,0.03,0.24-0.04,0.36c-0.13,0.27-0.33,0.48-0.52,0.7c-0.16,0.14-0.16,0.3-0.05,0.47
					c0.69,1.16,1.63,1.99,2.89,2.48c0.18,0.08,0.32,0.05,0.44-0.1c0.22-0.25,0.43-0.53,0.63-0.79c0.12-0.17,0.29-0.19,0.47-0.12
					c0.42,0.19,0.82,0.38,1.22,0.56c0.11,0.06,0.19,0.1,0.29,0.13c0.42,0.21,0.42,0.24,0.37,0.69c-0.06,0.89-0.73,1.34-1.51,1.55
					C111.25,71,111.08,71,110.89,70.97z"/>
			</g>
		</g>
		<g>
			<path class="st1" d="M89.59,98.83c0,7.69-6.24,13.93-13.93,13.93c-7.7,0-13.93-6.24-13.93-13.93c0-7.71,6.23-13.94,13.93-13.94
				C83.35,84.89,89.59,91.13,89.59,98.83z"/>
			<path class="st1" d="M123.28,98.75c0,7.69-6.23,13.93-13.93,13.93c-7.69,0-13.93-6.24-13.93-13.93s6.24-13.94,13.93-13.94
				C117.04,84.81,123.28,91.06,123.28,98.75z"/>
			<g>
				<path class="st3" d="M114.89,91.23c-3.69,0-7.39,0-11.08,0c-1.32,0-2,0.69-2,2.01c0,1.82,0,3.66,0,5.51c0,1.83,0,3.69,0,5.55
					c0,1.27,0.7,1.97,1.93,1.97c3.73,0,7.43,0,11.14,0c1.29,0,1.99-0.7,1.99-1.99c0-3.69,0-7.38,0-11.08
					C116.88,91.92,116.17,91.23,114.89,91.23z M113.67,92.93c1.49,0,1.49,0,1.49,1.49c0,1.46,0,1.46-1.47,1.46
					c-1.48,0-1.48,0-1.48-1.48C112.21,92.93,112.21,92.93,113.67,92.93z M109.36,95.83c1.57,0,2.92,1.36,2.9,2.92
					c-0.01,1.6-1.35,2.93-2.95,2.91c-1.58-0.04-2.92-1.37-2.88-2.95C106.46,97.13,107.78,95.83,109.36,95.83z M115.16,103.66
					c-0.01,0.7-0.19,0.9-0.9,0.9c-1.64,0-3.29,0-4.93,0c-1.63,0-3.27,0-4.91,0c-0.69,0-0.88-0.2-0.88-0.9
					c0-1.81,0.01-3.65-0.03-5.48c0-0.52,0.14-0.64,0.62-0.62c0.69,0.05,0.7,0.02,0.62,0.69c-0.27,2.33,1.34,4.58,3.64,5.03
					c2.36,0.45,4.73-0.96,5.38-3.23c0.19-0.71,0.25-1.46,0.1-2.16c-0.05-0.26,0.01-0.31,0.25-0.31c1.04-0.08,1.04-0.1,1.04,0.98
					C115.16,100.24,115.16,101.96,115.16,103.66z"/>
			</g>
			<path class="st3" d="M82.1,103.75H69.22c-0.82,0-1.48-0.66-1.48-1.48v-7.2c0-0.82,0.66-1.48,1.48-1.48H82.1
				c0.82,0,1.48,0.66,1.48,1.48v7.2C83.58,103.09,82.91,103.75,82.1,103.75z"/>
			<polyline class="st4" points="73.54,95.88 78.67,98.83 73.54,101.78 			"/>
		</g>
	</g>
</g>
</svg>
