<?xml version="1.0" encoding="utf-8"?>
<!-- Generator: Adobe Illustrator 24.0.1, SVG Export Plug-In . SVG Version: 6.00 Build 0)  -->
<svg version="1.1" id="Capa_1" xmlns="http://www.w3.org/2000/svg" xmlns:xlink="http://www.w3.org/1999/xlink" x="0px" y="0px"
	 viewBox="0 0 188.49 188.49" style="enable-background:new 0 0 188.49 188.49;" xml:space="preserve">
<style type="text/css">
	.st0{fill:none;stroke:#003264;stroke-miterlimit:10;}
	.st1{fill:#003264;}
</style>
	<rect x="0.5" y="0.5" class="st0" width="187.3" height="187.3"/>
<g>
	<path class="st1" d="M63.12,121.49h1.65l6.05,8.96v-8.96h1.75v11.88H70.9l-6.05-8.96v8.96h-1.73V121.49z"/>
	<path class="st1" d="M76.66,133.11c-0.7-0.35-1.24-0.84-1.63-1.5c-0.39-0.65-0.59-1.42-0.59-2.3c0-0.87,0.19-1.64,0.58-2.29
		c0.39-0.66,0.93-1.16,1.63-1.52c0.7-0.36,1.51-0.54,2.43-0.54c0.92,0,1.73,0.18,2.43,0.54c0.7,0.36,1.25,0.86,1.64,1.52
		c0.39,0.66,0.59,1.42,0.59,2.29c0,0.88-0.2,1.65-0.59,2.3c-0.39,0.65-0.94,1.15-1.64,1.5s-1.51,0.52-2.43,0.52
		C78.16,133.63,77.35,133.45,76.66,133.11z M81.19,131.45c0.52-0.54,0.78-1.26,0.78-2.14c0-0.92-0.26-1.64-0.78-2.18
		c-0.52-0.53-1.22-0.8-2.11-0.8c-0.88,0-1.59,0.27-2.11,0.8c-0.52,0.53-0.78,1.26-0.78,2.18c0,0.88,0.26,1.6,0.78,2.14
		s1.22,0.82,2.11,0.82C79.96,132.27,80.67,132,81.19,131.45z"/>
	<path class="st1" d="M86.59,132.91c-0.45-0.48-0.67-1.15-0.67-2.02v-4.35h-1.24v-1.33h1.24v-2.45h1.73v2.45h2.01v1.33h-2.01v4.23
		c0,0.54,0.1,0.93,0.31,1.16c0.21,0.23,0.59,0.34,1.15,0.34c0.33,0,0.66-0.07,0.99-0.22v1.36c-0.43,0.15-0.96,0.22-1.6,0.22
		C87.67,133.63,87.03,133.39,86.59,132.91z"/>
	<path class="st1" d="M92,123.33c-0.19-0.19-0.29-0.43-0.29-0.71s0.1-0.52,0.29-0.71c0.19-0.19,0.43-0.29,0.71-0.29
		c0.29,0,0.54,0.1,0.74,0.29c0.2,0.19,0.3,0.43,0.3,0.71s-0.1,0.52-0.3,0.71c-0.2,0.19-0.45,0.29-0.74,0.29
		C92.43,123.62,92.19,123.52,92,123.33z M91.85,125.21h1.75v8.16h-1.75V125.21z"/>
	<path class="st1" d="M97.85,133.12c-0.7-0.34-1.25-0.84-1.64-1.49c-0.39-0.65-0.59-1.43-0.59-2.32c0-0.89,0.2-1.67,0.59-2.32
		c0.39-0.65,0.94-1.15,1.65-1.5c0.71-0.35,1.52-0.53,2.44-0.53c1.25,0,2.24,0.24,2.99,0.73v1.41c-0.74-0.51-1.68-0.76-2.82-0.76
		c-0.93,0-1.68,0.25-2.25,0.76c-0.57,0.5-0.86,1.24-0.86,2.22c0,0.98,0.28,1.71,0.85,2.21c0.57,0.5,1.31,0.75,2.23,0.75
		c1.14,0,2.13-0.27,2.96-0.82v1.39c-0.4,0.27-0.85,0.47-1.35,0.6c-0.5,0.12-1.1,0.19-1.78,0.19
		C99.35,133.63,98.55,133.46,97.85,133.12z"/>
	<path class="st1" d="M105.55,123.33c-0.19-0.19-0.29-0.43-0.29-0.71s0.1-0.52,0.29-0.71c0.19-0.19,0.43-0.29,0.71-0.29
		c0.29,0,0.54,0.1,0.74,0.29c0.2,0.19,0.3,0.43,0.3,0.71s-0.1,0.52-0.3,0.71c-0.2,0.19-0.45,0.29-0.74,0.29
		C105.98,123.62,105.74,123.52,105.55,123.33z M105.4,125.21h1.75v8.16h-1.75V125.21z"/>
	<path class="st1" d="M110.06,132.87c-0.6-0.5-0.89-1.19-0.89-2.05c0-0.91,0.29-1.61,0.86-2.1s1.39-0.74,2.44-0.74
		c1.12,0,2.07,0.23,2.86,0.68v-0.42c0-0.65-0.2-1.12-0.59-1.44s-1.01-0.47-1.84-0.47c-0.5,0-0.98,0.05-1.45,0.14
		c-0.47,0.1-0.89,0.23-1.27,0.4v-1.39c0.34-0.16,0.78-0.29,1.33-0.38c0.54-0.1,1.07-0.14,1.58-0.14c1.35,0,2.35,0.3,3,0.89
		s0.98,1.42,0.98,2.47v5.05h-1.61v-0.92c-0.35,0.39-0.77,0.68-1.25,0.88c-0.48,0.2-1.07,0.3-1.76,0.3
		C111.45,133.63,110.66,133.38,110.06,132.87z M114.34,132c0.44-0.21,0.77-0.52,0.99-0.9v-1.1c-0.74-0.48-1.56-0.71-2.46-0.71
		c-0.66,0-1.15,0.13-1.47,0.38c-0.32,0.25-0.48,0.64-0.48,1.17c0,1,0.65,1.5,1.96,1.5C113.4,132.32,113.9,132.21,114.34,132z"/>
	<path class="st1" d="M120.13,133.42c-0.63-0.14-1.13-0.33-1.5-0.57v-1.46c0.44,0.26,0.95,0.47,1.53,0.64
		c0.58,0.16,1.14,0.25,1.68,0.25c0.61,0,1.06-0.07,1.34-0.22c0.28-0.15,0.42-0.38,0.42-0.71c0-0.25-0.07-0.45-0.2-0.6
		c-0.13-0.15-0.35-0.29-0.66-0.42c-0.31-0.12-0.78-0.27-1.4-0.44c-0.67-0.19-1.2-0.39-1.59-0.59c-0.39-0.2-0.69-0.45-0.88-0.76
		c-0.2-0.31-0.3-0.7-0.3-1.19c0-0.78,0.31-1.37,0.93-1.78s1.45-0.6,2.49-0.6c0.54,0,1.08,0.05,1.6,0.15
		c0.52,0.1,0.94,0.24,1.26,0.42v1.43c-0.33-0.19-0.73-0.35-1.22-0.46c-0.48-0.11-0.97-0.17-1.47-0.17c-0.6,0-1.06,0.07-1.38,0.22
		c-0.32,0.15-0.48,0.41-0.48,0.78c0,0.24,0.07,0.43,0.2,0.58c0.14,0.15,0.35,0.28,0.65,0.38s0.78,0.25,1.44,0.42
		c1.03,0.28,1.75,0.62,2.15,1c0.4,0.39,0.6,0.92,0.6,1.6c0,0.7-0.29,1.26-0.87,1.68c-0.58,0.42-1.43,0.63-2.57,0.63
		C121.37,133.63,120.77,133.56,120.13,133.42z"/>
</g>
<g id="f8sFJy_2_">
	<g>
		<g>
			<path class="st1" d="M103.09,92.97c-7.04-1.26-14.05-1.25-21.09,0.01c-0.9-3.61-1.31-7.24-1.4-10.95c7.99,0,15.93,0,23.88,0
				C104.77,83.61,103.79,91.4,103.09,92.97z"/>
		</g>
		<g>
			<path class="st1" d="M103.21,69.14c0.7,2.29,1.47,8.55,1.3,10.58c-7.94,0-15.89,0-23.92,0c0.04-0.93,0.02-1.86,0.14-2.77
				c0.33-2.47,0.72-4.93,1.07-7.4c0.06-0.42,0.24-0.44,0.6-0.38c5.13,0.93,10.29,1.14,15.47,0.65c1.7-0.16,3.39-0.45,5.09-0.68
				C103.04,69.13,103.11,69.14,103.21,69.14z"/>
		</g>
		<g>
			<path class="st1" d="M82.5,66.94c0.68-2.29,1.49-4.45,2.71-6.41c0.74-1.18,1.55-2.34,2.51-3.33c3.03-3.14,6.7-3.1,9.76,0.01
				c2.15,2.19,3.46,4.87,4.51,7.7c0.24,0.64,0.44,1.3,0.69,2.03C95.92,68.14,89.24,68.14,82.5,66.94z"/>
		</g>
		<g>
			<path class="st1" d="M82.59,95.15c6.68-1.16,13.28-1.16,19.97,0.01c-0.2,0.6-0.38,1.16-0.58,1.71c-1.05,2.81-2.35,5.49-4.48,7.66
				c-0.48,0.49-1.02,0.93-1.59,1.31c-2.31,1.52-4.83,1.41-7.08-0.28c-1.25-0.94-2.24-2.12-3.09-3.43
				C84.35,99.98,83.37,97.66,82.59,95.15z"/>
		</g>
		<g>
			<path class="st1" d="M79.78,93.4c-1.6,0.51-3.15,0.97-4.67,1.51c-1.03,0.37-2.02,0.85-3.03,1.3c-0.23,0.1-0.4,0.21-0.61-0.08
				c-2.96-4.15-4.61-8.77-4.87-13.87c0-0.06,0.01-0.11,0.02-0.21c3.88,0,7.77,0,11.72,0C78.46,85.87,78.88,89.68,79.78,93.4z"/>
		</g>
		<g>
			<path class="st1" d="M105.35,93.45c0.9-3.75,1.34-7.55,1.45-11.41c3.92,0,7.8,0,11.82,0c-0.15,1.18-0.23,2.35-0.44,3.49
				c-0.69,3.83-2.17,7.34-4.44,10.5c-0.17,0.24-0.29,0.37-0.62,0.2c-2.34-1.18-4.8-2.02-7.33-2.65
				C105.65,93.54,105.53,93.5,105.35,93.45z"/>
		</g>
		<g>
			<path class="st1" d="M71.55,65.65c2.56,1.33,5.28,2.26,8.17,2.98c-0.85,3.65-1.27,7.34-1.37,11.1c-3.92,0-7.8,0-11.69,0
				C66.15,76.59,69.03,68.27,71.55,65.65z"/>
		</g>
		<g>
			<path class="st1" d="M105.5,68.61c2.78-0.69,5.52-1.62,8.15-2.99c3.03,4.23,4.65,8.9,4.92,14.1c-3.94,0-7.82,0-11.71,0
				c-0.15-1.86-0.25-3.71-0.47-5.56C106.17,72.32,105.81,70.49,105.5,68.61z"/>
		</g>
		<g>
			<path class="st1" d="M112.19,63.78c-1.05,0.78-5.52,2.38-7.34,2.64c-1.19-3.87-2.78-7.56-5.55-10.63
				C104.41,57.14,108.69,59.82,112.19,63.78z"/>
		</g>
		<g>
			<path class="st1" d="M85.84,55.8c-2.76,3.08-4.33,6.73-5.52,10.58c-1.2,0-6.26-1.79-7.36-2.6C76.46,59.83,80.73,57.14,85.84,55.8
				z"/>
		</g>
		<g>
			<path class="st1" d="M73.21,98.14c2.28-1.14,4.68-1.9,7.19-2.51c1.21,3.8,2.77,7.35,5.51,10.31
				C82.99,105.92,74.87,100.94,73.21,98.14z"/>
		</g>
		<g>
			<path class="st1" d="M112.02,98.17c-3.53,3.88-7.72,6.48-12.72,7.79c1.3-1.49,2.44-3.07,3.26-4.85c0.82-1.77,1.53-3.59,2.33-5.45
				C107.25,96.22,109.64,97,112.02,98.17z"/>
		</g>
	</g>
</g>
</svg>
