<?xml version="1.0" encoding="utf-8"?>
<!-- Generator: Adobe Illustrator 24.0.1, SVG Export Plug-In . SVG Version: 6.00 Build 0)  -->
<svg version="1.1" id="Capa_1" xmlns="http://www.w3.org/2000/svg" xmlns:xlink="http://www.w3.org/1999/xlink" x="0px" y="0px"
	 viewBox="0 0 188.49 188.49" style="enable-background:new 0 0 188.49 188.49;" xml:space="preserve">
<style type="text/css">
	.st0{fill:none;stroke:#003264;stroke-width:0.25;stroke-miterlimit:10;}
	.st1{fill:#003264;}
</style>
<rect x="3.8" y="3.8" class="st0" width="180.88" height="180.88"/>
<g>
	<path class="st1" d="M39.79,119.76h7.84v1.46h-6.1v3.76h4.56v1.45h-4.56v3.77h6.1v1.45h-7.84V119.76z"/>
	<path class="st1" d="M50.37,131.68c-0.63-0.14-1.13-0.33-1.5-0.57v-1.46c0.44,0.26,0.95,0.47,1.53,0.64
		c0.58,0.16,1.14,0.25,1.68,0.25c0.61,0,1.06-0.07,1.34-0.22c0.28-0.15,0.42-0.38,0.42-0.71c0-0.25-0.07-0.45-0.2-0.6
		c-0.13-0.15-0.35-0.29-0.66-0.42c-0.31-0.12-0.78-0.27-1.4-0.44c-0.67-0.19-1.2-0.39-1.59-0.59c-0.39-0.2-0.69-0.45-0.88-0.76
		c-0.2-0.31-0.3-0.7-0.3-1.19c0-0.78,0.31-1.37,0.93-1.78s1.45-0.6,2.49-0.6c0.54,0,1.08,0.05,1.6,0.15
		c0.52,0.1,0.94,0.24,1.26,0.42v1.43c-0.33-0.19-0.73-0.35-1.22-0.46c-0.48-0.11-0.97-0.17-1.47-0.17c-0.6,0-1.06,0.07-1.38,0.22
		c-0.32,0.15-0.48,0.41-0.48,0.78c0,0.24,0.07,0.43,0.2,0.58c0.14,0.15,0.35,0.28,0.65,0.38s0.78,0.25,1.44,0.42
		c1.03,0.28,1.75,0.62,2.15,1c0.4,0.39,0.6,0.92,0.6,1.6c0,0.7-0.29,1.26-0.87,1.68c-0.58,0.42-1.43,0.63-2.57,0.63
		C51.6,131.89,51,131.82,50.37,131.68z"/>
	<path class="st1" d="M57.47,123.48h1.67v1.21c0.84-0.97,1.97-1.46,3.4-1.46c0.82,0,1.55,0.18,2.2,0.54
		c0.65,0.36,1.16,0.87,1.53,1.52c0.37,0.65,0.55,1.41,0.55,2.27c0,0.85-0.18,1.6-0.55,2.26c-0.37,0.66-0.88,1.17-1.52,1.53
		s-1.38,0.54-2.21,0.54c-0.68,0-1.31-0.11-1.9-0.34c-0.59-0.23-1.07-0.56-1.45-1v4.81h-1.72V123.48z M63.65,130.17
		c0.45-0.24,0.8-0.59,1.05-1.04s0.38-0.97,0.38-1.56c0-0.59-0.13-1.11-0.38-1.56c-0.25-0.45-0.61-0.79-1.05-1.04
		c-0.45-0.24-0.95-0.37-1.5-0.37c-0.69,0-1.3,0.18-1.83,0.54c-0.53,0.36-0.9,0.86-1.13,1.5v1.84c0.19,0.62,0.56,1.12,1.1,1.5
		c0.54,0.37,1.16,0.56,1.85,0.56C62.7,130.53,63.21,130.41,63.65,130.17z"/>
	<path class="st1" d="M68.82,131.14c-0.6-0.5-0.89-1.19-0.89-2.05c0-0.91,0.29-1.61,0.86-2.1s1.39-0.74,2.44-0.74
		c1.12,0,2.07,0.23,2.86,0.68v-0.42c0-0.65-0.2-1.12-0.59-1.44s-1.01-0.47-1.84-0.47c-0.5,0-0.98,0.05-1.45,0.14
		c-0.47,0.1-0.89,0.23-1.27,0.4v-1.39c0.34-0.16,0.78-0.29,1.33-0.38c0.54-0.1,1.07-0.14,1.58-0.14c1.35,0,2.35,0.3,3,0.89
		s0.98,1.42,0.98,2.47v5.05H74.2v-0.92c-0.35,0.39-0.77,0.68-1.25,0.88c-0.48,0.2-1.07,0.3-1.76,0.3
		C70.21,131.89,69.42,131.64,68.82,131.14z M73.1,130.26c0.44-0.21,0.77-0.52,0.99-0.9v-1.1c-0.74-0.48-1.56-0.71-2.46-0.71
		c-0.66,0-1.15,0.13-1.47,0.38c-0.32,0.25-0.48,0.64-0.48,1.17c0,1,0.65,1.5,1.96,1.5C72.16,130.59,72.65,130.48,73.1,130.26z"/>
	<path class="st1" d="M79.49,131.38c-0.7-0.34-1.25-0.84-1.64-1.49c-0.39-0.65-0.59-1.43-0.59-2.32c0-0.89,0.2-1.67,0.59-2.32
		c0.39-0.65,0.94-1.15,1.65-1.5c0.71-0.35,1.52-0.53,2.44-0.53c1.25,0,2.24,0.24,2.99,0.73v1.41c-0.74-0.51-1.68-0.76-2.82-0.76
		c-0.93,0-1.68,0.25-2.25,0.76c-0.57,0.5-0.86,1.24-0.86,2.22c0,0.98,0.28,1.71,0.85,2.21c0.57,0.5,1.31,0.75,2.23,0.75
		c1.14,0,2.13-0.27,2.96-0.82v1.39c-0.4,0.27-0.85,0.47-1.35,0.6c-0.5,0.12-1.1,0.19-1.78,0.19C81,131.89,80.19,131.72,79.49,131.38
		z"/>
	<path class="st1" d="M87.19,121.59c-0.19-0.19-0.29-0.43-0.29-0.71s0.1-0.52,0.29-0.71c0.19-0.19,0.43-0.29,0.71-0.29
		c0.29,0,0.54,0.1,0.74,0.29c0.2,0.19,0.3,0.43,0.3,0.71s-0.1,0.52-0.3,0.71c-0.2,0.19-0.45,0.29-0.74,0.29
		C87.62,121.88,87.38,121.78,87.19,121.59z M87.04,123.48h1.75v8.16h-1.75V123.48z"/>
	<path class="st1" d="M93.03,131.38c-0.7-0.35-1.24-0.84-1.63-1.5c-0.39-0.65-0.59-1.42-0.59-2.3c0-0.87,0.19-1.64,0.58-2.29
		c0.39-0.66,0.93-1.16,1.63-1.52c0.7-0.36,1.51-0.54,2.43-0.54c0.92,0,1.73,0.18,2.43,0.54c0.7,0.36,1.25,0.86,1.64,1.52
		c0.39,0.66,0.59,1.42,0.59,2.29c0,0.88-0.2,1.65-0.59,2.3c-0.39,0.65-0.94,1.15-1.64,1.5s-1.51,0.52-2.43,0.52
		C94.53,131.89,93.73,131.72,93.03,131.38z M97.56,129.72c0.52-0.54,0.78-1.26,0.78-2.14c0-0.92-0.26-1.64-0.78-2.18
		c-0.52-0.53-1.22-0.8-2.11-0.8c-0.88,0-1.59,0.27-2.11,0.8c-0.52,0.53-0.78,1.26-0.78,2.18c0,0.88,0.26,1.6,0.78,2.14
		s1.22,0.82,2.11,0.82C96.34,130.53,97.04,130.26,97.56,129.72z"/>
	<path class="st1" d="M110.01,131.36c-0.65-0.36-1.16-0.86-1.53-1.51c-0.37-0.65-0.55-1.41-0.55-2.27c0-0.85,0.18-1.6,0.55-2.26
		s0.88-1.17,1.53-1.54c0.65-0.37,1.38-0.55,2.2-0.55c1.47,0,2.59,0.45,3.35,1.34v-5.49h1.72v12.56h-1.67v-1.19
		c-0.45,0.5-0.95,0.87-1.49,1.1c-0.54,0.23-1.18,0.35-1.91,0.35C111.4,131.89,110.66,131.71,110.01,131.36z M114.45,129.98
		c0.53-0.37,0.9-0.86,1.11-1.49v-1.84c-0.19-0.62-0.56-1.12-1.1-1.5c-0.54-0.37-1.16-0.56-1.86-0.56c-0.55,0-1.06,0.12-1.5,0.37
		c-0.45,0.25-0.8,0.6-1.05,1.05c-0.25,0.45-0.38,0.97-0.38,1.55c0,0.58,0.13,1.09,0.38,1.55c0.26,0.45,0.61,0.8,1.05,1.04
		c0.45,0.24,0.95,0.37,1.5,0.37C113.31,130.53,113.92,130.35,114.45,129.98z"/>
	<path class="st1" d="M120.43,130.76c-0.86-0.75-1.28-1.82-1.28-3.19c0-1.34,0.38-2.4,1.15-3.18c0.77-0.78,1.86-1.17,3.27-1.17
		c0.94,0,1.74,0.18,2.4,0.54c0.66,0.36,1.15,0.85,1.49,1.48c0.33,0.63,0.5,1.35,0.5,2.15v0.85h-7.17c0.06,0.77,0.38,1.35,0.98,1.73
		c0.6,0.38,1.4,0.57,2.42,0.57c0.52,0,1.05-0.05,1.58-0.14c0.53-0.1,1-0.22,1.41-0.38v1.38c-0.36,0.15-0.84,0.27-1.44,0.37
		c-0.6,0.1-1.18,0.14-1.76,0.14C122.47,131.89,121.29,131.52,120.43,130.76z M126.34,127.03c-0.02-0.77-0.28-1.37-0.76-1.79
		s-1.16-0.64-2.05-0.64c-0.86,0-1.53,0.22-2.01,0.66c-0.48,0.44-0.73,1.03-0.75,1.77H126.34z"/>
	<path class="st1" d="M136.11,119.76h7.84v1.46h-6.1v3.79h4.56v1.38h-4.56v5.25h-1.73V119.76z"/>
	<path class="st1" d="M145.23,130.76c-0.86-0.75-1.28-1.82-1.28-3.19c0-1.34,0.38-2.4,1.15-3.18c0.77-0.78,1.86-1.17,3.27-1.17
		c0.94,0,1.74,0.18,2.4,0.54c0.66,0.36,1.15,0.85,1.49,1.48c0.33,0.63,0.5,1.35,0.5,2.15v0.85h-7.17c0.06,0.77,0.38,1.35,0.98,1.73
		c0.6,0.38,1.4,0.57,2.42,0.57c0.52,0,1.05-0.05,1.58-0.14c0.53-0.1,1-0.22,1.41-0.38v1.38c-0.36,0.15-0.84,0.27-1.44,0.37
		c-0.6,0.1-1.18,0.14-1.76,0.14C147.27,131.89,146.09,131.52,145.23,130.76z M151.14,127.03c-0.02-0.77-0.28-1.37-0.76-1.79
		s-1.16-0.64-2.05-0.64c-0.86,0-1.53,0.22-2.01,0.66c-0.48,0.44-0.73,1.03-0.75,1.77H151.14z M148.61,119.64h1.82l-1.41,2.92h-1.56
		L148.61,119.64z"/>
</g>
<g id="_x32_BnC2E.tif_1_">
	<g>
		<path class="st1" d="M95.9,105.22c-1.02,0-2.03,0-3.05,0c-0.16-0.03-0.33-0.07-0.49-0.09c-1.11-0.16-2.23-0.24-3.32-0.47
			c-6.25-1.36-11.39-4.55-15.27-9.63c-4.81-6.29-6.44-13.39-4.88-21.14c1.16-5.75,4.04-10.57,8.5-14.39
			c5.63-4.83,12.2-6.91,19.58-6.23c5.03,0.47,9.55,2.33,13.5,5.49c5.17,4.13,8.38,9.46,9.55,15.99c0.17,0.96,0.27,1.94,0.4,2.91
			c0,1.02,0,2.04,0,3.05c-0.04,0.37-0.08,0.73-0.13,1.1c-0.57,5.07-2.39,9.64-5.6,13.61c-4.13,5.09-9.42,8.26-15.88,9.42
			C97.84,104.99,96.87,105.08,95.9,105.22z M94.3,100.01c11.36,0.08,20.8-9.29,20.91-20.76c0.11-11.36-9.32-20.86-20.78-20.94
			c-11.36-0.07-20.8,9.3-20.91,20.76C73.42,90.44,82.84,99.93,94.3,100.01z"/>
		<path class="st1" d="M79.59,84.38c9.87,0,19.7,0,29.53,0c-1.44,4.45-6.47,9.8-13.46,10.35C87.5,95.38,81.51,89.76,79.59,84.38z"/>
		<path class="st1" d="M85.24,68.76c2.07-0.01,3.9,1.81,3.92,3.88c0.02,2.05-1.82,3.9-3.89,3.91c-2.07,0.01-3.9-1.81-3.92-3.88
			C81.34,70.6,83.16,68.77,85.24,68.76z"/>
		<path class="st1" d="M103.49,76.54c-2.07,0-3.91-1.82-3.91-3.89c-0.01-2.05,1.83-3.89,3.9-3.9c2.07,0,3.9,1.82,3.91,3.89
			C107.39,74.71,105.56,76.54,103.49,76.54z"/>
	</g>
</g>
</svg>
