<?xml version="1.0" encoding="utf-8"?>
<!-- Generator: Adobe Illustrator 24.0.1, SVG Export Plug-In . SVG Version: 6.00 Build 0)  -->
<svg version="1.1" id="Capa_1" xmlns="http://www.w3.org/2000/svg" xmlns:xlink="http://www.w3.org/1999/xlink" x="0px" y="0px"
	 viewBox="0 0 188.49 188.49" style="enable-background:new 0 0 188.49 188.49;" xml:space="preserve">
<style type="text/css">
	.st0{fill:none;stroke:#003264;stroke-width:0.25;stroke-miterlimit:10;}
	.st1{fill:#003865;}
</style>
<rect x="3.8" y="3.8" class="st0" width="180.88" height="180.88"/>
<g>
	<path class="st1" d="M100.64,92.96c-2.73,2.73-4.05,4.03-4.73,7.33c-0.05,0.25-0.33,0.25-0.33,0v-4.05c0-2.6,2.32-4.97,5.07-7.73
		l2.22-2.22c3.11-3.11,3.86-6.71,1.39-8.85c-0.21-0.18-0.1-0.4,0.17-0.28c3.08,1.4,5.51,6.5,0.23,11.78L100.64,92.96z M95.57,103.38
		v4.08c0,0.25,0.28,0.25,0.33,0c0.68-3.31,2-4.63,4.73-7.36l4.32-4.31c5.28-5.28,6.19-10.39,3.51-13.67
		c-0.18-0.22-0.37-0.09-0.25,0.18c1.78,4.02-2.48,8.28-4.51,10.3l-3.06,3.06C97.88,98.4,95.57,100.78,95.57,103.38z M83.85,90.25
		c-5.28,5.28-2.85,10.38,0.23,11.78c0.27,0.12,0.38-0.1,0.17-0.28c-2.47-2.14-1.72-5.74,1.39-8.85l8.78-8.78
		c2.76-2.76,5.07-5.13,5.07-7.73v-4.05c0-0.25-0.28-0.25-0.33,0c-0.68,3.31-2,4.61-4.73,7.33L83.85,90.25z M99.5,69.27v-4.08
		c0-0.25-0.28-0.25-0.33,0c-0.68,3.31-2,4.63-4.73,7.36L83.56,83.42c-5.28,5.28-6.19,10.39-3.51,13.67
		c0.18,0.22,0.37,0.09,0.25-0.18c-1.78-4.02,2.48-8.28,4.51-10.3L94.43,77C97.18,74.25,99.5,71.87,99.5,69.27z M82.41,77.46
		c-4.54,4.54-5.17,9.35-4.21,12.48c0.08,0.27,0.31,0.28,0.31,0c-0.02-2.63,0.73-4.9,5.54-9.7l10.36-10.36
		c2.76-2.76,5.07-5.13,5.07-7.73V58.1c0-0.25-0.28-0.25-0.33,0c-0.68,3.31-2,4.61-4.73,7.34L82.41,77.46z M88.76,110.33
		c-0.09,0-0.17-0.07-0.17-0.17v-2.35c0-0.09,0.07-0.17,0.17-0.17l3.98,0c0.09,0,0.17-0.07,0.17-0.17c-0.01-2.11-1.6-3.55-7.98-2.44
		l-13.78,2.37c0,0-10.49,10.49-10.58,10.59c-0.14,0.17-0.03,0.39,0.19,0.37c0.19-0.02,22.92-3.94,22.92-3.94
		c5.22-0.88,8.06,1.6,8.91,3.93c0.08,0.21,0.32,0.17,0.32-0.02c0-0.14,0-7.84,0-7.84c0-0.09-0.07-0.17-0.17-0.17H88.76z
		 M105.21,105.33l-4.56,4.56c-2.76,2.76-5.07,5.13-5.07,7.73l0,0.72c0,0.2,0.24,0.23,0.32,0.02c0.85-2.33,3.7-4.81,8.91-3.93
		c0,0,22.73,3.93,22.92,3.94c0.22,0.02,0.33-0.2,0.19-0.37c-0.09-0.1-10.58-10.59-10.58-10.59L105.21,105.33z M110.3,89.27
		c-0.08-0.27-0.31-0.28-0.31,0c0.02,2.63-0.73,4.9-5.54,9.7l-3.8,3.8c-1.73,1.73-3.29,3.31-4.2,4.89h3.75
		c0.14-0.14,0.29-0.29,0.44-0.44l5.45-5.46C110.64,97.21,111.27,92.4,110.3,89.27z M95.58,114.55c0,0.25,0.28,0.25,0.33,0
		c0.38-1.82,0.95-3.03,1.84-4.21l-2.01,0c-0.09,0-0.17,0.07-0.17,0.17V114.55z"/>
	<g>
		<path class="st1" d="M124.61,110.71c0-0.98,0.71-1.69,1.69-1.69c0.93,0,1.69,0.71,1.69,1.69c0,0.98-0.71,1.69-1.69,1.69
			C125.32,112.4,124.61,111.69,124.61,110.71z M127.72,110.71c0-0.8-0.59-1.45-1.43-1.45s-1.43,0.6-1.43,1.45
			c0,0.8,0.6,1.45,1.43,1.45C127.08,112.15,127.72,111.55,127.72,110.71z M125.67,109.7h0.59c0.5,0,0.73,0.2,0.73,0.59
			c0,0.29-0.17,0.45-0.36,0.52l0.53,0.89h-0.4l-0.46-0.8h-0.29v0.8h-0.35V109.7z M126.25,110.63c0.24,0,0.38-0.13,0.38-0.33
			c0-0.22-0.12-0.31-0.39-0.31h-0.23v0.64H126.25z"/>
	</g>
</g>
</svg>
