<?xml version="1.0" encoding="utf-8"?>
<!-- Generator: Adobe Illustrator 24.0.1, SVG Export Plug-In . SVG Version: 6.00 Build 0)  -->
<svg version="1.1" id="Capa_1" xmlns="http://www.w3.org/2000/svg" xmlns:xlink="http://www.w3.org/1999/xlink" x="0px" y="0px"
	 viewBox="0 0 188.49 188.49" style="enable-background:new 0 0 188.49 188.49;" xml:space="preserve">
<style type="text/css">
	.st0{fill:none;stroke:#003264;stroke-width:0.25;stroke-miterlimit:10;}
	.st1{fill:#003264;}
</style>
<rect x="3.8" y="3.8" class="st0" width="180.88" height="180.88"/>
<g>
	<path class="st1" d="M60,78.4h1.65l6.05,8.96V78.4h1.75v11.88h-1.67l-6.05-8.96v8.96H60V78.4z"/>
	<path class="st1" d="M72.42,89.65c-0.56-0.59-0.84-1.38-0.84-2.36v-5.17h1.72v5.1c0,1.3,0.65,1.95,1.96,1.95
		c1.14,0,2.04-0.51,2.69-1.55v-5.51h1.72v8.16h-1.67v-1.16c-0.38,0.49-0.84,0.84-1.37,1.07s-1.1,0.34-1.71,0.34
		C73.81,90.53,72.98,90.24,72.42,89.65z"/>
	<path class="st1" d="M82.8,89.4c-0.86-0.75-1.28-1.82-1.28-3.19c0-1.34,0.38-2.4,1.15-3.18c0.77-0.78,1.86-1.17,3.27-1.17
		c0.94,0,1.74,0.18,2.4,0.54c0.66,0.36,1.15,0.85,1.49,1.48s0.5,1.35,0.5,2.15v0.85h-7.17c0.06,0.77,0.38,1.35,0.98,1.73
		c0.59,0.38,1.4,0.57,2.42,0.57c0.52,0,1.05-0.05,1.58-0.14c0.53-0.1,1-0.22,1.41-0.38v1.38c-0.36,0.15-0.84,0.27-1.44,0.37
		s-1.18,0.14-1.76,0.14C84.84,90.53,83.66,90.16,82.8,89.4z M88.71,85.67c-0.02-0.77-0.27-1.37-0.76-1.79
		c-0.48-0.42-1.16-0.64-2.05-0.64c-0.86,0-1.53,0.22-2.01,0.66c-0.48,0.44-0.72,1.03-0.75,1.77H88.71z"/>
	<path class="st1" d="M93.4,90.32c-0.63-0.14-1.13-0.33-1.5-0.57v-1.46c0.44,0.26,0.95,0.47,1.53,0.64s1.14,0.25,1.68,0.25
		c0.61,0,1.06-0.07,1.34-0.22s0.43-0.38,0.43-0.71c0-0.25-0.07-0.45-0.2-0.6c-0.13-0.15-0.35-0.29-0.66-0.42
		c-0.31-0.12-0.78-0.27-1.4-0.44c-0.67-0.19-1.2-0.39-1.59-0.59c-0.39-0.2-0.69-0.45-0.88-0.76c-0.2-0.31-0.3-0.7-0.3-1.19
		c0-0.78,0.31-1.37,0.93-1.78c0.62-0.4,1.45-0.6,2.49-0.6c0.54,0,1.08,0.05,1.6,0.15c0.52,0.1,0.94,0.24,1.26,0.42v1.43
		c-0.33-0.19-0.73-0.35-1.21-0.46c-0.48-0.11-0.97-0.17-1.47-0.17c-0.6,0-1.06,0.07-1.38,0.22c-0.32,0.15-0.48,0.41-0.48,0.78
		c0,0.24,0.07,0.43,0.21,0.58c0.13,0.15,0.35,0.28,0.65,0.38c0.3,0.11,0.78,0.25,1.44,0.42c1.03,0.28,1.75,0.62,2.15,1
		c0.4,0.39,0.6,0.92,0.6,1.6c0,0.7-0.29,1.26-0.87,1.68c-0.58,0.42-1.43,0.63-2.57,0.63C94.64,90.53,94.04,90.46,93.4,90.32z"/>
	<path class="st1" d="M101.49,89.82c-0.45-0.48-0.67-1.15-0.67-2.02v-4.35h-1.24v-1.33h1.24v-2.45h1.73v2.45h2.01v1.33h-2.01v4.23
		c0,0.54,0.11,0.93,0.31,1.16c0.21,0.23,0.59,0.34,1.15,0.34c0.33,0,0.66-0.07,0.99-0.22v1.36c-0.43,0.15-0.96,0.22-1.6,0.22
		C102.57,90.53,101.93,90.3,101.49,89.82z"/>
	<path class="st1" d="M106.61,82.12h1.67v1.46c0.34-0.5,0.82-0.87,1.44-1.1c0.62-0.24,1.33-0.36,2.15-0.36v1.34
		c-0.87,0-1.62,0.14-2.24,0.43s-1.05,0.73-1.29,1.34v5.05h-1.72V82.12z"/>
	<path class="st1" d="M113.18,89.78c-0.6-0.5-0.89-1.19-0.89-2.05c0-0.91,0.29-1.61,0.86-2.1s1.39-0.74,2.44-0.74
		c1.12,0,2.07,0.23,2.86,0.68v-0.42c0-0.65-0.2-1.12-0.59-1.44c-0.39-0.31-1.01-0.47-1.84-0.47c-0.5,0-0.98,0.05-1.45,0.14
		c-0.47,0.1-0.89,0.23-1.27,0.4v-1.39c0.34-0.16,0.78-0.29,1.33-0.38c0.54-0.1,1.07-0.14,1.58-0.14c1.35,0,2.35,0.3,3,0.89
		c0.65,0.59,0.98,1.42,0.98,2.47v5.05h-1.61v-0.92c-0.35,0.39-0.77,0.68-1.25,0.88c-0.48,0.2-1.07,0.3-1.76,0.3
		C114.57,90.53,113.78,90.28,113.18,89.78z M117.46,88.9c0.44-0.21,0.77-0.52,0.99-0.9v-1.1c-0.74-0.48-1.56-0.71-2.46-0.71
		c-0.66,0-1.15,0.13-1.47,0.38s-0.48,0.64-0.48,1.17c0,1,0.65,1.5,1.96,1.5C116.52,89.22,117.02,89.12,117.46,88.9z"/>
	<path class="st1" d="M123.25,90.32c-0.63-0.14-1.13-0.33-1.5-0.57v-1.46c0.44,0.26,0.95,0.47,1.53,0.64s1.14,0.25,1.68,0.25
		c0.61,0,1.06-0.07,1.34-0.22s0.43-0.38,0.43-0.71c0-0.25-0.07-0.45-0.2-0.6c-0.13-0.15-0.35-0.29-0.66-0.42
		c-0.31-0.12-0.78-0.27-1.4-0.44c-0.67-0.19-1.2-0.39-1.59-0.59c-0.39-0.2-0.69-0.45-0.88-0.76c-0.2-0.31-0.3-0.7-0.3-1.19
		c0-0.78,0.31-1.37,0.93-1.78c0.62-0.4,1.45-0.6,2.49-0.6c0.54,0,1.08,0.05,1.6,0.15c0.52,0.1,0.94,0.24,1.26,0.42v1.43
		c-0.33-0.19-0.73-0.35-1.21-0.46c-0.48-0.11-0.97-0.17-1.47-0.17c-0.6,0-1.06,0.07-1.38,0.22c-0.32,0.15-0.48,0.41-0.48,0.78
		c0,0.24,0.07,0.43,0.21,0.58c0.13,0.15,0.35,0.28,0.65,0.38c0.3,0.11,0.78,0.25,1.44,0.42c1.03,0.28,1.75,0.62,2.15,1
		c0.4,0.39,0.6,0.92,0.6,1.6c0,0.7-0.29,1.26-0.87,1.68c-0.58,0.42-1.43,0.63-2.57,0.63C124.49,90.53,123.89,90.46,123.25,90.32z"/>
	<path class="st1" d="M63.59,109.84c-0.95-0.51-1.69-1.23-2.23-2.17c-0.53-0.93-0.8-2.02-0.8-3.25s0.27-2.32,0.8-3.26
		c0.53-0.94,1.28-1.67,2.23-2.18s2.04-0.76,3.26-0.76c1.63,0,3,0.41,4.1,1.24v1.67c-0.99-0.87-2.3-1.31-3.94-1.31
		c-0.92,0-1.73,0.19-2.44,0.56c-0.71,0.37-1.26,0.91-1.66,1.61c-0.4,0.7-0.59,1.51-0.59,2.44c0,0.93,0.2,1.75,0.6,2.45
		c0.4,0.7,0.96,1.24,1.67,1.62c0.71,0.37,1.52,0.56,2.42,0.56c0.84,0,1.59-0.11,2.25-0.33c0.66-0.22,1.28-0.58,1.85-1.06v1.68
		c-1.02,0.85-2.44,1.27-4.25,1.27C65.63,110.6,64.55,110.35,63.59,109.84z"/>
	<path class="st1" d="M73.28,109.85c-0.59-0.5-0.89-1.19-0.89-2.05c0-0.91,0.29-1.61,0.86-2.1s1.38-0.74,2.44-0.74
		c1.12,0,2.07,0.23,2.86,0.68v-0.42c0-0.65-0.2-1.12-0.59-1.44s-1.01-0.47-1.84-0.47c-0.5,0-0.98,0.05-1.45,0.14
		c-0.47,0.1-0.89,0.23-1.27,0.4v-1.39c0.34-0.16,0.78-0.29,1.33-0.38c0.54-0.1,1.07-0.14,1.58-0.14c1.35,0,2.35,0.3,3,0.89
		s0.98,1.42,0.98,2.47v5.05h-1.62v-0.92c-0.35,0.39-0.77,0.68-1.25,0.88c-0.48,0.2-1.07,0.3-1.76,0.3
		C74.66,110.6,73.87,110.35,73.28,109.85z M77.55,108.97c0.44-0.21,0.77-0.52,0.99-0.9v-1.1c-0.74-0.48-1.56-0.71-2.46-0.71
		c-0.66,0-1.15,0.13-1.47,0.38c-0.32,0.25-0.48,0.64-0.48,1.17c0,1,0.65,1.5,1.96,1.5C76.62,109.29,77.11,109.19,77.55,108.97z"/>
	<path class="st1" d="M82.4,102.19h1.67v1.46c0.34-0.5,0.82-0.87,1.44-1.1c0.62-0.24,1.33-0.36,2.15-0.36v1.34
		c-0.87,0-1.62,0.14-2.24,0.43c-0.62,0.28-1.05,0.73-1.29,1.34v5.05H82.4V102.19z"/>
	<path class="st1" d="M89.09,102.19h1.67v1.46c0.34-0.5,0.82-0.87,1.44-1.1c0.62-0.24,1.33-0.36,2.15-0.36v1.34
		c-0.87,0-1.62,0.14-2.24,0.43s-1.05,0.73-1.29,1.34v5.05h-1.72V102.19z"/>
	<path class="st1" d="M96.31,109.47c-0.86-0.75-1.28-1.82-1.28-3.19c0-1.34,0.38-2.4,1.15-3.18s1.86-1.17,3.27-1.17
		c0.94,0,1.74,0.18,2.4,0.54c0.66,0.36,1.15,0.85,1.49,1.48c0.33,0.63,0.5,1.35,0.5,2.15v0.85h-7.17c0.06,0.77,0.38,1.35,0.98,1.73
		c0.6,0.38,1.4,0.57,2.42,0.57c0.52,0,1.05-0.05,1.58-0.14c0.53-0.1,1-0.22,1.41-0.38v1.38c-0.36,0.15-0.84,0.27-1.44,0.37
		c-0.6,0.1-1.18,0.14-1.76,0.14C98.35,110.6,97.17,110.22,96.31,109.47z M102.22,105.74c-0.02-0.77-0.28-1.37-0.76-1.79
		s-1.17-0.64-2.05-0.64c-0.86,0-1.53,0.22-2.01,0.66s-0.73,1.03-0.75,1.77H102.22z"/>
	<path class="st1" d="M105.7,102.19h1.67v1.46c0.34-0.5,0.82-0.87,1.44-1.1c0.62-0.24,1.33-0.36,2.15-0.36v1.34
		c-0.87,0-1.62,0.14-2.24,0.43c-0.62,0.28-1.05,0.73-1.29,1.34v5.05h-1.72V102.19z"/>
	<path class="st1" d="M112.27,109.85c-0.6-0.5-0.89-1.19-0.89-2.05c0-0.91,0.29-1.61,0.86-2.1s1.39-0.74,2.44-0.74
		c1.12,0,2.07,0.23,2.86,0.68v-0.42c0-0.65-0.2-1.12-0.59-1.44s-1.01-0.47-1.84-0.47c-0.5,0-0.98,0.05-1.45,0.14
		c-0.47,0.1-0.89,0.23-1.27,0.4v-1.39c0.34-0.16,0.78-0.29,1.33-0.38c0.54-0.1,1.07-0.14,1.58-0.14c1.35,0,2.35,0.3,3,0.89
		s0.98,1.42,0.98,2.47v5.05h-1.61v-0.92c-0.35,0.39-0.77,0.68-1.25,0.88c-0.48,0.2-1.07,0.3-1.76,0.3
		C113.66,110.6,112.87,110.35,112.27,109.85z M116.55,108.97c0.44-0.21,0.77-0.52,0.99-0.9v-1.1c-0.74-0.48-1.56-0.71-2.46-0.71
		c-0.66,0-1.15,0.13-1.47,0.38c-0.32,0.25-0.48,0.64-0.48,1.17c0,1,0.65,1.5,1.96,1.5C115.61,109.29,116.11,109.19,116.55,108.97z"
		/>
	<path class="st1" d="M122.34,110.39c-0.63-0.14-1.13-0.33-1.5-0.57v-1.46c0.44,0.26,0.95,0.47,1.53,0.64s1.14,0.25,1.68,0.25
		c0.61,0,1.06-0.07,1.34-0.22c0.28-0.15,0.42-0.38,0.42-0.71c0-0.25-0.07-0.45-0.2-0.6c-0.13-0.15-0.35-0.29-0.66-0.42
		c-0.31-0.12-0.78-0.27-1.4-0.44c-0.67-0.19-1.2-0.39-1.59-0.59c-0.39-0.2-0.69-0.45-0.88-0.76c-0.2-0.31-0.3-0.7-0.3-1.19
		c0-0.78,0.31-1.37,0.93-1.78s1.45-0.6,2.49-0.6c0.54,0,1.08,0.05,1.6,0.15c0.52,0.1,0.94,0.24,1.26,0.42v1.43
		c-0.33-0.19-0.73-0.35-1.22-0.46c-0.48-0.11-0.97-0.17-1.47-0.17c-0.6,0-1.06,0.07-1.38,0.22c-0.32,0.15-0.48,0.41-0.48,0.78
		c0,0.24,0.07,0.43,0.2,0.58c0.14,0.15,0.35,0.28,0.65,0.38s0.78,0.25,1.44,0.42c1.03,0.28,1.75,0.62,2.15,1
		c0.4,0.39,0.6,0.92,0.6,1.6c0,0.7-0.29,1.26-0.87,1.68c-0.58,0.42-1.43,0.63-2.57,0.63C123.58,110.6,122.98,110.53,122.34,110.39z"
		/>
</g>
</svg>
