<?xml version="1.0" encoding="utf-8"?>
<!-- Generator: Adobe Illustrator 24.0.1, SVG Export Plug-In . SVG Version: 6.00 Build 0)  -->
<svg version="1.1" id="Capa_1" xmlns="http://www.w3.org/2000/svg" xmlns:xlink="http://www.w3.org/1999/xlink" x="0px" y="0px"
	 viewBox="0 0 199.6 95.9" style="enable-background:new 0 0 199.6 95.9;" xml:space="preserve">
<style type="text/css">
	.st0{fill:#FFFFFF;}
</style>
<g>
	<g>
		<path class="st0" d="M65.3,3.3v28.2c0,16.3-8.8,22.6-22.7,22.6c-13.9,0-22.7-6.3-22.7-22.6V3.3h12.5v25.1c0,10.7,4,14.8,10.2,14.8
			c6.2,0,10.2-4.1,10.2-14.8V3.3H65.3z"/>
		<path class="st0" d="M179.8,40.5c0,12.8-13.1,12.8-20.9,12.8h-24.5v-50h23.8c5.4,0,20.9,0,20.9,13.1c0,6.4-3.7,10.4-10,12.1
			C176.6,30.2,179.8,34.2,179.8,40.5 M146.9,13.9v10.2h12.6c4.3,0,7-2,7-5.3c0-3.4-2.8-4.9-7.6-4.9H146.9z M167.1,37.8
			c0-3.3-2.7-4.7-7-4.7h-13.2v9.6h12.6C164.3,42.7,167.1,41.2,167.1,37.8"/>
		<path class="st0" d="M127.8,54.9L127.8,54.9c-5-1-10-1.7-15.1-2.2l-4.1-16.5c1.3-0.4,2.6-0.8,3.8-1.2c2.2-0.7,4.7-1.4,6.7-2.7
			L127.8,54.9z"/>
		<path class="st0" d="M88.5,41.5l-2.8,11.2c-5.1,0.5-10.2,1.2-15.1,2.2h0l1.9-4.9c0,0,0,0,0,0c2.1-3.1,5.4-5,8.9-6.3
			C83.7,42.8,86.1,42.1,88.5,41.5"/>
		<path class="st0" d="M75.2,38.9c-1-3.6,2.6-5.9,5.3-7.1c3.3-1.4,6.9-2.3,10.3-3.1c3.5-0.8,7-1.6,10.5-2.4
			c3.4-0.8,6.8-1.6,10.2-2.7c3.4-1.2,7-2.9,8.4-6.4c1.2,3.4-0.9,6.4-3.8,8c-3.2,1.8-7.1,2.6-10.6,3.5c-3.6,0.9-7.3,1.8-10.9,2.7
			c-3.6,0.9-7.1,1.6-10.8,2.8C80.9,35.1,77.4,36.4,75.2,38.9"/>
		<path class="st0" d="M116.5,18.4c-1.1,1.1-2.7,1.9-4.1,2.4c-3.6,1.4-7.3,2.4-11,3.3c-6.7,1.6-8.1,1.5-15.7,3.7
			c-4.6,1.3-6.5,2.6-7.4,3.4c-0.1-2,1.3-3.4,2.9-4.3l9.2-23.8h7.6L93,23.4c3.9-0.9,7.8-1.7,11.6-2.7l-4.4-17.6h7.6l5.6,14.6
			c1.8-0.9,3.3-2,4.2-3.8C118.3,15.4,117.7,17.3,116.5,18.4"/>
		<path class="st0" d="M72.5,47.8c-0.8-4.8,3.7-8.2,7.5-10c4.5-2.1,9.4-3,14.2-4.1c5.1-1.2,10.2-2.5,15.3-3.9
			c4.8-1.3,10.6-3,12.8-7.9c1,2.3,0.1,5.1-1.5,6.9c-2.1,2.2-5.6,3.1-8.5,4.1c-4,1.3-8,2.4-12.1,3.4c-2.3,0.6-4.6,1.2-6.9,1.8
			c-4,1-8.1,1.9-11.9,3.4C77.9,42.7,74.6,44.6,72.5,47.8"/>
	</g>
	<g>
		<path class="st0" d="M0.7,80.2c-0.4-0.4-0.7-1-0.7-1.8v-3.9h0.9v4c0,0.5,0.2,0.9,0.5,1.2c0.3,0.3,0.7,0.4,1.2,0.4
			c0.5,0,0.9-0.1,1.2-0.4c0.3-0.3,0.5-0.7,0.5-1.2v-4h0.9v3.9c0,0.8-0.2,1.4-0.7,1.8c-0.4,0.4-1.1,0.7-1.9,0.7
			C1.7,80.9,1.1,80.7,0.7,80.2z"/>
		<path class="st0" d="M10.4,74.5h0.9l3.2,4.7v-4.7h0.9v6.3h-0.9L11.3,76v4.7h-0.9V74.5z"/>
		<path class="st0" d="M20.7,74.5h0.9v6.3h-0.9V74.5z"/>
		<path class="st0" d="M26.7,74.5h1l2,5l2-5h1l-2.5,6.3h-0.9L26.7,74.5z"/>
		<path class="st0" d="M37.7,74.5h4.2v0.8h-3.2v2H41V78h-2.4v2h3.2v0.8h-4.2V74.5z"/>
		<path class="st0" d="M46.8,74.5h2.5c0.7,0,1.2,0.2,1.6,0.5c0.4,0.3,0.5,0.8,0.5,1.4c0,0.5-0.1,0.9-0.4,1.2c-0.2,0.3-0.6,0.5-1,0.7
			l1.4,2.6h-1l-1.3-2.5h-1.4v2.5h-0.9V74.5z M49.2,77.5c0.4,0,0.7-0.1,1-0.3c0.2-0.2,0.4-0.5,0.4-0.8c0-0.4-0.1-0.7-0.3-0.9
			c-0.2-0.2-0.6-0.3-1-0.3h-1.5v2.3H49.2z"/>
		<path class="st0" d="M57.2,80.8c-0.4-0.1-0.6-0.1-0.9-0.3v-0.8c0.6,0.3,1.2,0.4,1.9,0.4c0.9,0,1.4-0.3,1.4-0.9
			c0-0.2-0.1-0.4-0.2-0.5c-0.1-0.1-0.2-0.2-0.4-0.3c-0.2-0.1-0.5-0.2-0.9-0.4c-0.6-0.2-1-0.5-1.3-0.8c-0.3-0.3-0.4-0.7-0.4-1.1
			c0-0.3,0.1-0.6,0.3-0.9c0.2-0.3,0.4-0.5,0.8-0.6c0.3-0.1,0.7-0.2,1.1-0.2c0.3,0,0.7,0,0.9,0.1c0.3,0.1,0.5,0.1,0.8,0.3v0.8
			c-0.5-0.2-1.1-0.4-1.6-0.4c-0.4,0-0.8,0.1-1,0.2c-0.2,0.2-0.3,0.4-0.3,0.7c0,0.2,0,0.4,0.1,0.5c0.1,0.1,0.2,0.3,0.4,0.4
			c0.2,0.1,0.5,0.2,0.9,0.4c0.4,0.2,0.8,0.3,1,0.5c0.2,0.2,0.4,0.3,0.6,0.6c0.1,0.2,0.2,0.5,0.2,0.8c0,0.5-0.2,1-0.6,1.3
			c-0.4,0.3-1,0.4-1.7,0.4C57.9,80.9,57.6,80.9,57.2,80.8z"/>
		<path class="st0" d="M65.7,74.5h0.9v6.3h-0.9V74.5z"/>
		<path class="st0" d="M71.8,74.5h2c0.7,0,1.3,0.1,1.8,0.4c0.5,0.3,0.9,0.6,1.2,1.1c0.3,0.5,0.4,1,0.4,1.7c0,1-0.3,1.8-0.9,2.4
			c-0.6,0.5-1.5,0.8-2.5,0.8h-1.9V74.5z M73.7,80c0.8,0,1.5-0.2,1.9-0.6c0.4-0.4,0.6-1,0.6-1.8c0-0.7-0.2-1.3-0.6-1.7
			c-0.4-0.4-1-0.6-1.8-0.6h-1.1V80H73.7z"/>
		<path class="st0" d="M84,74.5h0.9l2.5,6.3h-0.9l-0.6-1.6H83l-0.6,1.6h-0.9L84,74.5z M85.6,78.4l-1.1-2.9l-1.1,2.9H85.6z"/>
		<path class="st0" d="M92.5,74.5h2c0.7,0,1.3,0.1,1.8,0.4c0.5,0.3,0.9,0.6,1.2,1.1c0.3,0.5,0.4,1,0.4,1.7c0,1-0.3,1.8-0.9,2.4
			c-0.6,0.5-1.5,0.8-2.5,0.8h-1.9V74.5z M94.4,80c0.8,0,1.5-0.2,1.9-0.6c0.4-0.4,0.6-1,0.6-1.8c0-0.7-0.2-1.3-0.6-1.7
			c-0.4-0.4-1-0.6-1.8-0.6h-1.1V80H94.4z"/>
		<path class="st0" d="M112.6,74.5h0.9l2.5,6.3h-0.9l-0.6-1.6h-2.8l-0.6,1.6h-0.9L112.6,74.5z M114.2,78.4l-1.1-2.9l-1.1,2.9H114.2z
			"/>
		<path class="st0" d="M121.1,74.5h2c0.7,0,1.3,0.1,1.8,0.4c0.5,0.3,0.9,0.6,1.2,1.1c0.3,0.5,0.4,1,0.4,1.7c0,1-0.3,1.8-0.9,2.4
			c-0.6,0.5-1.5,0.8-2.5,0.8h-1.9V74.5z M123,80c0.8,0,1.5-0.2,1.9-0.6c0.4-0.4,0.6-1,0.6-1.8c0-0.7-0.2-1.3-0.6-1.7
			c-0.4-0.4-1-0.6-1.8-0.6H122V80H123z"/>
		<path class="st0" d="M130.8,74.5h1l2,5l2-5h1l-2.5,6.3h-0.9L130.8,74.5z"/>
		<path class="st0" d="M141.7,74.5h4.2v0.8h-3.2v2h2.4V78h-2.4v2h3.2v0.8h-4.2V74.5z"/>
		<path class="st0" d="M150.9,74.5h0.9l3.2,4.7v-4.7h0.9v6.3h-0.9l-3.2-4.7v4.7h-0.9V74.5z"/>
		<path class="st0" d="M162.8,75.3h-2v-0.8h4.9v0.8h-2v5.5h-0.9V75.3z"/>
		<path class="st0" d="M170.6,74.5h0.9v6.3h-0.9V74.5z"/>
		<path class="st0" d="M177.4,80.8c-0.4-0.1-0.6-0.1-0.9-0.3v-0.8c0.6,0.3,1.2,0.4,1.9,0.4c0.9,0,1.4-0.3,1.4-0.9
			c0-0.2-0.1-0.4-0.2-0.5c-0.1-0.1-0.2-0.2-0.4-0.3c-0.2-0.1-0.5-0.2-0.9-0.4c-0.6-0.2-1-0.5-1.3-0.8c-0.3-0.3-0.4-0.7-0.4-1.1
			c0-0.3,0.1-0.6,0.3-0.9c0.2-0.3,0.4-0.5,0.8-0.6c0.3-0.1,0.7-0.2,1.1-0.2c0.3,0,0.7,0,0.9,0.1c0.3,0.1,0.5,0.1,0.8,0.3v0.8
			c-0.5-0.2-1.1-0.4-1.6-0.4c-0.4,0-0.8,0.1-1,0.2c-0.2,0.2-0.3,0.4-0.3,0.7c0,0.2,0,0.4,0.1,0.5c0.1,0.1,0.2,0.3,0.4,0.4
			c0.2,0.1,0.5,0.2,0.9,0.4c0.4,0.2,0.8,0.3,1,0.5c0.2,0.2,0.4,0.3,0.6,0.6c0.1,0.2,0.2,0.5,0.2,0.8c0,0.5-0.2,1-0.6,1.3
			c-0.4,0.3-1,0.4-1.7,0.4C178.1,80.9,177.8,80.9,177.4,80.8z"/>
		<path class="st0" d="M187.2,75.3h-2v-0.8h4.9v0.8h-2v5.5h-0.9V75.3z"/>
		<path class="st0" d="M196.2,74.5h0.9l2.5,6.3h-0.9l-0.6-1.6h-2.8l-0.6,1.6h-0.9L196.2,74.5z M197.8,78.4l-1.1-2.9l-1.1,2.9H197.8z
			"/>
		<path class="st0" d="M56.8,89.5h2c0.7,0,1.3,0.1,1.8,0.4c0.5,0.3,0.9,0.6,1.2,1.1c0.3,0.5,0.4,1,0.4,1.7c0,1-0.3,1.8-0.9,2.4
			c-0.6,0.5-1.5,0.8-2.5,0.8h-1.9V89.5z M58.7,95c0.8,0,1.5-0.2,1.9-0.6c0.4-0.4,0.6-1,0.6-1.8c0-0.7-0.2-1.3-0.6-1.7
			c-0.4-0.4-1-0.6-1.8-0.6h-1.1V95H58.7z"/>
		<path class="st0" d="M67.2,89.5h4.2v0.8h-3.2v2h2.4V93h-2.4v2h3.2v0.8h-4.2V89.5z"/>
		<path class="st0" d="M83.8,89.5h2.9c0.6,0,1,0.1,1.3,0.4c0.3,0.3,0.5,0.7,0.5,1.3c0,0.3-0.1,0.6-0.2,0.8c-0.1,0.2-0.3,0.4-0.6,0.5
			c0.7,0.2,1,0.7,1,1.5c0,0.4-0.1,0.7-0.2,0.9c-0.2,0.3-0.4,0.5-0.7,0.6c-0.3,0.1-0.6,0.2-0.9,0.2h-3.1V89.5z M86.6,92.2
			c0.3,0,0.5-0.1,0.7-0.2c0.2-0.2,0.3-0.4,0.3-0.7c0-0.4-0.1-0.6-0.2-0.8c-0.2-0.1-0.4-0.2-0.8-0.2h-1.8v2H86.6z M86.6,95
			c0.4,0,0.6-0.1,0.8-0.2c0.2-0.2,0.3-0.4,0.3-0.8c0-0.4-0.1-0.6-0.3-0.8c-0.2-0.2-0.5-0.2-0.9-0.2h-1.8V95H86.6z"/>
		<path class="st0" d="M94.9,95.5c-0.5-0.3-0.9-0.7-1.2-1.2c-0.3-0.5-0.4-1.1-0.4-1.7c0-0.6,0.1-1.2,0.4-1.7
			c0.3-0.5,0.7-0.9,1.2-1.2c0.5-0.3,1.1-0.4,1.7-0.4c0.6,0,1.2,0.1,1.7,0.4c0.5,0.3,0.9,0.7,1.2,1.2c0.3,0.5,0.4,1.1,0.4,1.7
			c0,0.6-0.1,1.2-0.4,1.7c-0.3,0.5-0.7,0.9-1.2,1.2c-0.5,0.3-1.1,0.4-1.7,0.4C96,95.9,95.4,95.8,94.9,95.5z M97.8,94.8
			c0.4-0.2,0.7-0.5,0.9-0.9c0.2-0.4,0.3-0.8,0.3-1.3c0-0.5-0.1-0.9-0.3-1.3c-0.2-0.4-0.5-0.7-0.9-0.9c-0.4-0.2-0.8-0.3-1.2-0.3
			c-0.5,0-0.9,0.1-1.2,0.3c-0.4,0.2-0.7,0.5-0.9,0.9c-0.2,0.4-0.3,0.8-0.3,1.3c0,0.5,0.1,0.9,0.3,1.3c0.2,0.4,0.5,0.7,0.9,0.9
			c0.4,0.2,0.8,0.3,1.2,0.3C97.1,95.1,97.5,95,97.8,94.8z"/>
		<path class="st0" d="M105,89.5h0.9V95h3.2v0.8H105V89.5z"/>
		<path class="st0" d="M114,89.5h0.9v6.3H114V89.5z"/>
		<path class="st0" d="M120,89.5h1l2,5l2-5h1l-2.5,6.3h-0.9L120,89.5z"/>
		<path class="st0" d="M131,89.5h0.9v6.3H131V89.5z"/>
		<path class="st0" d="M139.5,89.5h0.9l2.5,6.3H142l-0.6-1.6h-2.8l-0.6,1.6H137L139.5,89.5z M141.1,93.4l-1.1-2.9l-1.1,2.9H141.1z"
			/>
	</g>
</g>
</svg>
