<?xml version="1.0" encoding="utf-8"?>
<!-- Generator: Adobe Illustrator 24.0.1, SVG Export Plug-In . SVG Version: 6.00 Build 0)  -->
<svg version="1.1" id="Capa_1" xmlns="http://www.w3.org/2000/svg" xmlns:xlink="http://www.w3.org/1999/xlink" x="0px" y="0px"
	 viewBox="0 0 188.49 188.49" style="enable-background:new 0 0 188.49 188.49;" xml:space="preserve">
<style type="text/css">
	.st0{fill:none;stroke:#ebebeb;stroke-width:0.25;stroke-miterlimit:10;}
	.st1{fill:#ffffff;}
</style>
<rect x="3.8" y="3.8" class="st0" width="180.88" height="180.88"/>
<g>
	<g>
		<path class="st1" d="M75.16,73.45v15.58c0,9.01-4.84,12.47-12.54,12.47c-7.7,0-12.54-3.45-12.54-12.47V73.45H57V87.3
			c0,5.91,2.21,8.15,5.63,8.15c3.42,0,5.63-2.24,5.63-8.15V73.45H75.16z"/>
		<path class="st1" d="M138.4,94c0,7.08-7.22,7.08-11.54,7.08h-13.5V73.45h13.16c3,0,11.54,0,11.54,7.25c0,3.52-2.04,5.73-5.53,6.67
			C136.64,88.34,138.4,90.52,138.4,94 M120.27,79.32v5.63h6.94c2.38,0,3.87-1.11,3.87-2.94c0-1.87-1.55-2.69-4.21-2.69H120.27z
			 M131.42,92.52c0-1.83-1.49-2.59-3.87-2.59h-7.29v5.28h6.94C129.87,95.21,131.42,94.38,131.42,92.52"/>
		<path class="st1" d="M109.68,101.95L109.68,101.95c-2.74-0.55-5.52-0.96-8.35-1.23l-2.28-9.09c0.71-0.21,1.41-0.42,2.11-0.66
			c1.19-0.4,2.58-0.78,3.71-1.48L109.68,101.95z"/>
		<path class="st1" d="M87.99,94.55l-1.55,6.17c-2.83,0.26-5.61,0.67-8.34,1.23h-0.01l1.03-2.68c0,0,0,0,0,0
			c1.19-1.72,3-2.77,4.93-3.5C85.33,95.27,86.66,94.9,87.99,94.55"/>
		<path class="st1" d="M80.67,93.12c-0.54-1.96,1.41-3.28,2.95-3.94c1.81-0.78,3.79-1.24,5.7-1.69c1.94-0.45,3.87-0.86,5.81-1.32
			c1.88-0.45,3.77-0.88,5.61-1.5c1.9-0.64,3.88-1.57,4.65-3.55c0.68,1.86-0.49,3.53-2.07,4.41c-1.78,0.98-3.9,1.45-5.85,1.95
			c-2,0.51-4.01,1.01-6.02,1.49c-2,0.48-3.92,0.88-5.97,1.53C83.82,91.02,81.85,91.76,80.67,93.12"/>
		<path class="st1" d="M103.48,81.83c-0.62,0.63-1.47,1.03-2.28,1.35c-1.98,0.76-4.01,1.33-6.07,1.82
			c-3.68,0.88-4.49,0.84-8.65,2.03c-2.51,0.73-3.57,1.42-4.07,1.87c-0.05-1.09,0.72-1.86,1.63-2.37l5.08-13.17h4.18l-2.81,11.22
			c2.15-0.47,4.31-0.92,6.43-1.49l-2.44-9.73h4.18l3.11,8.07c0.97-0.48,1.83-1.12,2.31-2.12C104.45,80.16,104.11,81.2,103.48,81.83"
			/>
		<path class="st1" d="M79.16,98.03c-0.42-2.67,2.02-4.54,4.16-5.52c2.49-1.14,5.21-1.65,7.85-2.28c2.82-0.67,5.65-1.36,8.44-2.15
			c2.65-0.74,5.88-1.65,7.09-4.38c0.56,1.25,0.06,2.83-0.85,3.78c-1.19,1.23-3.11,1.72-4.68,2.25c-2.18,0.74-4.43,1.3-6.66,1.9
			c-1.28,0.34-2.56,0.67-3.84,1c-2.2,0.57-4.45,1.07-6.58,1.88C82.16,95.26,80.34,96.31,79.16,98.03"/>
	</g>
	<g>
		<path class="st1" d="M39.48,115.97c-0.24-0.24-0.36-0.58-0.36-1.01v-2.18h0.51v2.2c0,0.29,0.08,0.52,0.25,0.67
			c0.17,0.15,0.39,0.23,0.68,0.23c0.29,0,0.51-0.08,0.68-0.23c0.17-0.15,0.25-0.37,0.25-0.67v-2.2H42v2.18c0,0.42-0.12,0.76-0.36,1
			c-0.24,0.25-0.6,0.37-1.07,0.37C40.08,116.33,39.73,116.21,39.48,115.97z"/>
		<path class="st1" d="M44.87,112.78h0.48l1.78,2.62v-2.62h0.51v3.47h-0.49l-1.78-2.62v2.62h-0.51V112.78z"/>
		<path class="st1" d="M50.54,112.78h0.51v3.47h-0.51V112.78z"/>
		<path class="st1" d="M53.84,112.78h0.54l1.1,2.78l1.1-2.78h0.54l-1.39,3.47h-0.49L53.84,112.78z"/>
		<path class="st1" d="M59.91,112.78h2.3v0.43h-1.79v1.1h1.34v0.42h-1.34v1.1h1.79v0.42h-2.3V112.78z"/>
		<path class="st1" d="M64.98,112.78h1.4c0.37,0,0.66,0.09,0.86,0.27c0.2,0.18,0.3,0.44,0.3,0.78c0,0.25-0.07,0.47-0.2,0.65
			c-0.14,0.18-0.33,0.3-0.58,0.36l0.77,1.41H67l-0.74-1.37h-0.76v1.37h-0.51V112.78z M66.3,114.46c0.22,0,0.4-0.05,0.53-0.16
			c0.13-0.1,0.2-0.26,0.2-0.46c0-0.23-0.06-0.39-0.19-0.48c-0.13-0.1-0.31-0.14-0.54-0.14h-0.81v1.25H66.3z"/>
		<path class="st1" d="M70.71,116.28c-0.19-0.03-0.35-0.08-0.48-0.14v-0.46c0.32,0.15,0.66,0.22,1.03,0.22
			c0.52,0,0.78-0.17,0.78-0.52c0-0.12-0.03-0.22-0.08-0.29c-0.06-0.07-0.14-0.14-0.24-0.19c-0.11-0.05-0.28-0.13-0.52-0.23
			c-0.33-0.13-0.57-0.28-0.71-0.44c-0.15-0.16-0.22-0.36-0.22-0.6c0-0.18,0.05-0.34,0.15-0.48c0.1-0.14,0.24-0.25,0.42-0.33
			c0.18-0.08,0.39-0.12,0.62-0.12c0.19,0,0.36,0.01,0.51,0.04c0.15,0.03,0.3,0.08,0.45,0.14v0.44c-0.29-0.13-0.58-0.19-0.88-0.19
			c-0.24,0-0.42,0.04-0.55,0.13c-0.13,0.09-0.19,0.21-0.19,0.37c0,0.11,0.03,0.2,0.08,0.28c0.05,0.07,0.14,0.14,0.24,0.2
			c0.11,0.06,0.27,0.13,0.48,0.22c0.24,0.1,0.42,0.19,0.56,0.27c0.14,0.09,0.24,0.19,0.31,0.32c0.07,0.12,0.11,0.28,0.11,0.46
			c0,0.3-0.11,0.53-0.32,0.7c-0.22,0.17-0.54,0.25-0.96,0.25C71.11,116.33,70.91,116.31,70.71,116.28z"/>
		<path class="st1" d="M75.38,112.78h0.51v3.47h-0.51V112.78z"/>
		<path class="st1" d="M78.79,112.78h1.12c0.38,0,0.7,0.07,0.98,0.21c0.28,0.14,0.49,0.34,0.64,0.6c0.15,0.26,0.22,0.56,0.22,0.91
			c0,0.58-0.17,1.01-0.5,1.31c-0.33,0.3-0.8,0.44-1.4,0.44h-1.05V112.78z M79.84,115.83c0.47,0,0.82-0.11,1.05-0.34
			c0.23-0.23,0.35-0.56,0.35-0.99c0-0.4-0.11-0.71-0.34-0.94c-0.23-0.23-0.55-0.35-0.98-0.35H79.3v2.62H79.84z"/>
		<path class="st1" d="M85.51,112.78H86l1.39,3.47h-0.52l-0.35-0.86h-1.54l-0.34,0.86h-0.52L85.51,112.78z M86.39,114.97l-0.63-1.62
			l-0.63,1.62H86.39z"/>
		<path class="st1" d="M90.19,112.78h1.12c0.38,0,0.7,0.07,0.98,0.21c0.28,0.14,0.49,0.34,0.64,0.6c0.15,0.26,0.22,0.56,0.22,0.91
			c0,0.58-0.17,1.01-0.5,1.31c-0.33,0.3-0.8,0.44-1.4,0.44h-1.05V112.78z M91.24,115.83c0.47,0,0.82-0.11,1.05-0.34
			c0.23-0.23,0.35-0.56,0.35-0.99c0-0.4-0.11-0.71-0.34-0.94c-0.23-0.23-0.55-0.35-0.98-0.35H90.7v2.62H91.24z"/>
		<path class="st1" d="M101.33,112.78h0.49l1.39,3.47h-0.52l-0.35-0.86h-1.54l-0.34,0.86h-0.52L101.33,112.78z M102.2,114.97
			l-0.63-1.62l-0.63,1.62H102.2z"/>
		<path class="st1" d="M106,112.78h1.12c0.38,0,0.7,0.07,0.98,0.21c0.28,0.14,0.49,0.34,0.64,0.6c0.15,0.26,0.22,0.56,0.22,0.91
			c0,0.58-0.17,1.01-0.5,1.31c-0.33,0.3-0.8,0.44-1.4,0.44H106V112.78z M107.05,115.83c0.47,0,0.82-0.11,1.05-0.34
			c0.23-0.23,0.35-0.56,0.35-0.99c0-0.4-0.11-0.71-0.34-0.94c-0.23-0.23-0.55-0.35-0.98-0.35h-0.62v2.62H107.05z"/>
		<path class="st1" d="M111.33,112.78h0.54l1.1,2.78l1.1-2.78h0.54l-1.39,3.47h-0.49L111.33,112.78z"/>
		<path class="st1" d="M117.4,112.78h2.3v0.43h-1.79v1.1h1.34v0.42h-1.34v1.1h1.79v0.42h-2.3V112.78z"/>
		<path class="st1" d="M122.47,112.78h0.48l1.78,2.62v-2.62h0.51v3.47h-0.49l-1.78-2.62v2.62h-0.51V112.78z"/>
		<path class="st1" d="M129.02,113.21h-1.08v-0.43h2.68v0.43h-1.08v3.04h-0.51V113.21z"/>
		<path class="st1" d="M133.32,112.78h0.51v3.47h-0.51V112.78z"/>
		<path class="st1" d="M137.1,116.28c-0.19-0.03-0.35-0.08-0.48-0.14v-0.46c0.32,0.15,0.66,0.22,1.03,0.22
			c0.52,0,0.78-0.17,0.78-0.52c0-0.12-0.03-0.22-0.08-0.29c-0.06-0.07-0.14-0.14-0.24-0.19c-0.11-0.05-0.28-0.13-0.52-0.23
			c-0.33-0.13-0.57-0.28-0.71-0.44c-0.15-0.16-0.22-0.36-0.22-0.6c0-0.18,0.05-0.34,0.15-0.48c0.1-0.14,0.24-0.25,0.42-0.33
			c0.18-0.08,0.39-0.12,0.62-0.12c0.19,0,0.36,0.01,0.51,0.04c0.15,0.03,0.3,0.08,0.45,0.14v0.44c-0.29-0.13-0.58-0.19-0.88-0.19
			c-0.24,0-0.42,0.04-0.55,0.13c-0.13,0.09-0.19,0.21-0.19,0.37c0,0.11,0.03,0.2,0.08,0.28c0.05,0.07,0.14,0.14,0.24,0.2
			c0.11,0.06,0.27,0.13,0.48,0.22c0.24,0.1,0.42,0.19,0.56,0.27c0.14,0.09,0.24,0.19,0.31,0.32c0.07,0.12,0.11,0.28,0.11,0.46
			c0,0.3-0.11,0.53-0.32,0.7c-0.22,0.17-0.54,0.25-0.96,0.25C137.49,116.33,137.29,116.31,137.1,116.28z"/>
		<path class="st1" d="M142.53,113.21h-1.08v-0.43h2.68v0.43h-1.08v3.04h-0.51V113.21z"/>
		<path class="st1" d="M147.49,112.78h0.49l1.39,3.47h-0.52l-0.35-0.86h-1.54l-0.34,0.86h-0.52L147.49,112.78z M148.36,114.97
			l-0.63-1.62l-0.63,1.62H148.36z"/>
		<path class="st1" d="M70.47,121.06h1.12c0.38,0,0.7,0.07,0.98,0.21c0.28,0.14,0.49,0.34,0.64,0.6c0.15,0.26,0.22,0.56,0.22,0.91
			c0,0.58-0.17,1.01-0.5,1.31c-0.33,0.3-0.8,0.44-1.4,0.44h-1.05V121.06z M71.52,124.11c0.47,0,0.82-0.11,1.05-0.34
			c0.23-0.23,0.35-0.56,0.35-0.99c0-0.4-0.11-0.71-0.34-0.94c-0.23-0.23-0.55-0.35-0.98-0.35h-0.62v2.62H71.52z"/>
		<path class="st1" d="M76.22,121.06h2.3v0.43h-1.79v1.1h1.34v0.42h-1.34v1.1h1.79v0.42h-2.3V121.06z"/>
		<path class="st1" d="M85.39,121.06h1.6c0.31,0,0.55,0.08,0.72,0.24c0.17,0.16,0.25,0.39,0.25,0.7c0,0.17-0.04,0.32-0.12,0.45
			c-0.08,0.13-0.19,0.23-0.32,0.29c0.37,0.11,0.56,0.38,0.56,0.81c0,0.2-0.04,0.38-0.13,0.52c-0.09,0.15-0.21,0.26-0.36,0.34
			c-0.15,0.08-0.32,0.12-0.51,0.12h-1.69V121.06z M86.92,122.55c0.16,0,0.29-0.04,0.38-0.13c0.09-0.09,0.14-0.22,0.14-0.4
			c0-0.2-0.05-0.34-0.14-0.42c-0.09-0.08-0.23-0.12-0.42-0.12h-0.99v1.08H86.92z M86.96,124.12c0.2,0,0.35-0.04,0.45-0.13
			c0.1-0.09,0.15-0.23,0.15-0.44c0-0.21-0.05-0.36-0.16-0.45c-0.11-0.09-0.27-0.13-0.49-0.13h-1.02v1.15H86.96z"/>
		<path class="st1" d="M91.54,124.38c-0.28-0.15-0.5-0.36-0.66-0.64c-0.16-0.27-0.24-0.59-0.24-0.94c0-0.35,0.08-0.67,0.24-0.94
			c0.16-0.27,0.38-0.49,0.66-0.64c0.28-0.15,0.59-0.23,0.94-0.23c0.35,0,0.66,0.08,0.94,0.23c0.28,0.15,0.5,0.37,0.66,0.64
			c0.16,0.27,0.24,0.59,0.24,0.94c0,0.35-0.08,0.67-0.24,0.94c-0.16,0.27-0.38,0.49-0.66,0.64c-0.28,0.15-0.59,0.23-0.94,0.23
			C92.14,124.61,91.82,124.53,91.54,124.38z M93.15,123.99c0.2-0.11,0.36-0.27,0.48-0.47c0.12-0.2,0.17-0.44,0.17-0.71
			c0-0.27-0.06-0.5-0.17-0.71c-0.11-0.2-0.27-0.36-0.47-0.47c-0.2-0.11-0.42-0.17-0.67-0.17c-0.25,0-0.47,0.05-0.68,0.16
			c-0.2,0.11-0.36,0.27-0.48,0.47c-0.12,0.21-0.18,0.44-0.18,0.71c0,0.27,0.06,0.51,0.17,0.71c0.12,0.2,0.28,0.36,0.48,0.47
			c0.2,0.11,0.42,0.17,0.67,0.17C92.73,124.15,92.95,124.1,93.15,123.99z"/>
		<path class="st1" d="M97.11,121.06h0.51v3.05h1.77v0.42h-2.28V121.06z"/>
		<path class="st1" d="M102.08,121.06h0.51v3.47h-0.51V121.06z"/>
		<path class="st1" d="M105.39,121.06h0.54l1.1,2.78l1.1-2.78h0.54l-1.39,3.47h-0.49L105.39,121.06z"/>
		<path class="st1" d="M111.46,121.06h0.51v3.47h-0.51V121.06z"/>
		<path class="st1" d="M116.16,121.06h0.49l1.39,3.47h-0.52l-0.35-0.86h-1.54l-0.34,0.86h-0.52L116.16,121.06z M117.03,123.25
			l-0.63-1.62l-0.63,1.62H117.03z"/>
	</g>
</g>
</svg>
