<?xml version="1.0" encoding="utf-8"?>
<!-- Generator: Adobe Illustrator 24.0.1, SVG Export Plug-In . SVG Version: 6.00 Build 0)  -->
<svg version="1.1" xmlns="http://www.w3.org/2000/svg" xmlns:xlink="http://www.w3.org/1999/xlink" x="0px" y="0px"
	 viewBox="0 0 424.91 66.39" style="enable-background:new 0 0 424.91 66.39;" xml:space="preserve">
<style type="text/css">
	.st0{fill:#003264;}
	.st1{font-family:'Prompt-Regular';}
	.st2{font-size:20px;}
	.st3{fill:#F6F6F6;}
	.st4{display:none;}
	.st5{display:inline;fill:#003264;}
	.st6{display:inline;}
	.st7{fill-rule:evenodd;clip-rule:evenodd;fill:#003264;}
	.st8{display:inline;fill:#F6F6F6;}
	.st9{fill-rule:evenodd;clip-rule:evenodd;fill:#F6F6F6;}
</style>
<g id="Capa_1">
	<g>
		<path class="st0" d="M424.91,66.39H0V0h424.91V66.39z M0.25,66.14h424.41V0.25H0.25V66.14z"/>
	</g>
	<g>
		<text transform="matrix(1 0 0 1 181.7773 42.2402)" class="st0 st1 st2">Facebook</text>
	</g>
	<rect x="0.25" class="st0" width="66.14" height="66.14"/>
	<path class="st3" d="M56.19,33.05c0,11.98-9.2,21.83-20.89,22.77c-0.64,0.12-1.3,0.12-1.95,0.12c-1.71,0-3.37-0.17-4.96-0.52
		C18.12,53.1,10.45,43.95,10.45,33.05c0-12.63,10.28-22.84,22.9-22.84C45.98,10.2,56.19,20.42,56.19,33.05z"/>
	<g>
		<path class="st0" d="M34.36,26.6c0.22-0.26,0.67-0.45,1.32-0.45c0.6,0,1.31,0.08,1.99,0.27l0.57-3.05
			c-1.16-0.41-2.36-0.52-3.6-0.52c-1.24,0-2.22,0.19-3,0.64c-0.79,0.45-1.32,0.94-1.61,1.66c-0.3,0.63-0.45,1.72-0.45,3.07v1.2
			h-2.41v3.49h2.41v10.96c1.01,0.22,2.06,0.33,3.15,0.33c0.41,0,0.83,0,1.24-0.07V32.9h3.19v-3.49h-3.19v-1.13
			C33.95,27.43,34.06,26.9,34.36,26.6z"/>
	</g>
</g>
<g id="Capa_2" class="st4">
	<rect x="0.25" y="72.88" class="st5" width="66.14" height="66.14"/>
	<rect x="0.25" y="145.76" class="st5" width="66.14" height="66.14"/>
	<rect x="0.25" y="218.63" class="st5" width="66.14" height="66.14"/>
	<rect x="0.25" y="291.51" class="st5" width="66.14" height="66.14"/>
	<rect x="0.25" y="364.39" class="st5" width="66.14" height="66.14"/>
	<g class="st6">
		<path class="st3" d="M55.56,105.95c0,12.64-10.25,22.88-22.88,22.88c-12.63,0-22.87-10.23-22.87-22.88
			c0-12.63,10.23-22.88,22.87-22.88C45.31,83.07,55.56,93.32,55.56,105.95z"/>
		<g>
			<path class="st7" d="M42.1,103.67c-1.05-4.4-4.84-7.39-9.42-7.46c-0.6,0.03-1.25,0.07-1.85,0.19c-6.41,1.28-9.71,8.36-6.61,14.07
				c0.11,0.16,0.11,0.3,0.09,0.48c-0.45,1.47-0.87,2.99-1.27,4.48c-0.07,0.26-0.07,0.26,0.18,0.19c1.56-0.43,3.12-0.82,4.68-1.21
				c0.14-0.04,0.23-0.04,0.35,0.02c2.01,1.02,4.12,1.3,6.34,0.89C39.89,114.31,43.36,108.91,42.1,103.67z M34.04,113.78
				c-0.46,0.09-0.9,0.13-1.11,0.1c-1.71,0-3.08-0.38-4.35-1.12c-0.18-0.11-0.32-0.14-0.49-0.08c-0.87,0.22-1.72,0.45-2.59,0.67
				c-0.18,0.05-0.2,0.02-0.16-0.16c0.23-0.79,0.44-1.61,0.7-2.43c0.06-0.22,0.04-0.39-0.1-0.58c-1.75-2.84-1.67-6.36,0.28-8.99
				c2.04-2.72,4.84-3.86,8.17-3.14c3.28,0.69,5.38,2.83,6.13,6.09C41.57,108.6,38.55,113.05,34.04,113.78z"/>
			<path class="st7" d="M35.21,110.47c-0.34,0.03-0.68-0.03-1-0.13c-2.21-0.64-3.88-2-5.22-3.84c-0.5-0.68-0.98-1.41-1.12-2.27
				c-0.2-1,0.11-1.89,0.87-2.58c0.25-0.24,0.99-0.35,1.29-0.19c0.1,0.08,0.15,0.16,0.21,0.26c0.27,0.69,0.57,1.32,0.84,1.98
				c0.04,0.13,0.03,0.27-0.04,0.41c-0.15,0.3-0.37,0.55-0.59,0.8c-0.19,0.16-0.19,0.34-0.06,0.53c0.79,1.32,1.86,2.26,3.3,2.83
				c0.21,0.09,0.37,0.05,0.5-0.11c0.25-0.29,0.49-0.6,0.72-0.9c0.14-0.19,0.33-0.22,0.54-0.13c0.47,0.21,0.94,0.44,1.39,0.64
				c0.13,0.07,0.21,0.11,0.33,0.15c0.48,0.24,0.48,0.27,0.42,0.78c-0.06,1.01-0.84,1.52-1.72,1.77
				C35.61,110.5,35.42,110.5,35.21,110.47z"/>
		</g>
	</g>
	<g class="st6">
		<path class="st3" d="M55.56,178.83c0,12.63-10.23,22.88-22.88,22.88c-12.62,0-22.86-10.24-22.86-22.88s10.24-22.89,22.86-22.89
			C45.32,155.94,55.56,166.2,55.56,178.83z"/>
		<g>
			<path class="st7" d="M39.72,169.29c-4.68,0-9.38,0-14.06,0c-1.67,0-2.54,0.87-2.54,2.55c0,2.32,0,4.64,0,6.99
				c0,2.32,0,4.69,0,7.04c0,1.61,0.89,2.5,2.46,2.5c4.73,0,9.43,0,14.14,0c1.63,0,2.53-0.89,2.53-2.53c0-4.69,0-9.36,0-14.06
				C42.25,170.16,41.35,169.29,39.72,169.29z M38.17,171.44c1.89,0,1.89,0,1.89,1.89c0,1.85,0,1.85-1.86,1.85
				c-1.88,0-1.88,0-1.88-1.88C36.32,171.44,36.32,171.44,38.17,171.44z M32.7,175.12c1.99,0,3.71,1.72,3.67,3.71
				c-0.02,2.03-1.71,3.72-3.74,3.69c-2.01-0.05-3.71-1.74-3.66-3.74C29.02,176.78,30.7,175.12,32.7,175.12z M40.06,185.06
				c-0.02,0.89-0.25,1.14-1.14,1.14c-2.08,0-4.17,0-6.25,0c-2.07,0-4.15,0-6.24,0c-0.87,0-1.12-0.26-1.12-1.14
				c0-2.29,0.01-4.63-0.03-6.95c0-0.66,0.18-0.81,0.79-0.78c0.87,0.06,0.89,0.02,0.79,0.87c-0.34,2.96,1.71,5.82,4.61,6.38
				c3,0.58,6-1.22,6.82-4.09c0.25-0.9,0.32-1.85,0.13-2.74c-0.07-0.33,0.02-0.4,0.31-0.4c1.32-0.1,1.32-0.12,1.32,1.24
				C40.06,180.73,40.06,182.9,40.06,185.06z"/>
		</g>
	</g>
	<path class="st8" d="M55.54,251.71c0,12.62-10.24,22.86-22.86,22.86c-12.64,0-22.88-10.24-22.88-22.86
		c0-12.65,10.23-22.89,22.88-22.89C45.3,228.83,55.54,239.06,55.54,251.71z"/>
	<g class="st6">
		<path class="st7" d="M22.07,258.49c1.58,0.1,3.12-0.13,4.57-0.78c0.65-0.29,1.24-0.64,1.83-1.1c-0.69-0.02-1.32-0.19-1.89-0.47
			c-0.98-0.5-1.67-1.28-2.09-2.34c-0.09-0.23-0.09-0.23,0.16-0.22c0.7,0.07,1.21,0.05,1.61-0.1c-0.38-0.13-0.74-0.2-1.03-0.4
			c-1.46-0.81-2.24-2.06-2.37-3.74c-0.02-0.19,0.04-0.22,0.22-0.13c0.51,0.29,1.07,0.4,1.72,0.47c-0.28-0.25-0.52-0.45-0.74-0.67
			c-1.21-1.3-1.5-3.37-0.69-4.96c0.11-0.22,0.15-0.22,0.3-0.05c2.04,2.35,4.58,3.77,7.64,4.26c0.31,0.06,0.65,0.06,0.97,0.13
			c0.22,0.03,0.24-0.07,0.21-0.23c-0.32-1.84,0.54-3.66,2.17-4.58c1.66-0.97,3.82-0.67,5.16,0.64c0.16,0.13,0.3,0.16,0.48,0.12
			c0.82-0.19,1.59-0.49,2.31-0.91c0.06-0.02,0.11-0.05,0.19-0.12c-0.31,1.04-0.93,1.81-1.85,2.42c0.85-0.08,1.61-0.33,2.36-0.61
			c0.02,0.1-0.06,0.16-0.11,0.25c-0.51,0.7-1.11,1.32-1.82,1.86c-0.13,0.1-0.16,0.19-0.16,0.35c0.05,3.21-0.97,6.07-3.02,8.56
			c-1.93,2.26-4.39,3.63-7.31,4.1c-3.11,0.48-6.03-0.03-8.71-1.69C22.14,258.5,22.1,258.49,22.07,258.49z"/>
	</g>
	<g class="st6">
		<path class="st3" d="M55.65,324.66c0,12.62-10.24,22.86-22.86,22.86c-12.64,0-22.88-10.24-22.88-22.86
			c0-12.65,10.23-22.89,22.88-22.89C45.41,301.77,55.65,312.01,55.65,324.66z"/>
		<path class="st7" d="M40.91,330.56H24.65c-0.82,0-1.48-0.66-1.48-1.48v-9.38c0-0.82,0.66-1.48,1.48-1.48h16.27
			c0.82,0,1.48,0.66,1.48,1.48v9.38C42.39,329.9,41.73,330.56,40.91,330.56z"/>
		<polyline class="st9" points="30.2,321 36.44,324.58 30.2,328.16 		"/>
	</g>
	<g class="st6">
		<path class="st3" d="M55.65,397.47c0,12.62-10.24,22.86-22.86,22.86c-12.64,0-22.88-10.24-22.88-22.86
			c0-12.65,10.23-22.89,22.88-22.89C45.41,374.58,55.65,384.82,55.65,397.47z"/>
	</g>
	<g id="HKfVWA_2_" class="st6">
		<g>
			<path class="st0" d="M39.88,394.96c-1.42-0.18-2.7-0.69-3.9-1.5c-0.01,0.09-0.02,0.15-0.02,0.2c0,2.33,0,4.65,0,6.98
				c0,3.26-2.17,5.95-5.37,6.56c-2.22,0.42-4.17-0.19-5.84-1.72c-1.44-1.33-2.11-2.99-2.04-4.91c0.09-2.68,1.39-4.62,3.78-5.84
				c1.13-0.57,2.33-0.72,3.58-0.58c0.12,0.01,0.19,0.04,0.19,0.18c0,1.13,0,2.26-0.01,3.39c0,0.02-0.01,0.04-0.02,0.08
				c-0.08-0.01-0.15-0.03-0.23-0.04c-1.18-0.22-2.19,0.1-2.97,1.01c-0.76,0.9-0.91,1.94-0.5,3.03c0.46,1.23,1.95,2.1,3.37,1.83
				c1.39-0.27,2.43-1.5,2.43-2.9c0-4.67,0-9.33,0-14c0-0.3,0.02-0.32,0.31-0.32c0.71,0,1.42,0,2.13,0c0.18,0,0.27,0.07,0.3,0.24
				c0.27,1.2,0.92,2.13,1.87,2.9c0.82,0.66,1.75,0.96,2.77,1.02c0.12,0.01,0.21,0,0.21,0.17c-0.01,1.37,0,2.75-0.01,4.12
				C39.9,394.89,39.89,394.91,39.88,394.96z"/>
		</g>
	</g>
	<g class="st6">
		<text transform="matrix(1 0 0 1 178.5674 115.1182)" class="st0 st1 st2">WathsApp</text>
	</g>
	<g class="st6">
		<text transform="matrix(1 0 0 1 181.9575 187.9961)" class="st0 st1 st2">Instagram</text>
	</g>
	<g class="st6">
		<text transform="matrix(1 0 0 1 195.457 260.874)" class="st0 st1 st2">Twitter</text>
	</g>
	<g class="st6">
		<text transform="matrix(1 0 0 1 187.7671 333.752)" class="st0 st1 st2">Youtube</text>
	</g>
	<g class="st6">
		<text transform="matrix(1 0 0 1 197.5674 406.6299)" class="st0 st1 st2">TikTok</text>
	</g>
</g>
</svg>
