<?xml version="1.0" encoding="utf-8"?>
<!-- Generator: Adobe Illustrator 24.0.1, SVG Export Plug-In . SVG Version: 6.00 Build 0)  -->
<svg version="1.1" xmlns="http://www.w3.org/2000/svg" xmlns:xlink="http://www.w3.org/1999/xlink" x="0px" y="0px"
	 viewBox="0 0 424.91 66.39" style="enable-background:new 0 0 424.91 66.39;" xml:space="preserve">
<style type="text/css">
	.st0{fill:#003264;}
	.st1{fill:#F6F6F6;}
	.st2{fill-rule:evenodd;clip-rule:evenodd;fill:#003264;}
	.st3{font-family:'Prompt-Regular';}
	.st4{font-size:20px;}
</style>
<g id="Capa_3">
	<g>
		<path class="st0" d="M424.91,66.39H0V0h424.91V66.39z M0.25,66.14h424.41V0.25H0.25V66.14z"/>
	</g>
</g>
<g id="Capa_1">
</g>
<g id="Capa_2">
	<rect x="0.25" y="0.13" class="st0" width="66.14" height="66.14"/>
	<g>
		<path class="st1" d="M55.56,33.2c0,12.63-10.23,22.88-22.88,22.88c-12.62,0-22.86-10.24-22.86-22.88s10.24-22.89,22.86-22.89
			C45.32,10.31,55.56,20.57,55.56,33.2z"/>
		<g>
			<path class="st2" d="M39.72,23.66c-4.68,0-9.38,0-14.06,0c-1.67,0-2.54,0.87-2.54,2.55c0,2.32,0,4.64,0,6.99
				c0,2.32,0,4.69,0,7.04c0,1.61,0.89,2.5,2.46,2.5c4.73,0,9.43,0,14.14,0c1.63,0,2.53-0.89,2.53-2.53c0-4.69,0-9.36,0-14.06
				C42.25,24.53,41.35,23.66,39.72,23.66z M38.17,25.81c1.89,0,1.89,0,1.89,1.89c0,1.85,0,1.85-1.86,1.85c-1.88,0-1.88,0-1.88-1.88
				C36.32,25.81,36.32,25.81,38.17,25.81z M32.7,29.49c1.99,0,3.71,1.72,3.67,3.71c-0.02,2.03-1.71,3.72-3.74,3.69
				c-2.01-0.05-3.71-1.74-3.66-3.74C29.02,31.15,30.7,29.49,32.7,29.49z M40.06,39.43c-0.02,0.89-0.25,1.14-1.14,1.14
				c-2.08,0-4.17,0-6.25,0c-2.07,0-4.15,0-6.24,0c-0.87,0-1.12-0.26-1.12-1.14c0-2.29,0.01-4.63-0.03-6.95
				c0-0.66,0.18-0.81,0.79-0.78c0.87,0.06,0.89,0.02,0.79,0.87c-0.34,2.96,1.71,5.82,4.61,6.38c3,0.58,6-1.22,6.82-4.09
				c0.25-0.9,0.32-1.85,0.13-2.74c-0.07-0.33,0.02-0.4,0.31-0.4c1.32-0.1,1.32-0.12,1.32,1.24C40.06,35.1,40.06,37.27,40.06,39.43z"
				/>
		</g>
	</g>
	<g>
		<text transform="matrix(1 0 0 1 181.9575 40.9343)" class="st0 st3 st4">Instagram</text>
	</g>
</g>
<g id="Capa_4">
</g>
</svg>
