<?xml version="1.0" encoding="utf-8"?>
<!-- Generator: Adobe Illustrator 24.0.1, SVG Export Plug-In . SVG Version: 6.00 Build 0)  -->
<svg version="1.1" xmlns="http://www.w3.org/2000/svg" xmlns:xlink="http://www.w3.org/1999/xlink" x="0px" y="0px"
	 viewBox="0 0 424.91 66.39" style="enable-background:new 0 0 424.91 66.39;" xml:space="preserve">
<style type="text/css">
	.st0{fill:#003264;}
	.st1{fill:#F6F6F6;}
	.st2{fill-rule:evenodd;clip-rule:evenodd;fill:#003264;}
	.st3{font-family:'Prompt-Regular';}
	.st4{font-size:20px;}
</style>
<g id="Capa_3">
	<g>
		<path class="st0" d="M424.91,66.39H0V0h424.91V66.39z M0.25,66.14h424.41V0.25H0.25V66.14z"/>
	</g>
</g>
<g id="Capa_1">
</g>
<g id="Capa_2">
	<rect x="0.18" y="0.13" class="st0" width="66.14" height="66.14"/>
	<path class="st1" d="M55.47,33.21c0,12.62-10.24,22.86-22.86,22.86c-12.64,0-22.88-10.24-22.88-22.86
		c0-12.65,10.23-22.89,22.88-22.89C45.22,10.32,55.47,20.55,55.47,33.21z"/>
	<g>
		<path class="st2" d="M22,39.98c1.58,0.1,3.12-0.13,4.57-0.78c0.65-0.29,1.24-0.64,1.83-1.1c-0.69-0.02-1.32-0.19-1.89-0.47
			c-0.98-0.5-1.67-1.28-2.09-2.34c-0.09-0.23-0.09-0.23,0.16-0.22c0.7,0.07,1.21,0.05,1.61-0.1c-0.38-0.13-0.74-0.2-1.03-0.4
			c-1.46-0.81-2.24-2.06-2.37-3.74c-0.02-0.19,0.04-0.22,0.22-0.13c0.51,0.29,1.07,0.4,1.72,0.47c-0.28-0.25-0.52-0.45-0.74-0.67
			c-1.21-1.3-1.5-3.37-0.69-4.96c0.11-0.22,0.15-0.22,0.3-0.05c2.04,2.35,4.58,3.77,7.64,4.26c0.31,0.06,0.65,0.06,0.97,0.13
			c0.22,0.03,0.24-0.07,0.21-0.23c-0.32-1.84,0.54-3.66,2.17-4.58c1.66-0.97,3.82-0.67,5.16,0.64c0.16,0.13,0.3,0.16,0.48,0.12
			c0.82-0.19,1.59-0.49,2.31-0.91c0.06-0.02,0.11-0.05,0.19-0.12c-0.31,1.04-0.93,1.81-1.85,2.42c0.85-0.08,1.61-0.33,2.36-0.61
			c0.02,0.1-0.06,0.16-0.11,0.25c-0.51,0.7-1.11,1.32-1.82,1.86c-0.13,0.1-0.16,0.19-0.16,0.35c0.05,3.21-0.97,6.07-3.02,8.56
			c-1.93,2.26-4.39,3.63-7.31,4.1c-3.11,0.48-6.03-0.03-8.71-1.69C22.06,39.99,22.02,39.98,22,39.98z"/>
	</g>
	<g>
		<text transform="matrix(1 0 0 1 205.3215 40.9343)" class="st0 st3 st4">Twitter</text>
	</g>
</g>
<g id="Capa_4">
</g>
</svg>
