<?xml version="1.0" encoding="utf-8"?>
<!-- Generator: Adobe Illustrator 24.0.1, SVG Export Plug-In . SVG Version: 6.00 Build 0)  -->
<svg version="1.1" xmlns="http://www.w3.org/2000/svg" xmlns:xlink="http://www.w3.org/1999/xlink" x="0px" y="0px"
	 viewBox="0 0 136.54 55.32" style="enable-background:new 0 0 136.54 55.32;" xml:space="preserve">
<style type="text/css">
	.st0{fill:#003264;}
</style>
<g id="Capa_2">
</g>
<g id="Capa_1">
	<g>
		<path class="st0" d="M2.49,5.78h2.04v12.28h7.08v1.7H2.49V5.78z"/>
		<path class="st0" d="M13.41,10.16h2.04v9.6h-2.04V10.16z M14.85,5.64h2.14l-1.66,3.44h-1.84L14.85,5.64z"/>
		<path class="st0" d="M18.05,10.16h1.96v1.38c0.45-0.57,1.01-1,1.67-1.27c0.66-0.27,1.35-0.41,2.07-0.41
			c1.28,0,2.23,0.34,2.86,1.02c0.63,0.68,0.94,1.59,0.94,2.74v6.14h-2.02v-5.94c0-1.56-0.75-2.34-2.24-2.34
			c-0.64,0-1.24,0.15-1.79,0.45s-1.03,0.76-1.43,1.37v6.46h-2.02V10.16z"/>
		<path class="st0" d="M31.16,18.73c-1.01-0.89-1.51-2.14-1.51-3.75c0-1.57,0.45-2.82,1.35-3.74c0.9-0.92,2.18-1.38,3.85-1.38
			c1.11,0,2.05,0.21,2.82,0.63c0.77,0.42,1.36,1,1.75,1.74c0.39,0.74,0.59,1.58,0.59,2.53v1h-8.44c0.07,0.91,0.45,1.58,1.15,2.03
			c0.7,0.45,1.65,0.67,2.85,0.67c0.61,0,1.23-0.06,1.86-0.17c0.63-0.11,1.18-0.26,1.66-0.45v1.62c-0.43,0.17-0.99,0.32-1.69,0.43
			c-0.7,0.11-1.39,0.17-2.07,0.17C33.56,20.06,32.17,19.61,31.16,18.73z M38.11,14.34c-0.03-0.91-0.32-1.61-0.89-2.11
			c-0.57-0.5-1.37-0.75-2.41-0.75c-1.01,0-1.8,0.26-2.36,0.78c-0.56,0.52-0.85,1.21-0.88,2.08H38.11z"/>
		<path class="st0" d="M42.86,19.17c-0.7-0.59-1.05-1.4-1.05-2.41c0-1.07,0.34-1.89,1.01-2.47c0.67-0.58,1.63-0.87,2.87-0.87
			c1.32,0,2.44,0.27,3.36,0.8v-0.5c0-0.76-0.23-1.32-0.69-1.69c-0.46-0.37-1.18-0.55-2.17-0.55c-0.59,0-1.16,0.06-1.71,0.17
			c-0.55,0.11-1.05,0.27-1.49,0.47v-1.64c0.4-0.19,0.92-0.34,1.56-0.45c0.64-0.11,1.26-0.17,1.86-0.17c1.59,0,2.76,0.35,3.53,1.05
			c0.77,0.7,1.15,1.67,1.15,2.91v5.94h-1.9v-1.08c-0.41,0.45-0.9,0.8-1.47,1.03c-0.57,0.23-1.26,0.35-2.07,0.35
			C44.49,20.06,43.56,19.76,42.86,19.17z M47.89,18.14c0.52-0.25,0.91-0.61,1.16-1.06v-1.3c-0.87-0.56-1.83-0.84-2.9-0.84
			c-0.77,0-1.35,0.15-1.73,0.45c-0.38,0.3-0.57,0.76-0.57,1.37c0,1.17,0.77,1.76,2.3,1.76C46.79,18.52,47.37,18.39,47.89,18.14z"/>
		<path class="st0" d="M64.15,19.16c-1.12-0.6-1.99-1.45-2.62-2.55c-0.63-1.1-0.94-2.38-0.94-3.83c0-1.45,0.31-2.73,0.94-3.84
			c0.63-1.11,1.5-1.96,2.62-2.56c1.12-0.6,2.4-0.9,3.84-0.9c1.93,0,3.54,0.48,4.82,1.44v1.96c-1.16-1.01-2.71-1.52-4.64-1.52
			c-1.05,0-2,0.22-2.84,0.66c-0.84,0.44-1.5,1.07-1.97,1.89c-0.47,0.82-0.71,1.78-0.71,2.87c0,1.09,0.23,2.05,0.7,2.88
			c0.47,0.83,1.11,1.46,1.94,1.9c0.83,0.44,1.76,0.66,2.8,0.66c1.21,0,2.21-0.25,2.98-0.74v-3.66h-2.66v-1.66h4.7v6.4
			c-0.63,0.52-1.36,0.9-2.21,1.14c-0.85,0.24-1.82,0.36-2.91,0.36C66.55,20.06,65.27,19.76,64.15,19.16z"/>
		<path class="st0" d="M75.31,10.16h1.96v1.72c0.4-0.59,0.96-1.02,1.69-1.3c0.73-0.28,1.57-0.42,2.53-0.42v1.58
			c-1.03,0-1.91,0.17-2.64,0.5c-0.73,0.33-1.24,0.86-1.52,1.58v5.94h-2.02V10.16z"/>
		<path class="st0" d="M83.04,19.17c-0.7-0.59-1.05-1.4-1.05-2.41c0-1.07,0.34-1.89,1.01-2.47c0.67-0.58,1.63-0.87,2.87-0.87
			c1.32,0,2.44,0.27,3.36,0.8v-0.5c0-0.76-0.23-1.32-0.69-1.69c-0.46-0.37-1.18-0.55-2.17-0.55c-0.59,0-1.16,0.06-1.71,0.17
			c-0.55,0.11-1.05,0.27-1.49,0.47v-1.64c0.4-0.19,0.92-0.34,1.56-0.45c0.64-0.11,1.26-0.17,1.86-0.17c1.59,0,2.76,0.35,3.53,1.05
			c0.77,0.7,1.15,1.67,1.15,2.91v5.94h-1.9v-1.08c-0.41,0.45-0.9,0.8-1.47,1.03c-0.57,0.23-1.26,0.35-2.07,0.35
			C84.67,20.06,83.74,19.76,83.04,19.17z M88.07,18.14c0.52-0.25,0.91-0.61,1.16-1.06v-1.3c-0.87-0.56-1.83-0.84-2.9-0.84
			c-0.77,0-1.35,0.15-1.73,0.45c-0.38,0.3-0.57,0.76-0.57,1.37c0,1.17,0.77,1.76,2.3,1.76C86.97,18.52,87.55,18.39,88.07,18.14z"/>
		<path class="st0" d="M94.72,19.22c-0.53-0.56-0.79-1.35-0.79-2.38v-5.12h-1.46v-1.56h1.46V7.28h2.04v2.88h2.36v1.56h-2.36v4.98
			c0,0.64,0.12,1.09,0.37,1.36c0.25,0.27,0.7,0.4,1.35,0.4c0.39,0,0.77-0.09,1.16-0.26v1.6c-0.51,0.17-1.13,0.26-1.88,0.26
			C95.99,20.06,95.24,19.78,94.72,19.22z"/>
		<path class="st0" d="M101.54,19.02c-0.66-0.69-0.99-1.62-0.99-2.78v-6.08h2.02v6c0,1.53,0.77,2.3,2.3,2.3
			c1.35,0,2.4-0.61,3.16-1.82v-6.48h2.02v9.6h-1.96V18.4c-0.45,0.57-0.99,0.99-1.61,1.26s-1.29,0.4-2.01,0.4
			C103.17,20.06,102.2,19.71,101.54,19.02z"/>
		<path class="st0" d="M112.99,7.94c-0.23-0.23-0.34-0.51-0.34-0.84c0-0.33,0.11-0.61,0.34-0.84c0.23-0.23,0.51-0.34,0.84-0.34
			c0.35,0,0.64,0.11,0.87,0.34c0.23,0.23,0.35,0.51,0.35,0.84c0,0.33-0.12,0.61-0.35,0.84c-0.23,0.23-0.52,0.34-0.87,0.34
			C113.49,8.28,113.21,8.16,112.99,7.94z M112.81,10.16h2.06v9.6h-2.06V10.16z"/>
		<path class="st0" d="M119.1,19.22c-0.53-0.56-0.79-1.35-0.79-2.38v-5.12h-1.46v-1.56h1.46V7.28h2.04v2.88h2.36v1.56h-2.36v4.98
			c0,0.64,0.12,1.09,0.37,1.36c0.25,0.27,0.7,0.4,1.35,0.4c0.39,0,0.77-0.09,1.16-0.26v1.6c-0.51,0.17-1.13,0.26-1.88,0.26
			C120.37,20.06,119.62,19.78,119.1,19.22z"/>
		<path class="st0" d="M125.48,19.17c-0.7-0.59-1.05-1.4-1.05-2.41c0-1.07,0.34-1.89,1.01-2.47c0.67-0.58,1.63-0.87,2.87-0.87
			c1.32,0,2.44,0.27,3.36,0.8v-0.5c0-0.76-0.23-1.32-0.69-1.69c-0.46-0.37-1.18-0.55-2.17-0.55c-0.59,0-1.16,0.06-1.71,0.17
			c-0.55,0.11-1.05,0.27-1.49,0.47v-1.64c0.4-0.19,0.92-0.34,1.56-0.45c0.64-0.11,1.26-0.17,1.86-0.17c1.59,0,2.76,0.35,3.53,1.05
			c0.77,0.7,1.15,1.67,1.15,2.91v5.94h-1.9v-1.08c-0.41,0.45-0.9,0.8-1.47,1.03c-0.57,0.23-1.26,0.35-2.07,0.35
			C127.11,20.06,126.18,19.76,125.48,19.17z M130.51,18.14c0.52-0.25,0.91-0.61,1.16-1.06v-1.3c-0.87-0.56-1.83-0.84-2.9-0.84
			c-0.77,0-1.35,0.15-1.73,0.45c-0.38,0.3-0.57,0.76-0.57,1.37c0,1.17,0.77,1.76,2.3,1.76C129.41,18.52,129.99,18.39,130.51,18.14z"
			/>
	</g>
	<g>
		<path class="st0" d="M6.65,45.28c-1.04-0.75-1.56-1.81-1.56-3.18c0-0.79,0.18-1.46,0.55-2.01c0.37-0.55,0.86-0.96,1.47-1.23
			c-0.51-0.35-0.89-0.78-1.16-1.29c-0.27-0.51-0.4-1.08-0.4-1.69c0-1.28,0.48-2.28,1.43-2.99c0.95-0.71,2.24-1.07,3.85-1.07
			c1.61,0,2.89,0.36,3.84,1.07c0.95,0.71,1.42,1.71,1.42,2.99c0,0.63-0.13,1.2-0.4,1.71c-0.27,0.51-0.65,0.94-1.14,1.27
			c0.61,0.25,1.1,0.66,1.46,1.22c0.36,0.56,0.54,1.23,0.54,2.02c0,1.37-0.52,2.43-1.55,3.18c-1.03,0.75-2.42,1.12-4.17,1.12
			C9.08,46.4,7.69,46.02,6.65,45.28z M12.32,43.13c0.38-0.35,0.57-0.82,0.57-1.39c0-0.56-0.19-1.02-0.58-1.38
			c-0.39-0.36-0.88-0.54-1.48-0.54c-0.6,0-1.09,0.18-1.48,0.54s-0.58,0.82-0.58,1.38c0,0.57,0.19,1.04,0.57,1.39
			s0.88,0.53,1.49,0.53C11.44,43.66,11.94,43.48,12.32,43.13z M12.12,37.52c0.34-0.32,0.51-0.73,0.51-1.22
			c0-0.49-0.17-0.9-0.51-1.23c-0.34-0.33-0.77-0.49-1.29-0.49c-0.52,0-0.95,0.16-1.28,0.48c-0.33,0.32-0.5,0.73-0.5,1.24
			c0,0.49,0.17,0.9,0.5,1.22C9.88,37.84,10.31,38,10.83,38C11.35,38,11.78,37.84,12.12,37.52z"/>
		<path class="st0" d="M20.59,45.53c-0.97-0.58-1.72-1.42-2.25-2.51c-0.53-1.09-0.79-2.39-0.79-3.9c0-1.51,0.26-2.81,0.78-3.9
			c0.52-1.09,1.26-1.93,2.23-2.52c0.97-0.59,2.11-0.88,3.43-0.88s2.46,0.29,3.43,0.88c0.97,0.59,1.71,1.43,2.23,2.52
			c0.52,1.09,0.78,2.39,0.78,3.9c0,1.51-0.26,2.81-0.79,3.9s-1.28,1.93-2.25,2.51s-2.11,0.87-3.4,0.87
			C22.7,46.4,21.56,46.11,20.59,45.53z M26.07,42.04c0.49-0.69,0.74-1.65,0.74-2.88c0-1.24-0.24-2.21-0.73-2.93
			c-0.49-0.71-1.18-1.07-2.09-1.07s-1.6,0.36-2.09,1.07c-0.49,0.71-0.73,1.69-0.73,2.93c0,1.23,0.25,2.19,0.74,2.88
			s1.19,1.04,2.08,1.04C24.88,43.08,25.58,42.73,26.07,42.04z"/>
		<path class="st0" d="M34.47,45.53c-0.97-0.58-1.72-1.42-2.25-2.51c-0.53-1.09-0.79-2.39-0.79-3.9c0-1.51,0.26-2.81,0.78-3.9
			c0.52-1.09,1.26-1.93,2.23-2.52c0.97-0.59,2.11-0.88,3.43-0.88s2.46,0.29,3.43,0.88c0.97,0.59,1.71,1.43,2.23,2.52
			c0.52,1.09,0.78,2.39,0.78,3.9c0,1.51-0.26,2.81-0.79,3.9s-1.28,1.93-2.25,2.51s-2.11,0.87-3.4,0.87
			C36.58,46.4,35.44,46.11,34.47,45.53z M39.95,42.04c0.49-0.69,0.74-1.65,0.74-2.88c0-1.24-0.24-2.21-0.73-2.93
			c-0.49-0.71-1.18-1.07-2.09-1.07s-1.6,0.36-2.09,1.07c-0.49,0.71-0.73,1.69-0.73,2.93c0,1.23,0.25,2.19,0.74,2.88
			s1.19,1.04,2.08,1.04C38.76,43.08,39.46,42.73,39.95,42.04z"/>
		<path class="st0" d="M45.31,38.64h7.12v2.8h-7.12V38.64z"/>
		<path class="st0" d="M56.27,36.06l-2.84,2.06v-3.48l3.44-2.52h2.94V46.1h-3.54V36.06z"/>
		<path class="st0" d="M64.25,45.53c-0.97-0.58-1.72-1.42-2.25-2.51c-0.53-1.09-0.79-2.39-0.79-3.9c0-1.51,0.26-2.81,0.78-3.9
			c0.52-1.09,1.26-1.93,2.23-2.52c0.97-0.59,2.11-0.88,3.43-0.88s2.46,0.29,3.43,0.88c0.97,0.59,1.71,1.43,2.23,2.52
			c0.52,1.09,0.78,2.39,0.78,3.9c0,1.51-0.26,2.81-0.79,3.9s-1.28,1.93-2.25,2.51s-2.11,0.87-3.4,0.87
			C66.36,46.4,65.22,46.11,64.25,45.53z M69.73,42.04c0.49-0.69,0.74-1.65,0.74-2.88c0-1.24-0.24-2.21-0.73-2.93
			c-0.49-0.71-1.18-1.07-2.09-1.07s-1.6,0.36-2.09,1.07c-0.49,0.71-0.73,1.69-0.73,2.93c0,1.23,0.25,2.19,0.74,2.88
			s1.19,1.04,2.08,1.04C68.54,43.08,69.24,42.73,69.73,42.04z"/>
		<path class="st0" d="M75.09,38.64h7.12v2.8h-7.12V38.64z"/>
		<path class="st0" d="M85.13,46.06v-3c0.61,0.32,1.37,0.48,2.26,0.48c1.01,0,1.84-0.27,2.49-0.8c0.65-0.53,1.04-1.33,1.17-2.38
			c-0.32,0.33-0.76,0.6-1.32,0.79s-1.17,0.29-1.82,0.29c-0.92,0-1.73-0.19-2.44-0.56c-0.71-0.37-1.26-0.91-1.66-1.62
			s-0.6-1.55-0.6-2.52c0-0.95,0.22-1.79,0.65-2.53c0.43-0.74,1.08-1.32,1.94-1.75c0.86-0.43,1.9-0.64,3.13-0.64
			c1.85,0,3.29,0.57,4.31,1.71c1.02,1.14,1.53,2.71,1.53,4.71c0,1.73-0.3,3.21-0.91,4.44c-0.61,1.23-1.44,2.15-2.51,2.78
			c-1.07,0.63-2.29,0.94-3.68,0.94C86.68,46.4,85.84,46.28,85.13,46.06z M90.41,38.12c0.4-0.4,0.6-0.89,0.6-1.46
			c0-0.59-0.2-1.08-0.6-1.48c-0.4-0.4-0.89-0.6-1.48-0.6c-0.57,0-1.06,0.2-1.46,0.61c-0.4,0.41-0.6,0.9-0.6,1.47
			c0,0.57,0.2,1.06,0.6,1.46c0.4,0.4,0.89,0.6,1.46,0.6C89.52,38.72,90.01,38.52,90.41,38.12z"/>
		<path class="st0" d="M98.61,36.06l-2.84,2.06v-3.48l3.44-2.52h2.94V46.1h-3.54V36.06z"/>
		<path class="st0" d="M103.55,38.64h7.12v2.8h-7.12V38.64z"/>
		<path class="st0" d="M113.59,46.06v-3c0.61,0.32,1.37,0.48,2.26,0.48c1.01,0,1.84-0.27,2.49-0.8c0.65-0.53,1.04-1.33,1.17-2.38
			c-0.32,0.33-0.76,0.6-1.32,0.79s-1.17,0.29-1.82,0.29c-0.92,0-1.73-0.19-2.44-0.56c-0.71-0.37-1.26-0.91-1.66-1.62
			s-0.6-1.55-0.6-2.52c0-0.95,0.22-1.79,0.65-2.53c0.43-0.74,1.08-1.32,1.94-1.75c0.86-0.43,1.9-0.64,3.13-0.64
			c1.85,0,3.29,0.57,4.31,1.71c1.02,1.14,1.53,2.71,1.53,4.71c0,1.73-0.3,3.21-0.91,4.44c-0.61,1.23-1.44,2.15-2.51,2.78
			c-1.07,0.63-2.29,0.94-3.68,0.94C115.14,46.4,114.29,46.28,113.59,46.06z M118.87,38.12c0.4-0.4,0.6-0.89,0.6-1.46
			c0-0.59-0.2-1.08-0.6-1.48c-0.4-0.4-0.89-0.6-1.48-0.6c-0.57,0-1.06,0.2-1.46,0.61c-0.4,0.41-0.6,0.9-0.6,1.47
			c0,0.57,0.2,1.06,0.6,1.46c0.4,0.4,0.89,0.6,1.46,0.6C117.97,38.72,118.47,38.52,118.87,38.12z"/>
		<path class="st0" d="M127.07,36.06l-2.84,2.06v-3.48l3.44-2.52h2.94V46.1h-3.54V36.06z"/>
	</g>
</g>
</svg>
