<?xml version="1.0" encoding="utf-8"?>
<!-- Generator: Adobe Illustrator 24.0.1, SVG Export Plug-In . SVG Version: 6.00 Build 0)  -->
<svg version="1.1" xmlns="http://www.w3.org/2000/svg" xmlns:xlink="http://www.w3.org/1999/xlink" x="0px" y="0px"
	 viewBox="0 0 424.91 66.39" style="enable-background:new 0 0 424.91 66.39;" xml:space="preserve">
<style type="text/css">
	.st0{fill:#003264;}
	.st1{fill:#F6F6F6;}
	.st2{font-family:'Prompt-Regular';}
	.st3{font-size:20px;}
	.st4{fill-rule:evenodd;clip-rule:evenodd;fill:#003264;}
	.st5{fill-rule:evenodd;clip-rule:evenodd;fill:#F6F6F6;}
</style>
<g id="Capa_3">
	<g>
		<path class="st0" d="M424.91,66.39H0V0h424.91V66.39z M0.25,66.14h424.41V0.25H0.25V66.14z"/>
	</g>
</g>
<g id="Capa_1">
</g>
<g id="Capa_2">
	<rect x="11.72" y="325.28" class="st0" width="66.14" height="66.14"/>
	<g>
		<path class="st1" d="M67.13,358.36c0,12.62-10.24,22.86-22.86,22.86c-12.64,0-22.88-10.24-22.88-22.86
			c0-12.65,10.23-22.89,22.88-22.89C56.88,335.47,67.13,345.7,67.13,358.36z"/>
	</g>
	<g id="HKfVWA_2_">
		<g>
			<path class="st0" d="M51.35,355.85c-1.42-0.18-2.7-0.69-3.9-1.5c-0.01,0.09-0.02,0.15-0.02,0.2c0,2.33,0,4.65,0,6.98
				c0,3.26-2.17,5.95-5.37,6.56c-2.22,0.42-4.17-0.19-5.84-1.72c-1.44-1.33-2.11-2.99-2.04-4.91c0.09-2.68,1.39-4.62,3.78-5.84
				c1.13-0.57,2.33-0.72,3.58-0.58c0.12,0.01,0.19,0.04,0.19,0.18c0,1.13,0,2.26-0.01,3.39c0,0.02-0.01,0.04-0.02,0.08
				c-0.08-0.01-0.15-0.03-0.23-0.04c-1.18-0.22-2.19,0.1-2.97,1.01c-0.76,0.9-0.91,1.94-0.5,3.03c0.46,1.23,1.95,2.1,3.37,1.83
				c1.39-0.27,2.43-1.5,2.43-2.9c0-4.67,0-9.33,0-14c0-0.3,0.02-0.32,0.31-0.32c0.71,0,1.42,0,2.13,0c0.18,0,0.27,0.07,0.3,0.24
				c0.27,1.2,0.92,2.13,1.87,2.9c0.82,0.66,1.75,0.96,2.77,1.02c0.12,0.01,0.21,0,0.21,0.17c-0.01,1.37,0,2.75-0.01,4.12
				C51.37,355.78,51.36,355.8,51.35,355.85z"/>
		</g>
	</g>
	<g>
		<text transform="matrix(1 0 0 1 199.241 40.5325)" class="st0 st2 st3">Youtube</text>
	</g>
	<g>
		<text transform="matrix(1 0 0 1 209.0416 367.5156)" class="st0 st2 st3">TikTok</text>
	</g>
	<rect x="0.25" y="0.13" class="st0" width="66.14" height="66.14"/>
	<g>
		<path class="st1" d="M55.65,33.27c0,12.62-10.24,22.86-22.86,22.86c-12.64,0-22.88-10.24-22.88-22.86
			c0-12.65,10.23-22.89,22.88-22.89C45.41,10.39,55.65,20.62,55.65,33.27z"/>
		<path class="st4" d="M40.91,39.17H24.65c-0.82,0-1.48-0.66-1.48-1.48v-9.38c0-0.82,0.66-1.48,1.48-1.48h16.27
			c0.82,0,1.48,0.66,1.48,1.48v9.38C42.39,38.51,41.73,39.17,40.91,39.17z"/>
		<polyline class="st5" points="30.2,29.62 36.44,33.2 30.2,36.78 		"/>
	</g>
</g>
<g id="Capa_4">
</g>
</svg>
