<?xml version="1.0" encoding="utf-8"?>
<!-- Generator: Adobe Illustrator 24.0.1, SVG Export Plug-In . SVG Version: 6.00 Build 0)  -->
<svg version="1.1" id="Capa_1" xmlns="http://www.w3.org/2000/svg" xmlns:xlink="http://www.w3.org/1999/xlink" x="0px" y="0px"
	 viewBox="0 0 424.9 66.4" style="enable-background:new 0 0 424.9 66.4;" xml:space="preserve">
<style type="text/css">
	.st0{fill:none;stroke:#003264;stroke-width:0.25;stroke-miterlimit:10;}
	.st1{fill:#003264;}
	.st2{font-family:'Prompt-Regular';}
	.st3{font-size:20px;}
	.st4{fill:#F6F6F6;}
	.st5{fill-rule:evenodd;clip-rule:evenodd;fill:#003264;}
</style>
<rect x="0.1" y="0.1" class="st0" width="424.7" height="66.1"/>
<g>
	<text transform="matrix(1 0 0 1 186.5952 38.3129)" class="st1 st2 st3">WhatsApp</text>
</g>
<rect x="0.1" y="0.1" class="st1" width="66.1" height="66.1"/>
<g>
	<path class="st4" d="M55.4,33.2c0,12.6-10.2,22.9-22.9,22.9c-12.6,0-22.9-10.2-22.9-22.9c0-12.6,10.2-22.9,22.9-22.9
		C45.2,10.3,55.4,20.6,55.4,33.2z"/>
	<g>
		<path class="st5" d="M42,30.9c-1.1-4.4-4.8-7.4-9.4-7.5c-0.6,0-1.3,0.1-1.8,0.2c-6.4,1.3-9.7,8.4-6.6,14.1
			c0.1,0.2,0.1,0.3,0.1,0.5c-0.5,1.5-0.9,3-1.3,4.5c-0.1,0.3-0.1,0.3,0.2,0.2c1.6-0.4,3.1-0.8,4.7-1.2c0.1,0,0.2,0,0.3,0
			c2,1,4.1,1.3,6.3,0.9C39.8,41.6,43.2,36.2,42,30.9z M33.9,41c-0.5,0.1-0.9,0.1-1.1,0.1c-1.7,0-3.1-0.4-4.4-1.1
			c-0.2-0.1-0.3-0.1-0.5-0.1c-0.9,0.2-1.7,0.5-2.6,0.7c-0.2,0.1-0.2,0-0.2-0.2c0.2-0.8,0.4-1.6,0.7-2.4c0.1-0.2,0-0.4-0.1-0.6
			c-1.7-2.8-1.7-6.4,0.3-9c2-2.7,4.8-3.9,8.2-3.1c3.3,0.7,5.4,2.8,6.1,6.1C41.4,35.8,38.4,40.3,33.9,41z"/>
		<path class="st5" d="M35.1,37.7c-0.3,0-0.7,0-1-0.1c-2.2-0.6-3.9-2-5.2-3.8c-0.5-0.7-1-1.4-1.1-2.3c-0.2-1,0.1-1.9,0.9-2.6
			c0.3-0.2,1-0.3,1.3-0.2c0.1,0.1,0.2,0.2,0.2,0.3c0.3,0.7,0.6,1.3,0.8,2c0,0.1,0,0.3,0,0.4c-0.1,0.3-0.4,0.5-0.6,0.8
			c-0.2,0.2-0.2,0.3-0.1,0.5c0.8,1.3,1.9,2.3,3.3,2.8c0.2,0.1,0.4,0.1,0.5-0.1c0.2-0.3,0.5-0.6,0.7-0.9c0.1-0.2,0.3-0.2,0.5-0.1
			c0.5,0.2,0.9,0.4,1.4,0.6c0.1,0.1,0.2,0.1,0.3,0.1c0.5,0.2,0.5,0.3,0.4,0.8c-0.1,1-0.8,1.5-1.7,1.8C35.5,37.8,35.3,37.8,35.1,37.7
			z"/>
	</g>
</g>
</svg>
