<?xml version="1.0" encoding="utf-8"?>
<!-- Generator: Adobe Illustrator 24.0.1, SVG Export Plug-In . SVG Version: 6.00 Build 0)  -->
<svg version="1.1" id="Capa_1" xmlns="http://www.w3.org/2000/svg" xmlns:xlink="http://www.w3.org/1999/xlink" x="0px" y="0px"
	 viewBox="0 0 131.63 151.91" style="enable-background:new 0 0 131.63 151.91;" xml:space="preserve">
<style type="text/css">
	.st0{fill:#E4E8F1;}
	.st1{fill:#30A9EA;}
	.st2{fill:#003264;}
</style>
<g>
	<path class="st0" d="M34.14,11.42c-3.67-1.24-9.15-2.07-13.28-2.07c-3.31,0-8.68,0.52-8.68,2.95c0,4.55,22.74,3.93,22.74,19.23
		c0,7.75-6.15,11.21-15.5,11.21c-6.05,0-12.71-1.45-17.42-2.79v-9.2c2.02,0.57,8.58,3,15.25,3c4.55,0,7.34-1.14,7.34-3.05
		c0-5.69-23.1-4.65-23.1-18.35C1.47,4.7,8.55,0,19.36,0c5.01,0,11.78,0.93,14.78,2.12V11.42z"/>
	<path class="st0" d="M83.29,21.4c0,15.09-10.34,21.29-21.86,21.29c-12.04,0-22.38-6.2-22.38-21.29C39.05,6.2,49.38,0,61.42,0
		C72.95,0,83.29,6.2,83.29,21.4z M72.95,21.4c0-6.93-3.88-12.35-11.52-12.35c-8.17,0-12.04,5.43-12.04,12.35s3.88,12.35,12.04,12.35
		C69.07,33.75,72.95,28.32,72.95,21.4z"/>
	<path class="st0" d="M129.64,0.67L112.69,26v16.02h-10.34V26l-17-25.32h12.3l9.87,16.54l9.82-16.54H129.64z"/>
	<path class="st1" d="M37.52,53.49V76.8c0,13.49-7.24,18.66-18.76,18.66S0,90.29,0,76.8V53.49h10.34v20.72
		c0,8.84,3.31,12.2,8.42,12.2c5.12,0,8.42-3.36,8.42-12.2V53.49H37.52z"/>
	<path class="st1" d="M77.58,94.83l-5.06-13.08c-7.08,0.16-17.47,3.46-22.53,13.08H38.56l17.31-41.35h15.81L89,94.83H77.58z
		 M69.46,73.9l-5.68-14.68l-8.22,21.29C60.21,76.85,65.17,74.73,69.46,73.9z"/>
	<path class="st1" d="M131.63,84.24c0,10.59-10.8,10.59-17.26,10.59H94.17V53.49h19.69c4.5,0,17.26,0,17.26,10.85
		c0,5.27-3.05,8.58-8.27,9.97C129,75.76,131.63,79.02,131.63,84.24z M104.5,62.27v8.42h10.39c3.57,0,5.79-1.65,5.79-4.39
		c0-2.79-2.33-4.03-6.3-4.03H104.5z M121.2,82.02c0-2.74-2.22-3.88-5.79-3.88h-10.9v7.91h10.39
		C118.87,86.05,121.2,84.81,121.2,82.02z"/>
</g>
<g>
	<path class="st0" d="M62.16,151.91L62.16,151.91c-7.57,0-13.7-6.13-13.7-13.7v0c0-7.57,6.13-13.7,13.7-13.7h0
		c7.57,0,13.7,6.13,13.7,13.7v0C75.86,145.77,69.73,151.91,62.16,151.91z"/>
	<g>
		<path class="st2" d="M53.21,144.01l-0.58,1.5h0.01c1.62-0.33,3.27-0.57,4.94-0.73l0.89-3.58c-0.79,0.21-1.58,0.43-2.34,0.72
			C54.99,142.36,53.92,142.99,53.21,144.01z"/>
	</g>
	<path class="st2" d="M71.35,145.52l-2.75-7.17c-1.05,0.52-2.72,1.02-3.5,1.2l1.31,5.23C68.08,144.94,69.73,145.19,71.35,145.52"/>
	<g>
		<path class="st2" d="M57.01,138.7c1.22-0.39,2.35-0.62,3.54-0.91c1.19-0.29,2.38-0.58,3.57-0.89c1.16-0.3,2.43-0.6,3.48-1.19
			c0.94-0.52,1.63-1.52,1.23-2.62c-0.46,1.17-1.63,1.73-2.76,2.11c-1.09,0.37-2.22,0.65-3.33,0.92c-1.15,0.27-2.29,0.51-3.44,0.78
			c-1.13,0.27-2.31,0.54-3.38,1.01c-0.91,0.39-1.92,0.87-1.75,2.35C54.87,139.45,56.03,139.01,57.01,138.7z"/>
	</g>
	<g>
		<path class="st2" d="M62.73,135.33c1.22-0.29,2.43-0.63,3.6-1.08c0.48-0.19,0.98-0.43,1.35-0.8c0.37-0.37,0.57-1,0.35-1.5
			c-0.29,0.6-0.81,0.99-1.4,1.27l-1.81-4.72h-2.48l1.42,5.7c-1.24,0.34-2.51,0.6-3.76,0.88l1.64-6.58h-2.48l-2.95,7.67
			c-0.55,0.26-1.02,0.65-1.03,1.48c0.3-0.27,0.92-0.68,2.41-1.11C60.07,135.83,60.55,135.85,62.73,135.33z"/>
	</g>
	<g>
		<path class="st2" d="M69.08,137.01c0.54-0.57,0.84-1.51,0.51-2.25c-0.71,1.62-2.63,2.16-4.2,2.61c-1.65,0.46-3.33,0.88-5,1.28
			c-1.57,0.37-3.18,0.68-4.65,1.36c-1.27,0.58-2.44,1.42-2.47,3.28c0.7-1.03,1.78-1.65,2.92-2.09c1.26-0.48,2.59-0.78,3.9-1.12
			c0.76-0.2,1.52-0.39,2.27-0.6c1.32-0.35,2.65-0.69,3.94-1.13C67.24,138.03,68.38,137.74,69.08,137.01z"/>
	</g>
</g>
</svg>
