<?xml version="1.0" encoding="utf-8"?>
<!-- Generator: Adobe Illustrator 24.0.1, SVG Export Plug-In . SVG Version: 6.00 Build 0)  -->
<svg version="1.1" id="Capa_1" xmlns="http://www.w3.org/2000/svg" xmlns:xlink="http://www.w3.org/1999/xlink" x="0px" y="0px"
	 viewBox="0 0 241.5 41" style="enable-background:new 0 0 241.5 41;" xml:space="preserve">
<style type="text/css">
	.st0{fill:#E4E8F1;}
	.st1{fill:#003264;}
	.st2{fill:#FFFFFF;}
</style>
<g id="Capa_1_1_">
	<g>
		<g>
			<path class="st0" d="M66.4,8.5h13.3v2.5H69.4v6.4h7.7v2.4h-7.7v6.4h10.3v2.4H66.4V8.5z"/>
			<path class="st0" d="M80.3,14.8h3.1l4.1,9.9l4.1-9.9h3.1l-5.9,13.8h-2.5L80.3,14.8z"/>
			<path class="st0" d="M98.2,27.1C96.7,25.8,96,24,96,21.7c0-2.3,0.6-4.1,1.9-5.4s3.1-2,5.5-2c1.6,0,2.9,0.3,4.1,0.9
				c1.1,0.6,1.9,1.4,2.5,2.5s0.9,2.3,0.9,3.6v1.4H98.8c0.1,1.3,0.6,2.3,1.6,2.9c1,0.6,2.4,1,4.1,1c0.9,0,1.8-0.1,2.7-0.2
				c0.9-0.2,1.7-0.4,2.4-0.7v2.3c-0.6,0.2-1.4,0.5-2.4,0.6s-2,0.2-3,0.2C101.6,29,99.6,28.4,98.2,27.1z M108.2,20.8
				c0-1.3-0.5-2.3-1.3-3c-0.8-0.7-2-1.1-3.5-1.1c-1.5,0-2.6,0.4-3.4,1.1c-0.8,0.8-1.2,1.8-1.3,3L108.2,20.8L108.2,20.8z"/>
			<path class="st0" d="M114.1,14.8h2.8v2c0.6-0.8,1.5-1.4,2.4-1.8c1-0.4,1.9-0.6,3-0.6c1.8,0,3.2,0.5,4.1,1.5s1.4,2.3,1.4,3.9v8.8
				h-2.9V20c0-2.2-1.1-3.4-3.2-3.4c-0.9,0-1.8,0.2-2.6,0.7c-0.8,0.4-1.5,1.1-2.1,2v9.3H114L114.1,14.8L114.1,14.8z"/>
			<path class="st0" d="M133.4,27.8c-0.8-0.8-1.1-1.9-1.1-3.4V17h-2.1v-2.2h2.1v-4.1h2.9v4.1h3.4V17h-3.4v7.2c0,0.9,0.2,1.6,0.5,2
				s1,0.6,1.9,0.6c0.6,0,1.1-0.1,1.7-0.4v2.3c-0.7,0.2-1.6,0.4-2.7,0.4C135.2,29,134.2,28.6,133.4,27.8z"/>
			<path class="st0" d="M145.1,28.1c-1.2-0.6-2.1-1.4-2.8-2.5s-1-2.4-1-3.9c0-1.5,0.3-2.8,1-3.9s1.6-2,2.8-2.6s2.6-0.9,4.1-0.9
				s2.9,0.3,4.1,0.9c1.2,0.6,2.1,1.5,2.8,2.6s1,2.4,1,3.9c0,1.5-0.3,2.8-1,3.9s-1.6,1.9-2.8,2.5s-2.6,0.9-4.1,0.9
				S146.3,28.7,145.1,28.1z M152.8,25.3c0.9-0.9,1.3-2.1,1.3-3.6c0-1.6-0.4-2.8-1.3-3.7s-2.1-1.3-3.6-1.3s-2.7,0.4-3.6,1.3
				s-1.3,2.1-1.3,3.7c0,1.5,0.4,2.7,1.3,3.6c0.9,0.9,2.1,1.4,3.6,1.4S151.9,26.2,152.8,25.3z"/>
			<path class="st0" d="M161.6,28.6c-1.1-0.2-1.9-0.6-2.5-1v-2.5c0.8,0.4,1.6,0.8,2.6,1.1s1.9,0.4,2.9,0.4c1,0,1.8-0.1,2.3-0.4
				c0.5-0.2,0.7-0.7,0.7-1.2c0-0.4-0.1-0.8-0.3-1c-0.2-0.3-0.6-0.5-1.1-0.7c-0.5-0.2-1.3-0.5-2.4-0.8c-1.1-0.3-2-0.7-2.7-1
				c-0.7-0.3-1.2-0.8-1.5-1.3s-0.5-1.2-0.5-2c0-1.3,0.5-2.3,1.6-3s2.5-1,4.2-1c0.9,0,1.8,0.1,2.7,0.3c0.9,0.2,1.6,0.4,2.1,0.7v2.4
				c-0.6-0.3-1.2-0.6-2.1-0.8c-0.8-0.2-1.6-0.3-2.5-0.3c-1,0-1.8,0.1-2.3,0.4c-0.5,0.2-0.8,0.7-0.8,1.3c0,0.4,0.1,0.7,0.4,1
				c0.2,0.2,0.6,0.5,1.1,0.7c0.5,0.2,1.3,0.4,2.4,0.7c1.7,0.5,3,1.1,3.6,1.7c0.7,0.7,1,1.6,1,2.7c0,1.2-0.5,2.1-1.5,2.8
				s-2.4,1.1-4.3,1.1C163.7,29,162.7,28.9,161.6,28.6z"/>
			<path class="st0" d="M186.2,26.9c-1.4-1.4-2.1-3.3-2.1-5.8V8.5h2.9v12.7c0,1.7,0.5,3,1.4,3.9s2.3,1.3,3.9,1.3
				c1.6,0,3-0.4,3.9-1.3c1-0.9,1.4-2.2,1.4-3.9V8.5h2.9v12.6c0,2.5-0.7,4.4-2.1,5.8s-3.5,2.1-6.2,2.1
				C189.7,29,187.6,28.3,186.2,26.9z"/>
			<path class="st0" d="M209.9,8.5h2.8l8,20.1h-3l-2-5h-8.9l-2,5h-3L209.9,8.5z M214.9,21.1l-3.6-9.4l-3.6,9.4
				C207.7,21.1,214.9,21.1,214.9,21.1z"/>
			<path class="st0" d="M223.9,8.5h9.2c1.8,0,3.2,0.5,4.1,1.4s1.5,2.3,1.5,4c0,1-0.2,1.9-0.7,2.6c-0.5,0.8-1.1,1.3-1.9,1.7
				c2.1,0.6,3.2,2.2,3.2,4.7c0,1.2-0.2,2.2-0.8,3c-0.5,0.8-1.2,1.5-2.1,2c-0.9,0.5-1.9,0.7-2.9,0.7h-9.7L223.9,8.5L223.9,8.5z
				 M232.8,17.1c0.9,0,1.7-0.3,2.2-0.8s0.8-1.3,0.8-2.3c0-1.2-0.3-2-0.8-2.5s-1.3-0.7-2.4-0.7h-5.7v6.2H232.8z M233,26.2
				c1.1,0,2-0.2,2.6-0.8c0.6-0.5,0.9-1.3,0.9-2.6s-0.3-2.1-0.9-2.6s-1.6-0.8-2.8-0.8h-5.9v6.7L233,26.2L233,26.2z"/>
		</g>
		<g>
			<path class="st0" d="M16,33.8L16,33.8c-7.6,0-13.7-6.1-13.7-13.7l0,0C2.3,12.6,8.5,6.4,16,6.4l0,0c7.6,0,13.7,6.1,13.7,13.7l0,0
				C29.7,27.7,23.6,33.8,16,33.8z"/>
			<g>
				<path class="st1" d="M7.1,25.9l-0.6,1.5h0c1.6-0.3,3.3-0.6,4.9-0.7l0.9-3.6c-0.8,0.2-1.6,0.4-2.3,0.7
					C8.8,24.3,7.8,24.9,7.1,25.9z"/>
			</g>
			<path class="st1" d="M25.2,27.4l-2.8-7.2c-1.1,0.5-2.7,1-3.5,1.2l1.3,5.2C21.9,26.9,23.6,27.1,25.2,27.4"/>
			<g>
				<path class="st1" d="M10.9,20.6c1.2-0.4,2.4-0.6,3.5-0.9c1.2-0.3,2.4-0.6,3.6-0.9c1.2-0.3,2.4-0.6,3.5-1.2
					c0.9-0.5,1.6-1.5,1.2-2.6c-0.5,1.2-1.6,1.7-2.8,2.1c-1.1,0.4-2.2,0.7-3.3,0.9c-1.1,0.3-2.3,0.5-3.4,0.8c-1.1,0.3-2.3,0.5-3.4,1
					c-0.9,0.4-1.9,0.9-1.8,2.3C8.7,21.4,9.9,20.9,10.9,20.6z"/>
			</g>
			<g>
				<path class="st1" d="M16.6,17.3c1.2-0.3,2.4-0.6,3.6-1.1c0.5-0.2,1-0.4,1.4-0.8c0.4-0.4,0.6-1,0.4-1.5c-0.3,0.6-0.8,1-1.4,1.3
					l-1.8-4.7h-2.5l1.4,5.7c-1.2,0.3-2.5,0.6-3.8,0.9l1.6-6.6H13l-2.9,7.7c-0.6,0.3-1,0.7-1,1.5c0.3-0.3,0.9-0.7,2.4-1.1
					C13.9,17.8,14.4,17.8,16.6,17.3z"/>
			</g>
			<g>
				<path class="st1" d="M22.9,18.9c0.5-0.6,0.8-1.5,0.5-2.2c-0.7,1.6-2.6,2.2-4.2,2.6c-1.6,0.5-3.3,0.9-5,1.3
					c-1.6,0.4-3.2,0.7-4.6,1.4c-1.3,0.6-2.4,1.4-2.5,3.3c0.7-1,1.8-1.7,2.9-2.1c1.3-0.5,2.6-0.8,3.9-1.1c0.8-0.2,1.5-0.4,2.3-0.6
					c1.3-0.3,2.6-0.7,3.9-1.1C21.1,20,22.2,19.7,22.9,18.9z"/>
			</g>
		</g>
		<rect x="46.6" y="1.6" class="st2" width="1.3" height="37.2"/>
	</g>
</g>
</svg>
