<?xml version="1.0" encoding="utf-8"?>
<!-- Generator: Adobe Illustrator 24.0.1, SVG Export Plug-In . SVG Version: 6.00 Build 0)  -->
<svg version="1.1" id="Capa_1" xmlns="http://www.w3.org/2000/svg" xmlns:xlink="http://www.w3.org/1999/xlink" x="0px" y="0px"
	 viewBox="0 0 269.8 41.3" style="enable-background:new 0 0 269.8 41.3;" xml:space="preserve">
<style type="text/css">
	.st0{fill:#E4E8F1;}
	.st1{fill:#003264;}
	.st2{fill:#FFFFFF;}
</style>
<g id="Capa_1_1_">
	<g>
		<g>
			<path class="st0" d="M66.1,9.5h13.3v2.5H69v6.4h7.7v2.4H69v6.4h10.3v2.4H66.1V9.5z"/>
			<path class="st0" d="M84,29.7c-1.1-0.2-1.9-0.6-2.5-1v-2.5c0.8,0.4,1.6,0.8,2.6,1.1s1.9,0.4,2.9,0.4c1,0,1.8-0.1,2.3-0.4
				c0.5-0.2,0.7-0.7,0.7-1.2c0-0.4-0.1-0.8-0.3-1c-0.2-0.3-0.6-0.5-1.1-0.7c-0.5-0.2-1.3-0.5-2.4-0.8c-1.1-0.3-2-0.7-2.7-1
				c-0.7-0.3-1.2-0.8-1.5-1.3s-0.5-1.2-0.5-2c0-1.3,0.5-2.3,1.6-3s2.4-1,4.2-1c0.9,0,1.8,0.1,2.7,0.3c0.9,0.2,1.6,0.4,2.1,0.7v2.4
				c-0.6-0.3-1.2-0.6-2.1-0.8c-0.8-0.2-1.6-0.3-2.5-0.3c-1,0-1.8,0.1-2.3,0.4c-0.5,0.2-0.8,0.7-0.8,1.3c0,0.4,0.1,0.7,0.4,1
				c0.2,0.2,0.6,0.5,1.1,0.7c0.5,0.2,1.3,0.4,2.4,0.7c1.7,0.5,3,1.1,3.6,1.7c0.7,0.7,1,1.6,1,2.7c0,1.2-0.5,2.1-1.5,2.8
				S88.9,30,87,30C86.1,30,85.1,29.9,84,29.7z"/>
			<path class="st0" d="M96,15.8h2.8v2c1.4-1.7,3.3-2.5,5.8-2.5c1.4,0,2.6,0.3,3.7,0.9c1.1,0.6,2,1.5,2.6,2.6s0.9,2.4,0.9,3.8
				c0,1.4-0.3,2.7-0.9,3.8c-0.6,1.1-1.5,2-2.6,2.6c-1.1,0.6-2.3,0.9-3.7,0.9c-1.1,0-2.2-0.2-3.2-0.6c-1-0.4-1.8-0.9-2.4-1.7v8.1H96
				L96,15.8L96,15.8z M106.5,27.1c0.8-0.4,1.4-1,1.8-1.8s0.6-1.7,0.6-2.7s-0.2-1.9-0.6-2.6s-1-1.3-1.8-1.8c-0.8-0.4-1.6-0.6-2.6-0.6
				c-1.2,0-2.2,0.3-3.1,0.9s-1.5,1.5-1.9,2.5v3.1c0.3,1.1,0.9,1.9,1.9,2.5s2,0.9,3.1,0.9C104.9,27.7,105.7,27.5,106.5,27.1z"/>
			<path class="st0" d="M115.2,28.7c-1-0.8-1.5-2-1.5-3.5c0-1.5,0.5-2.7,1.4-3.6s2.3-1.2,4.1-1.2c1.9,0,3.5,0.4,4.8,1.2v-0.7
				c0-1.1-0.3-1.9-1-2.4s-1.7-0.8-3.1-0.8c-0.8,0-1.7,0.1-2.5,0.2c-0.8,0.2-1.5,0.4-2.1,0.7v-2.4c0.6-0.3,1.3-0.5,2.2-0.7
				c0.9-0.2,1.8-0.2,2.7-0.2c2.3,0,4,0.5,5.1,1.5c1.1,1,1.6,2.4,1.6,4.2v8.5h-2.7V28c-0.6,0.7-1.3,1.2-2.1,1.5
				c-0.8,0.3-1.8,0.5-3,0.5C117.6,30,116.2,29.6,115.2,28.7z M122.5,27.3c0.8-0.4,1.3-0.9,1.7-1.5v-1.9c-1.2-0.8-2.6-1.2-4.2-1.2
				c-1.1,0-1.9,0.2-2.5,0.7s-0.8,1.1-0.8,2c0,1.7,1.1,2.5,3.3,2.5C120.9,27.8,121.7,27.6,122.5,27.3z"/>
			<path class="st0" d="M133.3,29.2c-1.2-0.6-2.1-1.4-2.8-2.5c-0.7-1.1-1-2.4-1-3.9c0-1.5,0.3-2.8,1-3.9c0.7-1.1,1.6-1.9,2.8-2.6
				c1.2-0.6,2.6-0.9,4.1-0.9c2.1,0,3.8,0.4,5.1,1.2V19c-1.2-0.9-2.8-1.3-4.8-1.3c-1.6,0-2.8,0.4-3.8,1.3s-1.5,2.1-1.5,3.8
				c0,1.7,0.5,2.9,1.4,3.7s2.2,1.3,3.8,1.3c1.9,0,3.6-0.5,5-1.4v2.4c-0.7,0.5-1.4,0.8-2.3,1s-1.9,0.3-3,0.3
				C135.8,30,134.5,29.7,133.3,29.2z"/>
			<path class="st0" d="M146.3,12.6c-0.3-0.3-0.5-0.7-0.5-1.2s0.2-0.9,0.5-1.2s0.7-0.5,1.2-0.5c0.5,0,0.9,0.2,1.2,0.5
				c0.3,0.3,0.5,0.7,0.5,1.2s-0.2,0.9-0.5,1.2c-0.3,0.3-0.8,0.5-1.2,0.5C147,13.1,146.6,12.9,146.3,12.6z M146,15.8h3v13.8h-3V15.8z
				"/>
			<path class="st0" d="M156.2,29.1c-1.2-0.6-2.1-1.4-2.8-2.5s-1-2.4-1-3.9c0-1.5,0.3-2.8,1-3.9s1.6-2,2.8-2.6s2.6-0.9,4.1-0.9
				s2.9,0.3,4.1,0.9c1.2,0.6,2.1,1.5,2.8,2.6s1,2.4,1,3.9c0,1.5-0.3,2.8-1,3.9s-1.6,1.9-2.8,2.5s-2.6,0.9-4.1,0.9
				C158.7,30,157.4,29.7,156.2,29.1z M163.8,26.3c0.9-0.9,1.3-2.1,1.3-3.6c0-1.6-0.4-2.8-1.3-3.7s-2.1-1.3-3.6-1.3s-2.7,0.4-3.6,1.3
				s-1.3,2.1-1.3,3.7c0,1.5,0.4,2.7,1.3,3.6c0.9,0.9,2.1,1.4,3.6,1.4S163,27.3,163.8,26.3z"/>
			<path class="st0" d="M184.9,29.1c-1.1-0.6-2-1.5-2.6-2.6s-0.9-2.4-0.9-3.8c0-1.4,0.3-2.7,0.9-3.8c0.6-1.1,1.5-2,2.6-2.6
				c1.1-0.6,2.3-0.9,3.7-0.9c2.5,0,4.4,0.8,5.7,2.3V8.3h2.9v21.3h-2.8v-2c-0.8,0.8-1.6,1.5-2.5,1.9c-0.9,0.4-2,0.6-3.2,0.6
				C187.3,30,186,29.7,184.9,29.1z M192.4,26.8c0.9-0.6,1.5-1.5,1.9-2.5v-3.1c-0.3-1.1-0.9-1.9-1.9-2.5c-0.9-0.6-2-0.9-3.1-0.9
				c-0.9,0-1.8,0.2-2.5,0.6c-0.8,0.4-1.4,1-1.8,1.8c-0.4,0.8-0.6,1.6-0.6,2.6s0.2,1.8,0.6,2.6c0.4,0.8,1,1.4,1.8,1.8
				c0.8,0.4,1.6,0.6,2.5,0.6C190.5,27.7,191.5,27.4,192.4,26.8z"/>
			<path class="st0" d="M202.6,28.1c-1.5-1.3-2.2-3.1-2.2-5.4c0-2.3,0.6-4.1,1.9-5.4s3.1-2,5.5-2c1.6,0,2.9,0.3,4.1,0.9
				c1.1,0.6,2,1.4,2.5,2.5c0.6,1.1,0.9,2.3,0.9,3.6v1.4h-12.1c0.1,1.3,0.6,2.3,1.6,2.9c1,0.6,2.4,1,4.1,1c0.9,0,1.8-0.1,2.7-0.2
				c0.9-0.2,1.7-0.4,2.4-0.7v2.3c-0.6,0.2-1.4,0.5-2.4,0.6s-2,0.2-3,0.2C206,30,204,29.4,202.6,28.1z M212.6,21.8
				c0-1.3-0.5-2.3-1.3-3c-0.8-0.7-2-1.1-3.5-1.1c-1.5,0-2.6,0.4-3.4,1.1c-0.8,0.8-1.2,1.8-1.3,3L212.6,21.8L212.6,21.8z"/>
			<path class="st0" d="M229.1,9.5h13.3v2.5H232v6.4h7.7v2.3H232v8.9h-2.9L229.1,9.5L229.1,9.5z"/>
			<path class="st0" d="M244.5,28.1c-1.5-1.3-2.2-3.1-2.2-5.4c0-2.3,0.6-4.1,1.9-5.4s3.1-2,5.5-2c1.6,0,2.9,0.3,4.1,0.9
				c1.1,0.6,2,1.4,2.5,2.5c0.6,1.1,0.9,2.3,0.9,3.6v1.4h-12.1c0.1,1.3,0.6,2.3,1.6,2.9c1,0.6,2.4,1,4.1,1c0.9,0,1.8-0.1,2.7-0.2
				c0.9-0.2,1.7-0.4,2.4-0.7v2.3c-0.6,0.2-1.4,0.5-2.4,0.6s-2,0.2-3,0.2C248,30,246,29.4,244.5,28.1z M254.5,21.8
				c0-1.3-0.5-2.3-1.3-3c-0.8-0.7-2-1.1-3.5-1.1c-1.5,0-2.6,0.4-3.4,1.1c-0.8,0.8-1.2,1.8-1.3,3L254.5,21.8L254.5,21.8z M250.2,9.3
				h3.1l-2.4,4.9h-2.6L250.2,9.3z"/>
		</g>
		<g>
			<path class="st0" d="M15.7,34.9L15.7,34.9C8.1,34.9,2,28.7,2,21.2l0,0C2,13.6,8.1,7.5,15.7,7.5l0,0c7.6,0,13.7,6.1,13.7,13.7l0,0
				C29.4,28.7,23.2,34.9,15.7,34.9z"/>
			<g>
				<path class="st1" d="M6.7,27l-0.6,1.5h0c1.6-0.3,3.3-0.6,4.9-0.7l0.9-3.6c-0.8,0.2-1.6,0.4-2.3,0.7C8.5,25.3,7.4,25.9,6.7,27z"
					/>
			</g>
			<path class="st1" d="M24.9,28.5l-2.8-7.2c-1.1,0.5-2.7,1-3.5,1.2l1.3,5.2C21.6,27.9,23.2,28.1,24.9,28.5"/>
			<g>
				<path class="st1" d="M10.5,21.7c1.2-0.4,2.4-0.6,3.5-0.9c1.2-0.3,2.4-0.6,3.6-0.9c1.2-0.3,2.4-0.6,3.5-1.2
					c0.9-0.5,1.6-1.5,1.2-2.6c-0.5,1.2-1.6,1.7-2.8,2.1c-1.1,0.4-2.2,0.7-3.3,0.9c-1.1,0.3-2.3,0.5-3.4,0.8c-1.1,0.3-2.3,0.5-3.4,1
					c-0.9,0.4-1.9,0.9-1.8,2.3C8.4,22.4,9.5,22,10.5,21.7z"/>
			</g>
			<g>
				<path class="st1" d="M16.2,18.3c1.2-0.3,2.4-0.6,3.6-1.1c0.5-0.2,1-0.4,1.4-0.8c0.4-0.4,0.6-1,0.4-1.5c-0.3,0.6-0.8,1-1.4,1.3
					l-1.8-4.7h-2.5l1.4,5.7c-1.2,0.3-2.5,0.6-3.8,0.9l1.6-6.6h-2.5l-2.9,7.7c-0.6,0.3-1,0.7-1,1.5c0.3-0.3,0.9-0.7,2.4-1.1
					C13.6,18.8,14.1,18.8,16.2,18.3z"/>
			</g>
			<g>
				<path class="st1" d="M22.6,20c0.5-0.6,0.8-1.5,0.5-2.2c-0.7,1.6-2.6,2.2-4.2,2.6c-1.6,0.5-3.3,0.9-5,1.3
					c-1.6,0.4-3.2,0.7-4.6,1.4c-1.3,0.6-2.4,1.4-2.5,3.3c0.7-1,1.8-1.7,2.9-2.1c1.3-0.5,2.6-0.8,3.9-1.1c0.8-0.2,1.5-0.4,2.3-0.6
					c1.3-0.3,2.6-0.7,3.9-1.1C20.7,21,21.9,20.7,22.6,20z"/>
			</g>
		</g>
		<rect x="46.3" y="2.6" class="st2" width="1.3" height="37.2"/>
	</g>
</g>
</svg>
