<?xml version="1.0" encoding="utf-8"?>
<!-- Generator: Adobe Illustrator 24.0.1, SVG Export Plug-In . SVG Version: 6.00 Build 0)  -->
<svg version="1.1" id="Capa_1" xmlns="http://www.w3.org/2000/svg" xmlns:xlink="http://www.w3.org/1999/xlink" x="0px" y="0px"
	 viewBox="0 0 274 43" style="enable-background:new 0 0 274 43;" xml:space="preserve">
<style type="text/css">
	.st0{fill:#E4E8F1;}
	.st1{fill:#003264;}
	.st2{fill:#FFFFFF;}
</style>
<g id="Capa_1_1_">
	<g>
		<g>
			<path class="st0" d="M68.2,9.6h8.1c2.1,0,3.8,0.5,4.9,1.6c1.1,1,1.7,2.6,1.7,4.6c0,1.5-0.4,2.7-1.2,3.8c-0.8,1-1.9,1.7-3.3,2.1
				l4.4,8.2h-3.1l-4.3-7.9h-4.4v7.9h-2.9L68.2,9.6L68.2,9.6z M75.8,19.3c1.3,0,2.3-0.3,3.1-0.9s1.1-1.5,1.1-2.7
				c0-1.3-0.4-2.2-1.1-2.8s-1.8-0.8-3.1-0.8h-4.7v7.2C71.1,19.3,75.8,19.3,75.8,19.3z"/>
			<path class="st0" d="M86.5,28.2c-1.4-1.3-2.2-3.1-2.2-5.4c0-2.3,0.6-4.1,1.9-5.4s3.1-2,5.5-2c1.6,0,2.9,0.3,4.1,0.9
				c1.1,0.6,1.9,1.4,2.5,2.5s0.9,2.3,0.9,3.6v1.4H87.1c0.1,1.3,0.6,2.3,1.6,2.9c1,0.6,2.4,1,4.1,1c0.9,0,1.8-0.1,2.7-0.2
				c0.9-0.2,1.7-0.4,2.4-0.7v2.3c-0.6,0.2-1.4,0.5-2.4,0.6s-2,0.2-3,0.2C90,30.1,88,29.5,86.5,28.2z M96.5,21.9c0-1.3-0.5-2.3-1.3-3
				c-0.8-0.7-2-1.1-3.5-1.1c-1.5,0-2.6,0.4-3.4,1.1c-0.8,0.8-1.2,1.8-1.3,3L96.5,21.9L96.5,21.9z"/>
			<path class="st0" d="M105.4,29.2c-1.1-0.6-2-1.5-2.6-2.6s-0.9-2.4-0.9-3.8c0-1.4,0.3-2.7,0.9-3.8c0.6-1.1,1.5-2,2.6-2.6
				c1.1-0.6,2.3-0.9,3.7-0.9c2.5,0,4.4,0.8,5.7,2.3V8.4h2.9v21.3h-2.8v-2c-0.8,0.8-1.6,1.5-2.5,1.9c-0.9,0.4-2,0.6-3.2,0.6
				C107.7,30.1,106.5,29.8,105.4,29.2z M112.9,26.9c0.9-0.6,1.5-1.5,1.9-2.5v-3.1c-0.3-1.1-0.9-1.9-1.9-2.5c-0.9-0.6-2-0.9-3.1-0.9
				c-0.9,0-1.8,0.2-2.6,0.6c-0.8,0.4-1.4,1-1.8,1.8c-0.4,0.8-0.6,1.6-0.6,2.6s0.2,1.8,0.6,2.6c0.4,0.8,1,1.4,1.8,1.8
				c0.8,0.4,1.6,0.6,2.6,0.6C111,27.8,112,27.5,112.9,26.9z"/>
			<path class="st0" d="M123,28.2c-1.4-1.3-2.2-3.1-2.2-5.4c0-2.3,0.6-4.1,1.9-5.4c1.3-1.3,3.1-2,5.5-2c1.6,0,2.9,0.3,4.1,0.9
				c1.1,0.6,2,1.4,2.5,2.5c0.6,1.1,0.9,2.3,0.9,3.6v1.4h-12.1c0.1,1.3,0.6,2.3,1.6,2.9c1,0.6,2.4,1,4.1,1c0.9,0,1.8-0.1,2.7-0.2
				c0.9-0.2,1.7-0.4,2.4-0.7v2.3c-0.6,0.2-1.4,0.5-2.4,0.6s-2,0.2-3,0.2C126.5,30.1,124.5,29.5,123,28.2z M133,21.9
				c0-1.3-0.5-2.3-1.3-3c-0.8-0.7-2-1.1-3.5-1.1c-1.5,0-2.6,0.4-3.4,1.1c-0.8,0.8-1.2,1.8-1.3,3L133,21.9L133,21.9z"/>
			<path class="st0" d="M140.9,29.8c-1.1-0.2-1.9-0.6-2.5-1v-2.5c0.8,0.4,1.6,0.8,2.6,1.1s1.9,0.4,2.9,0.4c1,0,1.8-0.1,2.3-0.4
				c0.5-0.2,0.7-0.7,0.7-1.2c0-0.4-0.1-0.8-0.3-1c-0.2-0.3-0.6-0.5-1.1-0.7c-0.5-0.2-1.3-0.5-2.4-0.8c-1.1-0.3-2-0.7-2.7-1
				c-0.7-0.3-1.2-0.8-1.5-1.3s-0.5-1.2-0.5-2c0-1.3,0.5-2.3,1.6-3c1.1-0.7,2.5-1,4.2-1c0.9,0,1.8,0.1,2.7,0.3
				c0.9,0.2,1.6,0.4,2.1,0.7v2.4c-0.6-0.3-1.2-0.6-2.1-0.8c-0.8-0.2-1.6-0.3-2.5-0.3c-1,0-1.8,0.1-2.3,0.4c-0.5,0.2-0.8,0.7-0.8,1.3
				c0,0.4,0.1,0.7,0.4,1c0.2,0.2,0.6,0.5,1.1,0.7c0.5,0.2,1.3,0.4,2.4,0.7c1.7,0.5,3,1.1,3.6,1.7c0.7,0.7,1,1.6,1,2.7
				c0,1.2-0.5,2.1-1.5,2.8s-2.4,1.1-4.3,1.1C143,30.1,142,30,140.9,29.8z"/>
			<path class="st0" d="M165.8,29.8c-1.1-0.2-2-0.5-2.8-0.8v-2.7c1.8,0.9,3.8,1.3,6,1.3c3,0,4.5-1,4.5-3c0-0.7-0.2-1.2-0.5-1.7
				s-0.8-0.8-1.4-1.1c-0.6-0.3-1.6-0.8-3-1.3c-1.9-0.8-3.3-1.6-4.1-2.5s-1.3-2.1-1.3-3.5c0-1.1,0.3-2,0.9-2.8
				c0.6-0.8,1.4-1.4,2.4-1.9c1-0.4,2.2-0.7,3.6-0.7c1.1,0,2.1,0.1,3,0.3s1.8,0.4,2.6,0.8v2.5c-1.7-0.8-3.4-1.1-5.1-1.1
				c-1.4,0-2.4,0.2-3.2,0.8c-0.7,0.5-1.1,1.2-1.1,2.1c0,0.6,0.2,1.2,0.5,1.6c0.3,0.4,0.8,0.8,1.4,1.2s1.5,0.8,2.8,1.2
				c1.4,0.6,2.4,1.1,3.2,1.6c0.8,0.5,1.4,1.1,1.8,1.8c0.4,0.7,0.6,1.6,0.6,2.7c0,1.8-0.6,3.1-1.9,4.1s-3.1,1.4-5.5,1.4
				C168,30.1,166.9,30,165.8,29.8z"/>
			<path class="st0" d="M182.5,29.2c-1.2-0.6-2.1-1.4-2.8-2.5s-1-2.4-1-3.9c0-1.5,0.3-2.8,1-3.9s1.6-2,2.8-2.6
				c1.2-0.6,2.6-0.9,4.1-0.9s2.9,0.3,4.1,0.9c1.2,0.6,2.1,1.5,2.8,2.6s1,2.4,1,3.9c0,1.5-0.3,2.8-1,3.9s-1.6,1.9-2.8,2.5
				s-2.6,0.9-4.1,0.9C185,30.1,183.7,29.8,182.5,29.2z M190.2,26.4c0.9-0.9,1.3-2.1,1.3-3.6c0-1.6-0.4-2.8-1.3-3.7s-2.1-1.3-3.6-1.3
				s-2.7,0.4-3.6,1.3s-1.3,2.1-1.3,3.7c0,1.5,0.4,2.7,1.3,3.6c0.9,0.9,2.1,1.4,3.6,1.4S189.3,27.4,190.2,26.4z"/>
			<path class="st0" d="M200.4,29.3c-1.2-0.6-2.1-1.4-2.8-2.5c-0.7-1.1-1-2.4-1-3.9c0-1.5,0.3-2.8,1-3.9c0.7-1.1,1.6-1.9,2.8-2.6
				c1.2-0.6,2.6-0.9,4.1-0.9c2.1,0,3.8,0.4,5.1,1.2v2.4c-1.2-0.9-2.8-1.3-4.8-1.3c-1.6,0-2.8,0.4-3.8,1.3s-1.5,2.1-1.5,3.8
				c0,1.7,0.5,2.9,1.4,3.7s2.2,1.3,3.8,1.3c1.9,0,3.6-0.5,5-1.4v2.4c-0.7,0.5-1.4,0.8-2.3,1s-1.9,0.3-3,0.3
				C203,30.1,201.6,29.8,200.4,29.3z"/>
			<path class="st0" d="M213.4,12.7c-0.3-0.3-0.5-0.7-0.5-1.2s0.2-0.9,0.5-1.2s0.7-0.5,1.2-0.5c0.5,0,0.9,0.2,1.2,0.5
				c0.3,0.3,0.5,0.7,0.5,1.2s-0.2,0.9-0.5,1.2c-0.3,0.3-0.8,0.5-1.2,0.5C214.2,13.2,213.8,13,213.4,12.7z M213.2,15.9h3v13.8h-3
				V15.9z"/>
			<path class="st0" d="M221.1,28.8c-1-0.8-1.5-2-1.5-3.5c0-1.5,0.5-2.7,1.5-3.6s2.3-1.2,4.1-1.2c1.9,0,3.5,0.4,4.8,1.2V21
				c0-1.1-0.3-1.9-1-2.4s-1.7-0.8-3.1-0.8c-0.8,0-1.7,0.1-2.5,0.2c-0.8,0.2-1.5,0.4-2.1,0.7v-2.4c0.6-0.3,1.3-0.5,2.2-0.7
				c0.9-0.2,1.8-0.2,2.7-0.2c2.3,0,4,0.5,5.1,1.5c1.1,1,1.6,2.4,1.6,4.2v8.5h-2.7v-1.6c-0.6,0.7-1.3,1.2-2.1,1.5
				c-0.8,0.3-1.8,0.5-3,0.5C223.4,30.1,222.1,29.7,221.1,28.8z M228.3,27.4c0.8-0.4,1.3-0.9,1.7-1.5V24c-1.2-0.8-2.6-1.2-4.2-1.2
				c-1.1,0-1.9,0.2-2.5,0.7s-0.8,1.1-0.8,2c0,1.7,1.1,2.5,3.3,2.5C226.7,27.9,227.6,27.7,228.3,27.4z"/>
			<path class="st0" d="M236.5,8.4h2.9v21.3h-2.9V8.4z"/>
			<path class="st0" d="M244.8,28.2c-1.5-1.3-2.2-3.1-2.2-5.4c0-2.3,0.6-4.1,1.9-5.4s3.1-2,5.5-2c1.6,0,2.9,0.3,4.1,0.9
				c1.1,0.6,2,1.4,2.5,2.5c0.6,1.1,0.9,2.3,0.9,3.6v1.4h-12.1c0.1,1.3,0.6,2.3,1.6,2.9c1,0.6,2.4,1,4.1,1c0.9,0,1.8-0.1,2.7-0.2
				c0.9-0.2,1.7-0.4,2.4-0.7v2.3c-0.6,0.2-1.4,0.5-2.4,0.6s-2,0.2-3,0.2C248.2,30.1,246.2,29.5,244.8,28.2z M254.8,21.9
				c0-1.3-0.5-2.3-1.3-3c-0.8-0.7-2-1.1-3.5-1.1c-1.5,0-2.6,0.4-3.4,1.1c-0.8,0.8-1.2,1.8-1.3,3L254.8,21.9L254.8,21.9z"/>
			<path class="st0" d="M262.7,29.8c-1.1-0.2-1.9-0.6-2.5-1v-2.5c0.8,0.4,1.6,0.8,2.6,1.1s1.9,0.4,2.9,0.4c1,0,1.8-0.1,2.3-0.4
				c0.5-0.2,0.7-0.7,0.7-1.2c0-0.4-0.1-0.8-0.3-1c-0.2-0.3-0.6-0.5-1.1-0.7c-0.5-0.2-1.3-0.5-2.4-0.8c-1.1-0.3-2-0.7-2.7-1
				c-0.7-0.3-1.2-0.8-1.5-1.3s-0.5-1.2-0.5-2c0-1.3,0.5-2.3,1.6-3c1.1-0.7,2.5-1,4.2-1c0.9,0,1.8,0.1,2.7,0.3
				c0.9,0.2,1.6,0.4,2.1,0.7v2.4c-0.6-0.3-1.2-0.6-2.1-0.8c-0.8-0.2-1.6-0.3-2.5-0.3c-1,0-1.8,0.1-2.3,0.4c-0.5,0.2-0.8,0.7-0.8,1.3
				c0,0.4,0.1,0.7,0.4,1c0.2,0.2,0.6,0.5,1.1,0.7c0.5,0.2,1.3,0.4,2.4,0.7c1.7,0.5,3,1.1,3.6,1.7c0.7,0.7,1,1.6,1,2.7
				c0,1.2-0.5,2.1-1.5,2.8s-2.4,1.1-4.3,1.1C264.8,30.1,263.8,30,262.7,29.8z"/>
		</g>
		<g>
			<path class="st0" d="M17.7,35L17.7,35C10.2,35,4,28.8,4,21.3l0,0c0-7.6,6.1-13.7,13.7-13.7l0,0c7.6,0,13.7,6.1,13.7,13.7l0,0
				C31.4,28.8,25.3,35,17.7,35z"/>
			<g>
				<path class="st1" d="M8.8,27.1l-0.6,1.5h0c1.6-0.3,3.3-0.6,4.9-0.7l0.9-3.6c-0.8,0.2-1.6,0.4-2.3,0.7
					C10.6,25.4,9.5,26.1,8.8,27.1z"/>
			</g>
			<path class="st1" d="M26.9,28.6l-2.8-7.2c-1.1,0.5-2.7,1-3.5,1.2l1.3,5.2C23.7,28,25.3,28.2,26.9,28.6"/>
			<g>
				<path class="st1" d="M12.6,21.8c1.2-0.4,2.4-0.6,3.5-0.9c1.2-0.3,2.4-0.6,3.6-0.9c1.2-0.3,2.4-0.6,3.5-1.2
					c0.9-0.5,1.6-1.5,1.2-2.6c-0.5,1.2-1.6,1.7-2.8,2.1c-1.1,0.4-2.2,0.7-3.3,0.9c-1.1,0.3-2.3,0.5-3.4,0.8c-1.1,0.3-2.3,0.5-3.4,1
					c-0.9,0.4-1.9,0.9-1.8,2.3C10.4,22.5,11.6,22.1,12.6,21.8z"/>
			</g>
			<g>
				<path class="st1" d="M18.3,18.4c1.2-0.3,2.4-0.6,3.6-1.1c0.5-0.2,1-0.4,1.4-0.8c0.4-0.4,0.6-1,0.4-1.5c-0.3,0.6-0.8,1-1.4,1.3
					l-1.8-4.7h-2.5l1.4,5.7c-1.2,0.3-2.5,0.6-3.8,0.9l1.6-6.6h-2.5l-2.9,7.7c-0.6,0.3-1,0.7-1,1.5c0.3-0.3,0.9-0.7,2.4-1.1
					C15.6,18.9,16.1,18.9,18.3,18.4z"/>
			</g>
			<g>
				<path class="st1" d="M24.7,20.1c0.5-0.6,0.8-1.5,0.5-2.2c-0.7,1.6-2.6,2.2-4.2,2.6c-1.6,0.5-3.3,0.9-5,1.3
					c-1.6,0.4-3.2,0.7-4.6,1.4c-1.3,0.6-2.4,1.4-2.5,3.3c0.7-1,1.8-1.7,2.9-2.1c1.3-0.5,2.6-0.8,3.9-1.1c0.8-0.2,1.5-0.4,2.3-0.6
					c1.3-0.3,2.6-0.7,3.9-1.1C22.8,21.1,24,20.8,24.7,20.1z"/>
			</g>
		</g>
		<rect x="48.3" y="2.7" class="st2" width="1.3" height="37.2"/>
	</g>
</g>
</svg>
