<?xml version="1.0" encoding="utf-8"?>
<!-- Generator: Adobe Illustrator 24.0.1, SVG Export Plug-In . SVG Version: 6.00 Build 0)  -->
<svg version="1.1" xmlns="http://www.w3.org/2000/svg" xmlns:xlink="http://www.w3.org/1999/xlink" x="0px" y="0px"
	 viewBox="0 0 540 204.81" style="enable-background:new 0 0 540 204.81;" xml:space="preserve">
<style type="text/css">
	.st0{fill:#003264;}
	.st1{fill:#E4E8F1;}
	.st2{fill:#FFFFFF;}
</style>
<g id="Capa_2">
	<rect x="0" y="-0.33" class="st0" width="540" height="204.81"/>
</g>
<g id="Capa_1">
	<g>
		<g>
			<path class="st1" d="M205.92,96.71h13.26v2.47h-10.33v6.36h7.71v2.45h-7.71v6.39h10.33v2.45h-13.26V96.71z"/>
			<path class="st1" d="M219.76,103.01h3.08l4.06,9.92l4.06-9.92h3.08l-5.87,13.81h-2.53L219.76,103.01z"/>
			<path class="st1" d="M237.64,115.34c-1.45-1.28-2.17-3.07-2.17-5.39c0-2.26,0.65-4.06,1.94-5.38s3.14-1.99,5.54-1.99
				c1.59,0,2.94,0.3,4.06,0.91c1.11,0.6,1.95,1.44,2.52,2.5c0.57,1.06,0.85,2.28,0.85,3.64v1.44h-12.14c0.1,1.3,0.65,2.28,1.65,2.92
				c1.01,0.64,2.37,0.96,4.1,0.96c0.88,0,1.77-0.08,2.68-0.24c0.9-0.16,1.7-0.38,2.39-0.65v2.33c-0.61,0.25-1.42,0.46-2.43,0.62
				s-2,0.25-2.98,0.25C241.08,117.25,239.08,116.61,237.64,115.34z M247.63,109.02c-0.04-1.3-0.47-2.32-1.28-3.04
				c-0.82-0.72-1.97-1.08-3.47-1.08c-1.46,0-2.59,0.37-3.39,1.12c-0.81,0.75-1.23,1.75-1.27,2.99H247.63z"/>
			<path class="st1" d="M253.53,103.01h2.82v1.99c0.65-0.83,1.45-1.43,2.4-1.83c0.95-0.39,1.94-0.59,2.98-0.59
				c1.84,0,3.21,0.49,4.11,1.47c0.9,0.98,1.35,2.29,1.35,3.94v8.83h-2.91v-8.54c0-2.24-1.07-3.37-3.22-3.37
				c-0.92,0-1.78,0.22-2.57,0.65c-0.8,0.43-1.48,1.09-2.06,1.97v9.29h-2.91V103.01z"/>
			<path class="st1" d="M272.88,116.04c-0.76-0.81-1.14-1.95-1.14-3.42v-7.36h-2.1v-2.24h2.1v-4.14h2.93v4.14h3.4v2.24h-3.4v7.16
				c0,0.92,0.18,1.57,0.53,1.96s1,0.58,1.94,0.58c0.56,0,1.11-0.12,1.67-0.37v2.3c-0.73,0.25-1.63,0.37-2.7,0.37
				C274.71,117.25,273.63,116.85,272.88,116.04z"/>
			<path class="st1" d="M284.58,116.37c-1.18-0.58-2.1-1.43-2.76-2.53c-0.66-1.1-0.99-2.4-0.99-3.9c0-1.48,0.33-2.77,0.98-3.88
				s1.57-1.97,2.76-2.58s2.56-0.91,4.11-0.91c1.55,0,2.92,0.3,4.11,0.91c1.19,0.6,2.11,1.46,2.78,2.58s0.99,2.41,0.99,3.88
				c0,1.5-0.33,2.8-0.99,3.9c-0.66,1.1-1.59,1.95-2.78,2.53c-1.19,0.58-2.56,0.88-4.11,0.88
				C287.13,117.25,285.76,116.96,284.58,116.37z M292.25,113.57c0.88-0.92,1.32-2.13,1.32-3.62c0-1.55-0.44-2.78-1.32-3.68
				c-0.88-0.9-2.07-1.35-3.57-1.35c-1.5,0-2.69,0.45-3.57,1.35c-0.88,0.9-1.32,2.13-1.32,3.68c0,1.5,0.44,2.71,1.32,3.62
				c0.88,0.92,2.07,1.38,3.57,1.38C290.18,114.95,291.37,114.49,292.25,113.57z"/>
			<path class="st1" d="M301.05,116.89c-1.07-0.24-1.92-0.56-2.53-0.96v-2.47c0.75,0.44,1.61,0.8,2.59,1.08
				c0.98,0.28,1.93,0.42,2.85,0.42c1.04,0,1.79-0.12,2.27-0.37c0.48-0.25,0.72-0.65,0.72-1.21c0-0.42-0.11-0.76-0.33-1.02
				c-0.22-0.26-0.59-0.49-1.12-0.71c-0.53-0.21-1.32-0.46-2.37-0.75c-1.13-0.33-2.03-0.66-2.69-0.99c-0.66-0.33-1.16-0.76-1.5-1.28
				c-0.34-0.52-0.5-1.19-0.5-2.01c0-1.32,0.52-2.33,1.57-3.01s2.45-1.02,4.21-1.02c0.92,0,1.82,0.09,2.7,0.26
				c0.88,0.17,1.59,0.41,2.13,0.72v2.42c-0.56-0.33-1.24-0.58-2.06-0.78c-0.82-0.19-1.64-0.29-2.49-0.29
				c-1.02,0-1.79,0.12-2.33,0.37c-0.54,0.25-0.81,0.69-0.81,1.32c0,0.4,0.11,0.73,0.35,0.98c0.23,0.25,0.6,0.46,1.11,0.65
				c0.51,0.18,1.32,0.42,2.43,0.7c1.74,0.48,2.96,1.05,3.64,1.7c0.68,0.65,1.02,1.55,1.02,2.71c0,1.19-0.49,2.14-1.47,2.85
				c-0.98,0.71-2.43,1.06-4.34,1.06C303.14,117.25,302.13,117.13,301.05,116.89z"/>
			<path class="st1" d="M325.68,115.14c-1.4-1.41-2.1-3.35-2.1-5.83v-12.6h2.93v12.71c0,1.71,0.48,3,1.44,3.87
				c0.96,0.87,2.27,1.31,3.94,1.31c1.65,0,2.95-0.44,3.91-1.31c0.96-0.87,1.44-2.16,1.44-3.87V96.71h2.93v12.6
				c0,2.46-0.7,4.39-2.1,5.81c-1.4,1.42-3.46,2.13-6.19,2.13C329.15,117.25,327.08,116.54,325.68,115.14z"/>
			<path class="st1" d="M349.36,96.71h2.82l8.03,20.11h-2.99l-2.01-5.01h-8.89l-1.96,5.01h-3.02L349.36,96.71z M354.39,109.37
				l-3.62-9.41l-3.62,9.41H354.39z"/>
			<path class="st1" d="M363.37,96.71h9.23c1.78,0,3.16,0.46,4.14,1.38c0.98,0.92,1.47,2.26,1.47,4.03c0,1-0.24,1.88-0.71,2.63
				c-0.47,0.76-1.09,1.32-1.86,1.68c2.15,0.63,3.22,2.2,3.22,4.69c0,1.17-0.25,2.18-0.76,3.04c-0.51,0.85-1.2,1.51-2.09,1.97
				c-0.88,0.46-1.86,0.69-2.93,0.69h-9.72V96.71z M372.23,105.34c0.94,0,1.68-0.26,2.22-0.78c0.54-0.52,0.81-1.29,0.81-2.3
				c0-1.17-0.26-1.99-0.79-2.46c-0.53-0.47-1.34-0.7-2.43-0.7h-5.73v6.24H372.23z M372.43,114.43c1.13,0,1.99-0.25,2.59-0.75
				c0.59-0.5,0.89-1.35,0.89-2.56s-0.31-2.07-0.93-2.59c-0.62-0.52-1.56-0.78-2.81-0.78h-5.87v6.67H372.43z"/>
		</g>
		<g>
			<path class="st1" d="M155.5,122.09L155.5,122.09c-7.57,0-13.7-6.13-13.7-13.7v0c0-7.57,6.13-13.7,13.7-13.7h0
				c7.57,0,13.7,6.13,13.7,13.7v0C169.19,115.96,163.06,122.09,155.5,122.09z"/>
			<g>
				<path class="st0" d="M146.55,114.2l-0.58,1.5h0.01c1.62-0.33,3.27-0.57,4.94-0.73l0.89-3.58c-0.79,0.21-1.58,0.43-2.34,0.72
					C148.32,112.55,147.25,113.17,146.55,114.2z"/>
			</g>
			<path class="st0" d="M164.69,115.7l-2.75-7.17c-1.05,0.52-2.72,1.02-3.5,1.2l1.31,5.23C161.41,115.13,163.06,115.37,164.69,115.7
				"/>
			<g>
				<path class="st0" d="M150.35,108.89c1.22-0.39,2.35-0.62,3.54-0.91c1.19-0.29,2.38-0.58,3.57-0.89c1.16-0.3,2.43-0.6,3.48-1.19
					c0.94-0.52,1.63-1.52,1.23-2.62c-0.46,1.17-1.63,1.73-2.76,2.11c-1.09,0.37-2.22,0.65-3.33,0.92c-1.15,0.27-2.29,0.51-3.44,0.78
					c-1.13,0.27-2.31,0.54-3.38,1.01c-0.91,0.39-1.92,0.87-1.75,2.35C148.2,109.63,149.37,109.2,150.35,108.89z"/>
			</g>
			<g>
				<path class="st0" d="M156.06,105.52c1.22-0.29,2.43-0.63,3.6-1.08c0.48-0.19,0.98-0.43,1.35-0.8c0.37-0.37,0.57-1,0.35-1.5
					c-0.29,0.6-0.81,0.99-1.4,1.27l-1.81-4.72h-2.48l1.42,5.7c-1.24,0.34-2.51,0.6-3.76,0.88l1.64-6.58h-2.48l-2.95,7.67
					c-0.55,0.26-1.02,0.65-1.03,1.48c0.3-0.27,0.92-0.68,2.41-1.11C153.4,106.02,153.88,106.04,156.06,105.52z"/>
			</g>
			<g>
				<path class="st0" d="M162.41,107.19c0.54-0.57,0.84-1.51,0.51-2.25c-0.71,1.62-2.63,2.16-4.2,2.61c-1.65,0.46-3.33,0.88-5,1.28
					c-1.57,0.37-3.18,0.68-4.65,1.36c-1.27,0.58-2.44,1.42-2.47,3.28c0.7-1.03,1.78-1.65,2.92-2.09c1.26-0.48,2.59-0.78,3.9-1.12
					c0.76-0.2,1.52-0.39,2.27-0.6c1.32-0.35,2.65-0.69,3.94-1.13C160.57,108.22,161.71,107.93,162.41,107.19z"/>
			</g>
		</g>
		<rect x="186.08" y="89.81" class="st2" width="1.32" height="37.17"/>
	</g>
</g>
</svg>
